<?xml version="1.0" encoding="UTF-8" standalone="no"?>
<!-- Created with Inkscape (http://www.inkscape.org/) -->

<svg
   width="64"
   height="64"
   viewBox="0 0 16.933333 16.933335"
   version="1.1"
   id="svg5"
   inkscape:version="1.2.1 (9c6d41e410, 2022-07-14)"
   sodipodi:docname="favicon.svg"
   xmlns:inkscape="http://www.inkscape.org/namespaces/inkscape"
   xmlns:sodipodi="http://sodipodi.sourceforge.net/DTD/sodipodi-0.dtd"
   xmlns="http://www.w3.org/2000/svg"
   xmlns:svg="http://www.w3.org/2000/svg"
   xmlns:rdf="http://www.w3.org/1999/02/22-rdf-syntax-ns#"
   xmlns:cc="http://creativecommons.org/ns#"
   xmlns:dc="http://purl.org/dc/elements/1.1/">
  <title
     id="title5288">Al-Mujahidin Mosque Favicon Logo</title>
  <sodipodi:namedview
     id="namedview7"
     pagecolor="#ffffff"
     bordercolor="#000000"
     borderopacity="0.25"
     inkscape:showpageshadow="2"
     inkscape:pageopacity="0.0"
     inkscape:pagecheckerboard="0"
     inkscape:deskcolor="#d1d1d1"
     inkscape:document-units="px"
     showgrid="false"
     inkscape:zoom="8.15625"
     inkscape:cx="31.938697"
     inkscape:cy="32"
     inkscape:window-width="1366"
     inkscape:window-height="709"
     inkscape:window-x="0"
     inkscape:window-y="0"
     inkscape:window-maximized="1"
     inkscape:current-layer="g1987" />
  <defs
     id="defs2" />
  <g
     inkscape:label="Layer 1"
     inkscape:groupmode="layer"
     id="layer1"
     transform="translate(-50.37438,-108.14566)">
    <g
       id="g1987"
       transform="matrix(1.1582427,0,0,1.1582427,-11.533441,-18.521194)">
      <rect
         style="font-variation-settings:normal;vector-effect:none;fill:#193732;fill-opacity:1;stroke:none;stroke-width:3.04269;stroke-linecap:butt;stroke-linejoin:miter;stroke-miterlimit:4;stroke-dasharray:none;stroke-dashoffset:0;stroke-opacity:0.509375;-inkscape-stroke:none;stop-color:#000000"
         id="rect1815-6"
         width="14.619849"
         height="14.619849"
         x="53.449783"
         y="109.36124" />
      <g
         id="g4836"
         transform="matrix(0.62037589,0,0,0.62037589,18.134952,39.07537)"
         style="stroke-width:1.3917">
        <path
           id="path4706"
           style="color:#000000;fill:#0e9948;fill-opacity:1;stroke-width:1.3917"
           d="m 68.70773,120.20766 c -0.146795,0 -0.29109,0.0127 -0.433566,0.0367 -1.853946,0.15836 -3.509742,1.32331 -4.71289,3.08612 -1.177882,1.7258 -1.937156,4.03213 -2.066024,6.59081 l 7.21248,-2.24792 7.212996,2.24792 c -0.12918,-2.55868 -0.890209,-4.86501 -2.068091,-6.59081 -1.203002,-1.7626 -2.856872,-2.92754 -4.710307,-3.08612 -0.142636,-0.024 -0.287631,-0.0367 -0.434598,-0.0367 z" />
        <path
           id="path4708"
           style="font-variation-settings:normal;fill:#ffffff;fill-opacity:1;stroke:none;stroke-width:0.736441;stroke-linecap:butt;stroke-linejoin:miter;stroke-miterlimit:4;stroke-dasharray:none;stroke-dashoffset:0;stroke-opacity:1;stop-color:#000000"
           d="m 68.70795,116.80579 -0.183968,1.43764 v 1.21439 l -0.255799,0.30334 v 0.4837 c -1.851334,0.16029 -3.503259,1.32465 -4.705139,3.08559 -1.177883,1.72581 -1.938918,4.03212 -2.06809,6.59082 0.151862,-2.38292 1.583482,-5.39604 2.392102,-6.35569 0.757617,-0.89913 1.565674,-1.66799 2.440161,-2.16266 -0.476765,0.51707 -0.90262,1.18195 -1.266073,1.95337 -0.739272,1.56908 -1.237165,3.61048 -1.387512,5.88595 0.1593,-2.13236 1.347245,-4.76447 1.738395,-5.53403 0.680658,-1.33917 1.572965,-2.4116 2.434994,-2.78536 -0.04387,0.0812 -0.08617,0.1681 -0.127641,0.26148 -0.243941,0.54928 -0.451066,1.3122 -0.626835,2.24793 -0.250559,1.33388 -0.430554,3.0205 -0.513664,4.90461 0.125408,-2.15842 1.074877,-6.04658 1.624707,-6.93756 0.107458,-0.24196 0.218122,-0.42053 0.312642,-0.52349 0.09452,-0.10296 0.15449,-0.12144 0.19172,-0.12144 0.03723,0 0.0972,0.0185 0.191719,0.12144 0.09452,0.10296 0.205185,0.28153 0.312643,0.52349 0.549827,0.89098 1.499299,4.77914 1.624707,6.93756 -0.08311,-1.88411 -0.263104,-3.57073 -0.513664,-4.90461 -0.175771,-0.93573 -0.382894,-1.69865 -0.626835,-2.24793 -0.04147,-0.0934 -0.08377,-0.18023 -0.127641,-0.26148 0.862027,0.37376 1.754334,1.44619 2.434994,2.78536 0.391148,0.76956 1.579095,3.40167 1.738395,5.53403 -0.150347,-2.27547 -0.648239,-4.31687 -1.387512,-5.88595 -0.363452,-0.77142 -0.789308,-1.4363 -1.266073,-1.95337 0.874487,0.49467 1.682545,1.26353 2.440161,2.16266 0.808618,0.95965 2.240238,3.97277 2.392102,6.35569 -0.129174,-2.5587 -0.890206,-4.86501 -2.068091,-6.59082 -1.201875,-1.76094 -2.853809,-2.9253 -4.705139,-3.08559 v -0.4837 l -0.255798,-0.30334 v -1.21439 z m 0,11.41067 -9.848494,3.06958 v 1.53531 l 9.848494,-3.0701 9.848494,3.0701 v -1.53531 z" />
        <path
           id="path4714"
           style="font-variation-settings:normal;fill:#0e9948;fill-opacity:1;stroke:none;stroke-width:0.736441;stroke-linecap:butt;stroke-linejoin:miter;stroke-miterlimit:4;stroke-dasharray:none;stroke-dashoffset:0;stroke-opacity:1;stop-color:#000000"
           d="m 68.70795,128.83451 -9.306925,2.9006 v 0.29972 l 9.306925,-2.90111 9.306408,2.90111 v -0.29972 z m 0,1.44746 -9.848494,3.06958 h 3.694864 a 9.7924366,4.0735264 0 0 1 6.15363,-0.90744 9.7924366,4.0735264 0 0 1 6.160864,0.90744 h 3.68763 z" />
      </g>
    </g>
  </g>
  <metadata
     id="metadata5284">
    <rdf:RDF>
      <cc:Work
         rdf:about="">
        <cc:license
           rdf:resource="http://creativecommons.org/licenses/by-nc-sa/4.0/" />
        <dc:title>Al-Mujahidin Mosque Favicon Logo</dc:title>
        <dc:creator>
          <cc:Agent>
            <dc:title>Hervy Qurrotul Ainur Rozi</dc:title>
          </cc:Agent>
        </dc:creator>
      </cc:Work>
      <cc:License
         rdf:about="http://creativecommons.org/licenses/by-nc-sa/4.0/">
        <cc:permits
           rdf:resource="http://creativecommons.org/ns#Reproduction" />
        <cc:permits
           rdf:resource="http://creativecommons.org/ns#Distribution" />
        <cc:requires
           rdf:resource="http://creativecommons.org/ns#Notice" />
        <cc:requires
           rdf:resource="http://creativecommons.org/ns#Attribution" />
        <cc:prohibits
           rdf:resource="http://creativecommons.org/ns#CommercialUse" />
        <cc:permits
           rdf:resource="http://creativecommons.org/ns#DerivativeWorks" />
        <cc:requires
           rdf:resource="http://creativecommons.org/ns#ShareAlike" />
      </cc:License>
    </rdf:RDF>
  </metadata>
</svg>
