<?xml version="1.0" encoding="UTF-8" standalone="no"?>
<!-- Created with Inkscape (http://www.inkscape.org/) -->

<svg
   width="64"
   height="64"
   viewBox="0 0 16.933333 16.933335"
   version="1.1"
   id="svg5"
   inkscape:version="1.2.1 (9c6d41e410, 2022-07-14)"
   sodipodi:docname="favicon.svg"
   xmlns:inkscape="http://www.inkscape.org/namespaces/inkscape"
   xmlns:sodipodi="http://sodipodi.sourceforge.net/DTD/sodipodi-0.dtd"
   xmlns="http://www.w3.org/2000/svg"
   xmlns:svg="http://www.w3.org/2000/svg"
   xmlns:rdf="http://www.w3.org/1999/02/22-rdf-syntax-ns#"
   xmlns:cc="http://creativecommons.org/ns#"
   xmlns:dc="http://purl.org/dc/elements/1.1/">
  <title
     id="title5288">Al-Mujahidin Mosque Favicon Logo</title>
  <sodipodi:namedview
     id="namedview7"
     pagecolor="#ffffff"
     bordercolor="#000000"
     borderopacity="0.25"
     inkscape:showpageshadow="2"
     inkscape:pageopacity="0.0"
     inkscape:pagecheckerboard="0"
     inkscape:deskcolor="#d1d1d1"
     inkscape:document-units="px"
     showgrid="false"
     inkscape:zoom="4.203125"
     inkscape:cx="4.7583643"
     inkscape:cy="34.498141"
     inkscape:window-width="1366"
     inkscape:window-height="707"
     inkscape:window-x="0"
     inkscape:window-y="0"
     inkscape:window-maximized="1"
     inkscape:current-layer="g1987" />
  <defs
     id="defs2" />
  <g
     inkscape:label="Layer 1"
     inkscape:groupmode="layer"
     id="layer1"
     transform="translate(-50.37438,-108.14566)">
    <g
       id="g1987"
       transform="matrix(1.1582427,0,0,1.1582427,-11.533441,-18.521194)">
      <g
         id="g11767"
         transform="matrix(0.05116308,0,0,0.05116308,31.814795,103.56692)">
        <path
           style="color:#000000;fill:#2b9136;stroke-width:8.38391"
           d="M 704.42181,256.12668 A 138.68304,138.68304 0 0 1 565.73877,394.80972 138.68304,138.68304 0 0 1 427.05573,256.12668 138.68304,138.68304 0 0 1 565.73877,117.44363 138.68304,138.68304 0 0 1 704.42181,256.12668 Z"
           id="path11706" />
        <path
           style="color:#000000;fill:#ffffff"
           d="m 565.73828,113.25195 c -78.85795,0 -142.875,64.01705 -142.875,142.875 0,78.85796 64.01705,142.875 142.875,142.875 78.85795,0 142.875,-64.01704 142.875,-142.875 0,-78.85795 -64.01705,-142.875 -142.875,-142.875 z m 0,8.38282 c 74.32696,0 134.49219,60.16523 134.49219,134.49218 0,74.32696 -60.16523,134.49024 -134.49219,134.49024 -74.32695,0 -134.49023,-60.16328 -134.49023,-134.49024 0,-74.32695 60.16328,-134.49218 134.49023,-134.49218 z"
           id="path11708" />
        <path
           style="color:#000000;fill:#ffffff"
           d="m 565.73828,129.51172 c -69.90308,0 -126.61523,56.71215 -126.61523,126.61523 0,69.90308 56.71215,126.61524 126.61523,126.61524 69.90308,0 126.61719,-56.71216 126.61719,-126.61524 0,-69.90308 -56.71411,-126.61523 -126.61719,-126.61523 z m 0,4.1914 c 67.63759,0 122.42383,54.78625 122.42383,122.42383 0,67.63759 -54.78624,122.42383 -122.42383,122.42383 -67.63758,0 -122.42383,-54.78624 -122.42383,-122.42383 0,-67.63758 54.78625,-122.42383 122.42383,-122.42383 z"
           id="circle11588" />
        <g
           id="g11610"
           transform="translate(-334.23788)">
          <path
             style="fill:#ffffff;stroke-width:12.5759"
             d="m 961.2215,204.20674 c 0,0 -2.84218,-9.38765 -7.61094,-25.32267 -4.76877,-15.93486 -11.81981,-24.10778 -11.81981,-24.10778 0,0 41.58946,16.84064 57.22345,47.17575 15.634,30.33511 17.5739,66.13547 3.5504,98.43344 -14.02334,32.29781 -47.47156,51.8081 -52.699,52.60788 -5.22743,0.8001 -17.35318,-7.87395 -24.5693,-14.11348 -7.21629,-6.23968 -5.74125,-13.32938 -5.91774,-16.34093 -0.17587,-3.01155 0.24557,-6.66984 0.24557,-6.66984 0,0 8.67928,18.34261 28.93263,20.03931 20.25351,1.69684 25.5673,-6.63372 37.14802,-23.30246 11.58088,-16.66873 17.41992,-45.01357 14.13122,-64.70526 -3.28849,-19.69201 -8.26354,-29.71388 -18.25483,-45.12891 -9.99114,-15.41504 -20.1754,-23.9381 -20.1754,-23.9381 z"
             id="path11590" />
          <path
             style="fill:#ffffff;stroke-width:12.5759"
             d="m 908.70124,219.25198 c 0,0 -0.0125,-19.63386 7.2391,-37.58846 7.25288,-17.95461 11.28919,-13.68697 20.08826,-0.33114 8.79906,13.356 14.76227,26.90909 16.05923,34.54476 1.29759,7.63582 -0.5371,20.568 4.68954,21.40882 5.22602,0.8413 8.20731,-2.11956 8.20731,-2.11956 0,0 -4.07593,0.77793 -6.92984,-20.56467 -2.85374,-21.34244 -9.16694,-40.42447 -16.65257,-48.67471 -7.48563,-8.2504 -20.22372,-19.70881 -23.98293,-13.03437 -3.75922,6.67443 -11.40217,31.85292 -11.67468,47.08353 -0.27251,15.23061 -1.24372,16.91495 2.95658,19.27564 z"
             id="path11592" />
          <path
             id="path11594"
             style="fill:#ffffff;stroke-width:12.5759"
             d="m 973.8788,217.42522 c -6.66271,-0.0475 -12.54005,8.89697 -17.66023,17.20187 -6.82669,11.07325 -0.58938,19.65795 -0.58938,19.65795 -3.20342,2.80954 -10.84304,8.58327 -12.87879,11.42133 -2.03622,2.83822 0.48323,14.96666 0.48323,14.96666 0,0 5.92662,-1.62603 14.80284,-5.97684 8.87606,-4.35097 18.12682,-1.79302 18.12682,-1.79302 0,0 -11.8122,14.61271 -28.03367,22.58901 -16.22147,7.9763 -35.96719,9.00614 -35.96719,9.00614 l 1.43226,-22.14682 -17.27539,10.1605 c 0,0 -0.0475,10.22324 1.82566,20.49306 1.86828,10.26983 22.54956,12.5128 42.31256,4.41308 19.76283,-8.09988 42.30098,-34.46744 43.85999,-36.17205 1.55901,-1.70477 2.54338,-15.41265 2.70181,-21.50832 0.15844,-6.09583 -0.67177,-5.65221 -7.34414,-3.83162 -6.67285,1.82075 -13.29627,5.14981 -13.29627,5.14981 0,0 1.02508,-3.64387 7.72883,-7.24576 6.70454,-3.60204 11.31502,-5.7395 11.31502,-5.7395 l -0.36757,-7.57324 c 0,0 5.34167,-10.19251 -4.24925,-19.67443 -2.39777,-2.37052 -4.70571,-3.38245 -6.92667,-3.39781 z m 1.42434,16.52218 c 3.56243,-0.11091 4.93037,2.85074 1.76038,6.03419 -4.5083,4.52699 -11.65075,7.90089 -11.65075,7.90089 0,0 -2.72684,-7.32925 4.38028,-11.92089 2.10989,-1.36254 4.00606,-1.96428 5.51009,-2.01419 z" />
          <path
             id="path11596"
             style="fill:#ffffff;stroke-width:12.5759"
             d="m 903.39347,211.02266 c -5.54938,0.1109 -10.79012,1.34195 -15.00753,4.27397 -14.99629,10.42429 -16.36708,31.88667 -14.17242,51.53971 2.19466,19.65303 16.44851,18.18417 16.44851,18.18417 -4.8144,7.89392 -15.57379,11.4131 -22.38432,5.00246 -6.81053,-6.41064 -13.05069,-45.44008 -13.05069,-45.44008 l -9.49744,13.27995 c 0,0 8.37556,20.01332 11.79809,33.8714 3.42238,13.85808 -5.25231,30.72185 -23.50604,33.95315 -18.25373,3.23115 -27.12488,-20.74688 -27.12488,-20.74688 0,0 2.265,12.76392 8.68673,21.56568 6.42157,8.80144 22.65667,19.59948 30.26065,17.7011 7.60382,-1.89838 19.55195,-17.77367 21.30362,-25.0698 1.75167,-7.29614 -2.94739,-21.87685 -2.94739,-21.87685 0,0 9.54973,15.47603 14.63094,13.96772 5.0812,-1.50831 33.98864,-23.4772 46.36518,-31.70162 12.37639,-8.22441 19.91192,-19.45784 23.50605,-32.15189 3.59412,-12.69389 0.92368,-19.89972 -8.27734,-25.61847 -6.61391,-4.11046 -22.85011,-11.03348 -37.03172,-10.73372 z m 1.83406,16.86614 c 6.20863,-0.0951 10.5699,2.80828 10.5699,2.80828 l -5.78846,8.31837 c 0,0 -10.50716,-2.7899 -15.53972,2.82475 -5.03241,5.61466 -7.28679,14.90107 -7.28679,14.90107 0,0 -3.12721,-19.23968 7.9172,-25.86405 3.62391,-2.17358 7.09572,-2.9393 10.12787,-2.98842 z m 18.2824,5.08437 c 0,0 6.92397,3.12436 12.24837,7.65516 5.3244,4.53095 5.88384,2.82222 1.38315,8.47411 -4.49974,5.65172 -21.96684,22.63812 -21.96684,22.63812 0,0 2.01816,-9.32966 1.07262,-16.02279 -0.94428,-6.69297 -2.61182,-12.43659 -2.61182,-12.43659 z M 905.0965,252.5001 c 0,0 5.16787,1.48137 1.61288,9.03069 -3.55483,7.54837 -8.64585,14.75372 -8.64585,14.75372 0,0 -2.262,-5.72746 -0.26142,-10.20962 2.00009,-4.48231 2.68549,-8.48219 2.68549,-8.48219 z" />
          <path
             style="fill:#ffffff;stroke-width:12.5759"
             d="m 923.92393,217.95867 c 0,0 1.07102,-10.98374 -2.55241,-24.9242 C 917.74777,179.094 892.578,163.36701 892.578,163.36701 l 7.6279,51.07929 -13.07034,7.75212 -9.08741,-74.21032 c 0,0 26.63404,8.67358 41.72634,31.51039 15.09229,22.83696 11.03808,42.43819 11.03808,42.43819 z"
             id="path11598" />
          <path
             style="fill:#ffffff;stroke-width:12.5759"
             d="m 856.87317,186.89935 -2.88084,14.35462 c 0,0 8.17578,3.39338 9.43423,8.54952 1.25798,5.1563 -1.4481,12.60264 -11.05994,16.81371 -9.6112,4.21123 -7.48674,2.11845 -13.33144,-1.67499 -5.8447,-3.79327 -7.66212,-5.61069 -7.66212,-5.61069 l -3.84667,11.29981 c 0,0 10.78616,7.75133 10.62599,10.56911 -0.16003,2.81794 -4.28364,20.01094 -20.14134,27.7667 -15.8577,7.75576 -26.31812,-1.7382 -25.42755,-20.459 0.89041,-18.7208 13.76096,-31.56013 20.77587,-31.91218 7.01475,-0.35173 9.07791,-0.35173 9.07791,-0.35173 l 1.24847,-9.88688 c 0,0 -15.31949,1.44811 -11.61716,-6.74272 3.70233,-8.19035 13.13609,-21.18749 25.12763,-30.79948 11.99139,-9.61216 14.32309,-11.45873 14.32309,-11.45873 0,0 -33.21056,17.31199 -43.77792,36.85396 -10.56737,19.54197 -3.80025,21.91265 -3.80025,21.91265 0,0 -17.32878,20.73737 -16.81608,36.99116 0.51333,16.25395 0.96963,35.5307 16.40066,38.58931 15.4304,3.05861 34.82408,-18.22489 38.39095,-30.40878 3.56687,-12.18405 2.25058,-19.59014 2.25058,-19.59014 0,0 3.30101,3.50952 6.40113,2.6367 3.10028,-0.87299 18.98174,-11.73663 19.63117,-17.77431 0.64959,-6.03768 4.62301,-22.06459 2.0931,-25.18118 -5.40584,-6.65954 -15.41947,-14.48644 -15.41947,-14.48644 z"
             id="path11600"
             sodipodi:nodetypes="ccsssccssssccsscsccsscsssc" />
          <path
             style="fill:#ffffff;stroke-width:12.5759"
             d="m 827.64411,211.81341 -1.54317,-15.13079 47.96935,-44.95416 0.12675,15.13729 z"
             id="path11602" />
          <rect
             style="fill:#ffffff;stroke-width:14.5129"
             id="rect11604"
             width="13.482712"
             height="13.482712"
             x="881.13391"
             y="-401.13956"
             transform="rotate(45)" />
          <rect
             style="fill:#ffffff;stroke-width:14.5129"
             id="rect11606"
             width="13.482712"
             height="13.482712"
             x="848.94403"
             y="-389.52896"
             transform="rotate(45)" />
          <rect
             style="fill:#ffffff;stroke-width:14.5129"
             id="rect11608"
             width="13.482712"
             height="13.482712"
             x="862.42676"
             y="-376.04626"
             transform="rotate(45)" />
        </g>
      </g>
    </g>
  </g>
  <metadata
     id="metadata5284">
    <rdf:RDF>
      <cc:Work
         rdf:about="">
        <cc:license
           rdf:resource="http://creativecommons.org/licenses/by-nc-sa/4.0/" />
        <dc:title>Al-Mujahidin Mosque Favicon Logo</dc:title>
        <dc:creator>
          <cc:Agent>
            <dc:title>Hervy Qurrotul Ainur Rozi</dc:title>
          </cc:Agent>
        </dc:creator>
      </cc:Work>
      <cc:License
         rdf:about="http://creativecommons.org/licenses/by-nc-sa/4.0/">
        <cc:permits
           rdf:resource="http://creativecommons.org/ns#Reproduction" />
        <cc:permits
           rdf:resource="http://creativecommons.org/ns#Distribution" />
        <cc:requires
           rdf:resource="http://creativecommons.org/ns#Notice" />
        <cc:requires
           rdf:resource="http://creativecommons.org/ns#Attribution" />
        <cc:prohibits
           rdf:resource="http://creativecommons.org/ns#CommercialUse" />
        <cc:permits
           rdf:resource="http://creativecommons.org/ns#DerivativeWorks" />
        <cc:requires
           rdf:resource="http://creativecommons.org/ns#ShareAlike" />
      </cc:License>
    </rdf:RDF>
  </metadata>
</svg>
