<?xml version="1.0" encoding="UTF-8" standalone="no"?>
<!-- Created with Inkscape (http://www.inkscape.org/) -->

<svg
   width="226.27574"
   height="85"
   viewBox="0 0 59.86879 22.489585"
   version="1.1"
   id="svg5"
   inkscape:version="1.2.1 (9c6d41e410, 2022-07-14)"
   sodipodi:docname="logo.svg"
   xmlns:inkscape="http://www.inkscape.org/namespaces/inkscape"
   xmlns:sodipodi="http://sodipodi.sourceforge.net/DTD/sodipodi-0.dtd"
   xmlns="http://www.w3.org/2000/svg"
   xmlns:svg="http://www.w3.org/2000/svg"
   xmlns:rdf="http://www.w3.org/1999/02/22-rdf-syntax-ns#"
   xmlns:cc="http://creativecommons.org/ns#"
   xmlns:dc="http://purl.org/dc/elements/1.1/">
  <title
     id="title5288">Al-Mujahidin Mosque Logo</title>
  <sodipodi:namedview
     id="namedview7"
     pagecolor="#ffffff"
     bordercolor="#000000"
     borderopacity="0.25"
     inkscape:showpageshadow="2"
     inkscape:pageopacity="0.0"
     inkscape:pagecheckerboard="0"
     inkscape:deskcolor="#d1d1d1"
     inkscape:document-units="px"
     showgrid="false"
     inkscape:zoom="2.0703423"
     inkscape:cx="147.07713"
     inkscape:cy="17.388429"
     inkscape:window-width="1366"
     inkscape:window-height="709"
     inkscape:window-x="0"
     inkscape:window-y="0"
     inkscape:window-maximized="1"
     inkscape:current-layer="g1987" />
  <defs
     id="defs2" />
  <g
     inkscape:label="Layer 1"
     inkscape:groupmode="layer"
     id="layer1"
     transform="translate(-68.553611,-132.84254)">
    <g
       id="g1987"
       transform="matrix(1.1582427,0,0,1.1582427,-11.533441,-18.521194)">
      <path
         id="path4753"
         style="font-size:11.1337px;font-family:'Amiri Quran';-inkscape-font-specification:'Amiri Quran, Normal';fill:#ffffff;stroke-width:2.40315;stroke-opacity:0.509375"
         d="m 101.24013,133.53115 c -0.008,-2.2e-4 -0.016,4.4e-4 -0.0241,0.002 -0.2026,0.0323 -0.36128,0.19091 -0.4764,0.4764 -0.0461,0.11051 -0.0207,0.21182 0.076,0.30391 0.0553,0.0507 0.14252,0.10834 0.26225,0.1728 -0.22103,0.2855 -0.51794,0.53632 -0.89092,0.75275 -0.0875,0.0461 -0.11493,0.10127 -0.0827,0.16574 0.0323,0.0507 0.085,0.0552 0.15869,0.0138 0.36377,-0.17958 0.69057,-0.45785 0.98068,-0.83544 0.0645,0.0369 0.12002,0.0622 0.16606,0.076 0.0369,0.0138 0.0667,-2.4e-4 0.0898,-0.0417 l 0.0689,-0.13112 c 0.0322,-0.0599 0.0207,-0.10135 -0.0346,-0.12439 -0.0184,-0.004 -0.0392,-0.0138 -0.0622,-0.0275 -0.0184,-0.0184 -0.0459,-0.0367 -0.0827,-0.0552 0.10591,-0.26707 0.10591,-0.4813 0,-0.64245 -0.0443,-0.0685 -0.0939,-0.10366 -0.14876,-0.10516 z m 5.69813,0 c -0.008,-2.2e-4 -0.0156,4.4e-4 -0.0237,0.002 -0.20261,0.0323 -0.36159,0.19091 -0.47671,0.4764 -0.0461,0.11051 -0.0207,0.21182 0.076,0.30391 0.0553,0.0507 0.14284,0.10834 0.26256,0.1728 -0.22103,0.2855 -0.51793,0.53632 -0.89091,0.75275 -0.0875,0.0461 -0.11525,0.10127 -0.083,0.16574 0.0323,0.0507 0.0853,0.0552 0.15902,0.0138 0.36377,-0.17958 0.69058,-0.45785 0.98067,-0.83544 0.0645,0.0369 0.1197,0.0622 0.16575,0.076 0.0369,0.0138 0.0667,-2.4e-4 0.0898,-0.0417 l 0.0693,-0.13112 c 0.0322,-0.0599 0.0207,-0.10135 -0.0346,-0.12439 -0.0184,-0.004 -0.0392,-0.0138 -0.0622,-0.0275 -0.0184,-0.0184 -0.0458,-0.0367 -0.0827,-0.0552 0.1059,-0.26707 0.1059,-0.4813 0,-0.64245 -0.0443,-0.0685 -0.0942,-0.10366 -0.14907,-0.10516 z m -5.90844,0.34463 c 0.0351,-6.1e-4 0.0742,0.0185 0.11734,0.0574 0.0644,0.0506 0.0873,0.14067 0.0689,0.26961 -0.13354,-0.0644 -0.22112,-0.11757 -0.26256,-0.15901 -0.0368,-0.0369 -0.046,-0.0668 -0.0275,-0.0898 0.0293,-0.0514 0.0641,-0.0775 0.10386,-0.0782 z m 5.69813,0 c 0.0351,-6.1e-4 0.0742,0.0185 0.11734,0.0574 0.0644,0.0506 0.0876,0.14067 0.0693,0.26961 -0.13354,-0.0644 -0.22112,-0.11757 -0.26257,-0.15901 -0.0368,-0.0369 -0.046,-0.0668 -0.0275,-0.0898 0.0293,-0.0514 0.0638,-0.0775 0.10355,-0.0782 z m -16.517336,0.23691 c -0.146699,0.003 -0.275023,0.10434 -0.384385,0.30392 -0.02302,0.0461 -0.0459,0.0946 -0.06893,0.14523 -0.01842,0.0507 -0.03215,0.10588 -0.04135,0.16574 -0.06907,0.43285 0.08044,0.66324 0.448823,0.69087 0.174979,0.0138 0.324816,-0.021 0.449143,-0.10387 0.16577,-0.11972 0.241752,-0.30372 0.227939,-0.55238 -0.01382,-0.198 -0.115124,-0.37072 -0.303918,-0.51807 -0.117852,-0.0898 -0.226947,-0.1336 -0.32732,-0.13144 z m 23.456466,0 c -0.14669,0.003 -0.27502,0.10434 -0.38439,0.30392 -0.023,0.0461 -0.0459,0.0946 -0.0689,0.14523 -0.0184,0.0507 -0.0321,0.10588 -0.0414,0.16574 -0.069,0.43285 0.0805,0.66324 0.44883,0.69087 0.17498,0.0138 0.32482,-0.021 0.44914,-0.10387 0.16578,-0.11972 0.24176,-0.30372 0.22794,-0.55238 -0.0138,-0.198 -0.11513,-0.37072 -0.30392,-0.51807 -0.11785,-0.0898 -0.22694,-0.1336 -0.32731,-0.13144 z m -24.444519,0.16383 c -0.01986,2e-4 -0.04889,0.0123 -0.08688,0.0365 l -1.298703,0.80115 c -0.07367,0.0599 -0.110281,0.10838 -0.110281,0.14523 v 0.10354 c 0,0.0783 0.03661,0.0969 0.110281,0.0555 l 1.208939,-0.69791 c 0.07828,-0.0461 0.124359,-0.0943 0.138173,-0.14491 l 0.0622,-0.20037 c 0.01727,-0.0662 0.0094,-0.0991 -0.02373,-0.0987 z m 10.995849,0 c -0.0198,2e-4 -0.0486,0.0123 -0.0866,0.0365 l -1.298709,0.80115 c -0.07368,0.0599 -0.110605,0.10838 -0.110605,0.14523 v 0.10354 c 0,0.0783 0.03693,0.0969 0.110605,0.0555 l 1.208939,-0.69791 c 0.0783,-0.0461 0.12404,-0.0943 0.13785,-0.14491 l 0.0622,-0.20037 c 0.0172,-0.0662 0.009,-0.0991 -0.0237,-0.0987 z m 17.70288,0 c -0.0198,2e-4 -0.0486,0.0123 -0.0866,0.0365 l -1.29871,0.80115 c -0.0737,0.0599 -0.1106,0.10838 -0.1106,0.14523 v 0.10354 c 0,0.0783 0.0369,0.0969 0.1106,0.0555 l 1.20894,-0.69791 c 0.0783,-0.0461 0.12404,-0.0943 0.13785,-0.14491 l 0.0622,-0.20037 c 0.0172,-0.0662 0.009,-0.0991 -0.0237,-0.0987 z m -27.751391,0.24364 c 0.0052,-1e-5 0.01038,1.7e-4 0.01571,3.2e-4 0.142746,0 0.264808,0.0507 0.366112,0.15196 0.13814,0.13813 0.140269,0.22539 0.0068,0.26224 -0.193398,0.0553 -0.370691,0.0553 -0.531856,0 -0.07368,-0.0276 -0.110282,-0.092 -0.110282,-0.19332 0.0089,-0.14719 0.09341,-0.22091 0.253584,-0.2212 z m 23.456471,0 c 0.005,-1e-5 0.0104,1.7e-4 0.0157,3.2e-4 0.14274,0 0.2648,0.0507 0.3661,0.15196 0.13814,0.13813 0.14028,0.22539 0.006,0.26224 -0.1934,0.0553 -0.37069,0.0553 -0.53185,0 -0.0737,-0.0276 -0.11029,-0.092 -0.11029,-0.19332 0.009,-0.14719 0.0934,-0.22091 0.25359,-0.2212 z m -12.08554,1.48528 c -0.0276,0 -0.0483,0.0116 -0.0622,0.0346 l -0.11733,0.31065 c -0.0184,0.0553 -0.0138,0.12209 0.0138,0.20036 0.0138,0.0369 0.0392,0.14486 0.076,0.32443 0.0323,0.17959 0.0737,0.43287 0.1244,0.75981 0.0369,0.21641 0.0643,0.38701 0.0827,0.51134 0.0184,0.12431 0.03,0.20487 0.0346,0.24172 10e-4,0.0203 0.004,0.0395 0.006,0.058 -0.48979,0.0993 -1.18469,0.42063 -2.084779,0.96401 -0.05985,0.0298 -0.11966,0.0851 -0.179529,0.16606 -0.03686,0.0506 -0.0692,0.0989 -0.09682,0.14491 -0.02759,0.0461 -0.04836,0.0946 -0.06223,0.14523 -0.0043,0.0322 0.01157,0.0484 0.04836,0.0484 0.119732,-0.009 0.246368,-0.009 0.379903,0 0.13814,0.009 0.278508,0.0251 0.421255,0.0481 0.14735,0.023 0.28313,0.053 0.40746,0.0898 0.12433,0.0323 0.23724,0.0737 0.33855,0.12438 0.0323,0.0139 0.0302,0.0275 -0.006,0.0414 -0.004,0 -0.009,0.002 -0.0141,0.007 -0.004,0 -0.0113,0.002 -0.0206,0.006 -0.009,0.004 -0.0736,0.0233 -0.19332,0.0555 -0.11512,0.0276 -0.28326,0.0691 -0.50428,0.12438 -0.451264,0.11514 -0.748491,0.17495 -0.891237,0.17954 -0.0022,5e-5 -0.0029,2.3e-4 -0.005,3.2e-4 -6.18e-4,-5e-5 -0.0014,-2.7e-4 -0.0022,-3.2e-4 -0.428253,-0.0276 -0.658647,-0.25345 -0.690867,-0.67709 -0.0043,-0.1013 -0.01588,-0.2969 -0.03428,-0.58699 -0.0138,-0.2901 -0.03248,-0.67459 -0.05547,-1.15348 -0.02759,-0.50651 -0.08286,-1.1165 -0.165747,-1.83024 -0.0138,-0.0967 -0.03212,-0.14522 -0.05519,-0.14522 -0.0138,-0.004 -0.03003,0.009 -0.04836,0.0414 l -0.220881,0.35938 c -0.02759,0.0461 -0.03471,0.10341 -0.02084,0.17247 0.06905,0.3776 0.124294,0.716 0.16574,1.01531 0.04146,0.2947 0.0692,0.68163 0.08303,1.16053 0.0092,0.23945 0.01839,0.47899 0.02752,0.71844 0.0138,0.23483 0.03004,0.46949 0.04836,0.70433 0.04146,0.56177 0.363677,0.84283 0.966896,0.84283 0.174974,0 0.485608,-0.083 0.932266,-0.24879 0.22564,-0.0829 0.4008,-0.14481 0.52513,-0.18626 0.12431,-0.0461 0.19785,-0.0714 0.22088,-0.076 0.62625,-0.18879 1.31466,-0.26264 2.06524,-0.2212 0.0552,0.009 0.0946,-0.009 0.11765,-0.0552 l 0.2071,-0.36613 c 0.0184,-0.0369 0.0206,-0.0713 0.006,-0.10354 -0.0139,-0.0322 -0.0412,-0.0463 -0.0827,-0.0417 -0.32233,0.0369 -0.76663,0.0161 -1.33301,-0.0622 -0.28088,-0.0369 -0.5482,-0.085 -0.80146,-0.14491 -0.25326,-0.0598 -0.48791,-0.1334 -0.70433,-0.22089 -0.0708,-0.0265 -0.13822,-0.0485 -0.20262,-0.066 0.59358,-0.32028 1.04569,-0.47097 1.35609,-0.45203 0.32233,0.023 0.66777,0.17009 1.03614,0.44177 0.0184,0.0138 0.0343,0.004 0.0481,-0.0275 0.0645,-0.17497 0.10599,-0.37515 0.1244,-0.60078 0.004,-0.0369 -0.007,-0.0668 -0.0346,-0.0898 -0.19328,-0.14269 -0.37503,-0.2303 -0.54532,-0.26257 h -3.3e-4 c -0.0243,-0.005 -0.0498,-0.009 -0.0763,-0.0119 -0.032,-0.0138 -0.0642,-0.0467 -0.0962,-0.0987 -0.0415,-0.0737 -0.0875,-0.31748 -0.13817,-0.7319 -0.023,-0.20722 -0.0413,-0.36376 -0.0552,-0.46966 -0.0138,-0.11053 -0.0208,-0.1682 -0.0208,-0.17279 0,-0.004 0.0253,-0.0437 0.076,-0.11734 0.023,-0.0369 0.0438,-0.0667 0.0622,-0.0898 0.0184,-0.0277 0.0321,-0.0509 0.0414,-0.0693 0.0184,-0.0415 0.006,-0.0805 -0.0346,-0.11734 -0.12893,-0.12432 -0.23694,-0.29247 -0.32443,-0.50429 -0.004,-0.0276 -0.0254,-0.0414 -0.0622,-0.0414 z m 2.79906,0.40747 c -0.0311,0.002 -0.0709,0.06 -0.11925,0.1728 l -0.17248,0.40041 c -0.0276,0.0645 -0.0368,0.1429 -0.0275,0.235 l 0.15195,1.24997 c 0.0967,0.85649 0.14491,1.29408 0.14491,1.31248 0.0645,0.4835 0.0923,0.91864 0.083,1.30544 0,0.0552 0.009,0.0943 0.0275,0.11733 0.0184,0.0276 0.0438,0.0139 0.076,-0.0414 0.21642,-0.40982 0.23717,-1.37684 0.0622,-2.901 l -0.15901,-1.69239 c -0.0138,-0.1082 -0.0362,-0.16099 -0.0673,-0.15869 z m -10.560489,1.28396 c -0.02619,4.8e-4 -0.0453,0.0168 -0.05738,0.0491 -0.01382,0.0369 -0.03457,0.0854 -0.0622,0.14523 -0.02763,0.0553 -0.05998,0.12177 -0.09682,0.20005 -0.02763,0.0553 -0.03433,0.13368 -0.02051,0.23498 0.0092,0.0507 0.02294,0.14953 0.04135,0.29688 0.01842,0.14274 0.04374,0.32919 0.07598,0.55942 0.06907,0.46507 0.101421,0.71165 0.09682,0.73928 -0.05986,0.18879 -0.177347,0.31755 -0.352327,0.38663 -0.359168,0.14274 -0.762281,0.16594 -1.208938,0.0693 -0.08288,-0.0184 -0.144819,-0.0944 -0.186261,-0.22793 -0.01842,-0.0645 -0.05077,-0.0944 -0.09682,-0.0898 -0.04604,0.004 -0.08053,0.0412 -0.10355,0.11028 -0.184188,0.57559 -0.08533,0.8774 0.296865,0.90502 0.492704,0.0322 0.879641,-0.009 1.160529,-0.12438 0.221026,-0.0875 0.405343,-0.32704 0.552694,-0.71845 0.01382,-0.0415 0.02754,-0.0435 0.04135,-0.006 l 0.01378,0.0622 c 0.0092,0.0369 0.02294,0.0942 0.04135,0.17247 0.110513,0.48351 0.315582,0.73467 0.614888,0.75307 0.174979,0 0.481037,-0.19592 0.918485,-0.58732 0.414423,0.15656 0.808064,0.25574 1.181047,0.29718 0.142746,0.0139 0.262679,-0.0369 0.359381,-0.15195 0.193396,-0.23024 0.264805,-0.49969 0.214148,-0.8082 -0.04146,-0.24866 -0.271833,-0.5709 -0.690861,-0.9669 -0.42364,-0.4006 -0.734271,-0.60566 -0.932274,-0.61488 -0.193398,-0.009 -0.345363,0.1934 -0.455876,0.60783 -0.01382,0.0506 0.0066,0.0805 0.06187,0.0898 0.101303,0.0138 0.175158,0.0578 0.221205,0.13144 -0.239445,0.21181 -0.407586,0.46722 -0.504284,0.76652 -0.05986,0.17958 -0.02538,0.31995 0.103549,0.42125 -0.142746,0.10589 -0.301415,0.1706 -0.476393,0.19364 -0.138142,-0.0323 -0.2419,-0.20495 -0.310971,-0.51807 -0.06447,-0.2855 -0.128849,-0.61933 -0.193314,-1.00152 -0.05986,-0.3868 -0.117541,-0.82195 -0.172798,-1.30543 -0.0046,-0.0369 -0.02536,-0.0601 -0.0622,-0.0693 -0.004,-5.8e-4 -0.0078,-6.2e-4 -0.01154,-6.2e-4 z m 13.827929,0 c -0.0262,4.8e-4 -0.0453,0.0168 -0.0574,0.0491 -0.0139,0.0369 -0.0346,0.0854 -0.0622,0.14523 -0.0276,0.0553 -0.0596,0.12177 -0.0965,0.20005 -0.0276,0.0553 -0.0347,0.13368 -0.0208,0.23498 0.009,0.0507 0.0229,0.14953 0.0414,0.29688 0.0184,0.14274 0.0438,0.32919 0.076,0.55942 0.0691,0.46507 0.10141,0.71165 0.0968,0.73928 -0.0598,0.18879 -0.17736,0.31755 -0.35233,0.38663 -0.35917,0.14274 -0.76196,0.16594 -1.20862,0.0693 -0.0829,-0.0184 -0.14514,-0.0944 -0.18658,-0.22793 -0.0184,-0.0645 -0.0507,-0.0944 -0.0968,-0.0898 -0.0461,0.004 -0.0805,0.0412 -0.10355,0.11028 -0.18418,0.57559 -0.085,0.8774 0.29719,0.90502 0.4927,0.0322 0.87932,-0.009 1.16021,-0.12438 0.22102,-0.0875 0.40534,-0.32704 0.55269,-0.71845 0.0138,-0.0415 0.0275,-0.0435 0.0414,-0.006 l 0.0138,0.0622 c 0.009,0.0369 0.0229,0.0942 0.0414,0.17247 0.11052,0.48351 0.31559,0.73467 0.6149,0.75307 0.2947,0 0.63066,-0.0738 1.00824,-0.22121 0.1888,-0.0783 0.42835,-0.18416 0.71844,-0.3177 0.14735,-0.069 0.26941,-0.1243 0.36612,-0.16575 0.0967,-0.0415 0.1681,-0.0714 0.21415,-0.0898 -0.0645,0.29931 -0.0715,0.4882 -0.0208,0.56648 0.16116,0.27628 0.63078,0.35227 1.40898,0.22794 3.4e-4,-7e-5 6.2e-4,-2.5e-4 10e-4,-3.2e-4 0.19975,-0.002 0.38822,-0.0917 0.56552,-0.26898 0.13354,0.17959 0.32913,0.2693 0.58699,0.2693 0.26248,0 0.48372,-0.10589 0.66331,-0.3177 0.16576,0.25786 0.41201,0.37992 0.73895,0.36611 0.1059,-0.009 0.19561,-0.0623 0.26929,-0.15901 0.0691,-0.0967 0.1475,-0.28772 0.23499,-0.57322 0.0139,-0.0276 0.0251,-0.0276 0.0344,0 0.17368,0.4525 0.44739,0.68048 0.82071,0.68382 0.002,2e-5 0.006,0 0.008,0 0.001,-2e-5 0.002,-3e-4 0.003,-3.2e-4 0.29971,-0.006 0.5566,-0.30798 0.77069,-0.9047 0.27168,0.23023 0.58476,0.39624 0.93932,0.49755 0.0553,0.0139 0.0992,-0.002 0.13145,-0.0484 l 0.37989,-0.47671 c 0.023,-0.0276 0.0298,-0.0667 0.0206,-0.11734 -0.11508,-0.7549 -0.32919,-1.13727 -0.64213,-1.14674 h -3.3e-4 c -0.20708,1.5e-4 -0.39129,0.14296 -0.55237,0.42831 -0.23485,0.41902 -0.38468,0.6723 -0.44914,0.75979 -0.19192,0.25133 -0.39266,0.38018 -0.60271,0.38663 -0.27537,-0.0284 -0.49567,-0.25626 -0.66105,-0.68349 -0.0138,-0.0369 -0.0461,-0.0555 -0.0968,-0.0555 -0.0507,0 -0.0784,0.0186 -0.083,0.0555 -0.0691,0.2947 -0.14261,0.48114 -0.22089,0.55942 -0.0783,0.0783 -0.1979,0.10115 -0.35906,0.0689 -0.15656,-0.0323 -0.24202,-0.10365 -0.25582,-0.21415 -0.009,-0.0599 0.0139,-0.1633 0.0693,-0.31066 0.023,-0.0598 0.0206,-0.10595 -0.007,-0.13817 -0.0276,-0.0322 -0.0596,-0.0414 -0.0965,-0.0275 -0.0323,0.0138 -0.0622,0.0483 -0.0898,0.10355 -0.22103,0.52494 -0.6101,0.67478 -1.16726,0.44915 0.023,-0.0369 0.0413,-0.0738 0.0552,-0.11061 0.0184,-0.0369 0.0367,-0.0713 0.0552,-0.10355 0.0322,-0.0691 0.0347,-0.12217 0.007,-0.15901 -0.0276,-0.0369 -0.06,-0.0484 -0.0968,-0.0346 -0.0369,0.0139 -0.0688,0.0483 -0.0965,0.10356 h -3.2e-4 c -0.13354,0.29932 -0.428,0.46533 -0.88386,0.49755 -0.009,0.001 -0.018,0.002 -0.0263,0.004 -0.44345,0.0591 -0.77113,0.0418 -0.98228,-0.0525 -0.0599,-0.0276 -0.1035,-0.092 -0.13113,-0.19331 0.0921,-0.0276 0.20502,-0.0484 0.33855,-0.0622 0.13353,-0.0138 0.28549,-0.0162 0.45587,-0.007 0.0691,0 0.11026,-0.0183 0.12407,-0.0552 l 0.14523,-0.4283 c 0.023,-0.0645 0.006,-0.0968 -0.0484,-0.0968 h -0.66297 c -0.39601,-0.0415 -0.95322,-0.19341 -1.67155,-0.45587 -0.15656,-0.0553 -0.30853,-0.0412 -0.45588,0.0417 -0.14735,0.0783 -0.30634,0.25313 -0.47671,0.52481 -0.16117,0.25787 -0.26706,0.50199 -0.31771,0.73222 -0.004,0.0127 -0.009,0.025 -0.0125,0.0375 -0.12166,-0.0507 -0.2142,-0.21966 -0.27762,-0.50717 -0.0645,-0.2855 -0.12885,-0.61934 -0.19332,-1.00152 -0.0598,-0.3868 -0.11754,-0.82195 -0.1728,-1.30544 -0.004,-0.0369 -0.0253,-0.0601 -0.0622,-0.0693 -0.004,-5.8e-4 -0.008,-6.2e-4 -0.0116,-6.2e-4 z m -19.064095,0.0337 c -0.01727,0 -0.02932,0.005 -0.03622,0.0154 l -0.33822,0.50429 c -0.01382,0.0138 -0.0092,0.0275 0.01378,0.0414 0.147351,0.0875 0.259941,0.15677 0.338221,0.20742 0.07828,0.0507 0.126809,0.0827 0.145226,0.0965 0.03223,0.0276 0.05511,0.0301 0.06892,0.007 l 0.324756,-0.52512 c 0.01382,-0.0184 0.01137,-0.0367 -0.007,-0.0551 -0.142747,-0.12894 -0.305992,-0.22568 -0.49018,-0.29014 -0.0069,-0.001 -0.01348,-0.002 -0.01924,-0.002 z m 2.491931,1.16213 c -0.04604,0 -0.06925,0.0299 -0.06925,0.0898 0.0092,0.18419 -0.03899,0.32242 -0.144905,0.41452 -0.101304,0.0875 -0.220918,0.12409 -0.359059,0.11028 -0.09656,-0.01 -0.174113,-0.0374 -0.232426,-0.083 -0.03581,-0.0784 -0.07809,-0.14977 -0.126953,-0.21383 -0.02763,-0.0369 -0.05296,-0.0277 -0.07598,0.0275 l -0.207101,0.44209 c -0.02302,0.0553 -0.02089,0.10591 0.0068,0.15196 0.207213,0.43744 0.283195,0.84726 0.227938,1.22945 -0.0092,0.0415 -0.02049,0.0713 -0.0343,0.0898 -0.340749,0.51111 -0.927858,0.75736 -1.761311,0.73896 -0.75978,-0.0139 -1.135117,-0.32445 -1.125906,-0.93227 0,-0.0829 0.02745,-0.19824 0.08271,-0.34559 0.05526,-0.15196 0.133688,-0.3384 0.234992,-0.55942 0.01382,-0.0369 0.01382,-0.0643 0,-0.0827 -0.01382,-0.023 -0.03212,-0.0346 -0.05514,-0.0346 -0.03223,0 -0.05543,0.0137 -0.06925,0.0414 -0.05065,0.0967 -0.101307,0.20504 -0.151959,0.32476 -0.05066,0.11512 -0.101308,0.24388 -0.151959,0.38663 -0.119723,0.33614 -0.179529,0.5873 -0.179529,0.75306 0,0.79663 0.444295,1.1973 1.333005,1.20189 0.419029,0.004 0.78979,-0.0854 1.11212,-0.26962 0.161166,-0.0921 0.299403,-0.1934 0.41452,-0.30392 0.119724,-0.1059 0.218585,-0.22094 0.296866,-0.34527 0.216418,-0.35456 0.340929,-0.79183 0.373164,-1.31217 0.0038,-0.0722 0.0051,-0.14193 0.0045,-0.20934 0.02793,-0.002 0.05633,-0.006 0.08528,-0.0119 0.262468,-0.0415 0.446464,-0.17021 0.552374,-0.38663 0.105908,-0.21642 0.140387,-0.4929 0.103549,-0.82904 -0.0046,-0.0553 -0.03206,-0.0827 -0.08271,-0.0827 z m 4.521575,0.5902 c 0.02822,5.1e-4 0.0565,0.004 0.08528,0.0106 0.124325,0.0276 0.195731,0.16129 0.214155,0.40074 0,0.0415 -0.07599,0.10125 -0.22794,0.17953 -0.225631,-0.0691 -0.377596,-0.12888 -0.455876,-0.17953 -0.07828,-0.0506 -0.09414,-0.10375 -0.04809,-0.15901 0.135984,-0.17094 0.2801,-0.25509 0.432474,-0.25231 z m 0.572889,0.0856 c 0.0043,-1e-5 0.0098,0.003 0.01667,0.008 0.386801,0.24405 0.626349,0.47657 0.718438,0.6976 0.0092,0.023 -0.0029,0.0413 -0.03463,0.0551 -0.09669,0.0553 -0.412222,3e-5 -0.946375,-0.16575 0.179586,-0.23484 0.258016,-0.42586 0.234993,-0.57321 0,-0.0144 0.0036,-0.0218 0.01092,-0.0218 z m 21.21716,0.0148 c 0.0525,-0.001 0.10433,0.0104 0.15613,0.0346 0.13813,0.0645 0.20496,0.19569 0.20037,0.39369 -0.25326,-0.0553 -0.46046,-0.16115 -0.62163,-0.31771 0.0892,-0.0719 0.17771,-0.1088 0.26513,-0.1106 z m -8.16538,0.32347 c 0.20635,-0.002 0.48912,0.0738 0.84828,0.22922 -0.59861,0.26706 -1.07527,0.412 -1.42983,0.43504 -0.0553,0 -0.0943,-0.0116 -0.11733,-0.0346 0.14735,-0.33154 0.32007,-0.53171 0.51807,-0.60078 0.0518,-0.0184 0.11203,-0.028 0.18081,-0.0288 z m -7.88742,1.56062 c -0.0172,1e-5 -0.0293,0.005 -0.0362,0.0154 l -0.33855,0.50429 c -0.0138,0.0139 -0.009,0.0275 0.0138,0.0414 0.14735,0.0875 0.26026,0.15677 0.33854,0.20741 0.0783,0.0507 0.1265,0.0827 0.1449,0.0965 0.0323,0.0276 0.0551,0.0301 0.0689,0.007 l 0.32476,-0.52512 c 0.0138,-0.0184 0.0116,-0.0367 -0.006,-0.0552 -0.14274,-0.12894 -0.3063,-0.22567 -0.4905,-0.29014 -0.007,-0.001 -0.0131,-0.002 -0.0189,-0.002 z m -10.043067,0.15869 c -0.01727,1e-5 -0.02932,0.006 -0.03623,0.0157 l -0.220886,0.33148 c -0.05526,-0.0415 -0.115384,-0.0808 -0.179849,-0.11765 -0.05986,-0.0369 -0.124244,-0.0667 -0.193315,-0.0898 -0.02302,-0.004 -0.0392,-3e-5 -0.04841,0.0138 l -0.303918,0.45587 c -0.01382,0.0139 -0.01137,0.0254 0.007,0.0346 0.128931,0.0783 0.227793,0.14053 0.296864,0.18657 0.07368,0.0461 0.119757,0.076 0.138174,0.0898 0.02763,0.023 0.04838,0.0251 0.06219,0.006 l 0.234992,-0.36579 c 0.105908,0.0599 0.186467,0.10564 0.241723,0.13785 0.05986,0.0369 0.09647,0.0622 0.110282,0.076 0.02763,0.023 0.04625,0.0279 0.05546,0.0141 l 0.296865,-0.47671 c 0.01382,-0.0184 0.01168,-0.0367 -0.0068,-0.0552 -0.06447,-0.0553 -0.133745,-0.10379 -0.20742,-0.14522 -0.07368,-0.0415 -0.149658,-0.0784 -0.227939,-0.11061 -0.0069,-0.001 -0.01316,-0.002 -0.01891,-0.002 z m 18.953167,0.0275 c -0.0172,1e-5 -0.0293,0.006 -0.0362,0.0157 l -0.33853,0.50428 c -0.0139,0.0139 -0.009,0.0275 0.0138,0.0414 0.14736,0.0875 0.26027,0.15645 0.33855,0.2071 0.0783,0.0506 0.1265,0.083 0.14491,0.0968 0.0323,0.0276 0.0555,0.0298 0.0693,0.006 l 0.32444,-0.5248 c 0.0138,-0.0184 0.0116,-0.0371 -0.006,-0.0555 -0.14276,-0.12894 -0.30633,-0.22535 -0.49051,-0.28982 -0.007,-0.001 -0.0131,-0.002 -0.0189,-0.002 z m -16.581778,1.77478 c -0.01986,2.2e-4 -0.04889,0.0123 -0.08688,0.0366 l -1.298382,0.80147 c -0.07368,0.0598 -0.110603,0.10806 -0.110603,0.1449 v 0.10355 c 0,0.0783 0.03693,0.0969 0.110603,0.0555 l 1.208617,-0.6976 c 0.07828,-0.0461 0.12436,-0.0946 0.138174,-0.14523 l 0.0622,-0.20037 c 0.01727,-0.0662 0.0094,-0.0991 -0.02373,-0.0987 z m 2.914791,0 c -0.01983,2.2e-4 -0.04886,0.0123 -0.08688,0.0366 l -1.298385,0.80147 c -0.07367,0.0598 -0.110603,0.10806 -0.110603,0.1449 v 0.10355 c 0,0.0783 0.03693,0.0969 0.110603,0.0555 l 1.208617,-0.6976 c 0.07828,-0.0461 0.124358,-0.0946 0.138176,-0.14523 l 0.06223,-0.20037 c 0.01725,-0.0662 0.0094,-0.0991 -0.02371,-0.0987 z m 14.401127,0 c -0.0198,2.2e-4 -0.0486,0.0123 -0.0866,0.0366 l -1.2987,0.80147 c -0.0737,0.0598 -0.11061,0.10806 -0.11061,0.1449 v 0.10355 c 0,0.0783 0.0369,0.0969 0.11061,0.0555 l 1.20893,-0.6976 c 0.0783,-0.0461 0.12404,-0.0946 0.13786,-0.14523 l 0.0622,-0.20037 c 0.0172,-0.0662 0.009,-0.0991 -0.0237,-0.0987 z" />
      <g
         id="g4836"
         transform="matrix(0.62037589,0,0,0.62037589,35.23969,59.860956)"
         style="stroke-width:1.3917">
        <path
           id="path4706"
           style="color:#000000;fill:#0e9948;fill-opacity:1;stroke-width:1.3917"
           d="m 68.70773,120.20766 c -0.146795,0 -0.29109,0.0127 -0.433566,0.0367 -1.853946,0.15836 -3.509742,1.32331 -4.71289,3.08612 -1.177882,1.7258 -1.937156,4.03213 -2.066024,6.59081 l 7.21248,-2.24792 7.212996,2.24792 c -0.12918,-2.55868 -0.890209,-4.86501 -2.068091,-6.59081 -1.203002,-1.7626 -2.856872,-2.92754 -4.710307,-3.08612 -0.142636,-0.024 -0.287631,-0.0367 -0.434598,-0.0367 z" />
        <path
           id="path4708"
           style="font-variation-settings:normal;fill:#ffffff;fill-opacity:1;stroke:none;stroke-width:0.736441;stroke-linecap:butt;stroke-linejoin:miter;stroke-miterlimit:4;stroke-dasharray:none;stroke-dashoffset:0;stroke-opacity:1;stop-color:#000000"
           d="m 68.70795,116.80579 -0.183968,1.43764 v 1.21439 l -0.255799,0.30334 v 0.4837 c -1.851334,0.16029 -3.503259,1.32465 -4.705139,3.08559 -1.177883,1.72581 -1.938918,4.03212 -2.06809,6.59082 0.151862,-2.38292 1.583482,-5.39604 2.392102,-6.35569 0.757617,-0.89913 1.565674,-1.66799 2.440161,-2.16266 -0.476765,0.51707 -0.90262,1.18195 -1.266073,1.95337 -0.739272,1.56908 -1.237165,3.61048 -1.387512,5.88595 0.1593,-2.13236 1.347245,-4.76447 1.738395,-5.53403 0.680658,-1.33917 1.572965,-2.4116 2.434994,-2.78536 -0.04387,0.0812 -0.08617,0.1681 -0.127641,0.26148 -0.243941,0.54928 -0.451066,1.3122 -0.626835,2.24793 -0.250559,1.33388 -0.430554,3.0205 -0.513664,4.90461 0.125408,-2.15842 1.074877,-6.04658 1.624707,-6.93756 0.107458,-0.24196 0.218122,-0.42053 0.312642,-0.52349 0.09452,-0.10296 0.15449,-0.12144 0.19172,-0.12144 0.03723,0 0.0972,0.0185 0.191719,0.12144 0.09452,0.10296 0.205185,0.28153 0.312643,0.52349 0.549827,0.89098 1.499299,4.77914 1.624707,6.93756 -0.08311,-1.88411 -0.263104,-3.57073 -0.513664,-4.90461 -0.175771,-0.93573 -0.382894,-1.69865 -0.626835,-2.24793 -0.04147,-0.0934 -0.08377,-0.18023 -0.127641,-0.26148 0.862027,0.37376 1.754334,1.44619 2.434994,2.78536 0.391148,0.76956 1.579095,3.40167 1.738395,5.53403 -0.150347,-2.27547 -0.648239,-4.31687 -1.387512,-5.88595 -0.363452,-0.77142 -0.789308,-1.4363 -1.266073,-1.95337 0.874487,0.49467 1.682545,1.26353 2.440161,2.16266 0.808618,0.95965 2.240238,3.97277 2.392102,6.35569 -0.129174,-2.5587 -0.890206,-4.86501 -2.068091,-6.59082 -1.201875,-1.76094 -2.853809,-2.9253 -4.705139,-3.08559 v -0.4837 l -0.255798,-0.30334 v -1.21439 z m 0,11.41067 -9.848494,3.06958 v 1.53531 l 9.848494,-3.0701 9.848494,3.0701 v -1.53531 z" />
        <path
           id="path4714"
           style="font-variation-settings:normal;fill:#0e9948;fill-opacity:1;stroke:none;stroke-width:0.736441;stroke-linecap:butt;stroke-linejoin:miter;stroke-miterlimit:4;stroke-dasharray:none;stroke-dashoffset:0;stroke-opacity:1;stop-color:#000000"
           d="m 68.70795,128.83451 -9.306925,2.9006 v 0.29972 l 9.306925,-2.90111 9.306408,2.90111 v -0.29972 z m 0,1.44746 -9.848494,3.06958 h 3.694864 a 9.7924366,4.0735264 0 0 1 6.15363,-0.90744 9.7924366,4.0735264 0 0 1 6.160864,0.90744 h 3.68763 z" />
      </g>
      <path
         id="path4838"
         style="font-size:5.31016px;font-family:'Amiri Quran';-inkscape-font-specification:'Amiri Quran, Normal';letter-spacing:0.79375px;fill:#ffffff;stroke-width:0.456871"
         d="m 106.5295,145.58462 c -0.14054,0 -0.27463,0.0284 -0.40201,0.0856 -0.12518,0.0549 -0.23582,0.13268 -0.33245,0.2337 -0.0944,0.0988 -0.16919,0.21414 -0.22409,0.34592 -0.0549,0.13177 -0.0824,0.27356 -0.0824,0.4251 0,0.15813 0.0274,0.30427 0.0824,0.43825 0.0549,0.13176 0.12965,0.24708 0.22409,0.34591 0.0966,0.0966 0.20727,0.17106 0.33245,0.22377 0.12738,0.0527 0.26147,0.0792 0.40201,0.0792 0.14276,0 0.27684,-0.0275 0.40203,-0.0824 0.12738,-0.0571 0.23934,-0.13489 0.33598,-0.23372 0.0966,-0.10102 0.17238,-0.21633 0.22729,-0.34591 0.0571,-0.13178 0.0856,-0.27356 0.0856,-0.4251 0,-0.16032 -0.0285,-0.30648 -0.0856,-0.43825 -0.0549,-0.13396 -0.13066,-0.24928 -0.22729,-0.34592 -0.0966,-0.0988 -0.2086,-0.17458 -0.33598,-0.22729 -0.12519,-0.0527 -0.25927,-0.0789 -0.40203,-0.0789 z m 5.00375,0 c -0.14056,0 -0.27464,0.0284 -0.40202,0.0856 -0.12519,0.0549 -0.23614,0.13268 -0.33277,0.2337 -0.0944,0.0988 -0.16886,0.21414 -0.22377,0.34592 -0.0549,0.13177 -0.0824,0.27356 -0.0824,0.4251 0,0.17789 0.0338,0.34047 0.10195,0.48762 0.0681,0.14494 0.16159,0.26664 0.28018,0.36546 0.11861,0.0966 0.25237,0.16367 0.40171,0.20101 0.10541,0.0264 0.20095,0.0636 0.2866,0.11188 0.0878,0.0484 0.17131,0.0969 0.25038,0.14524 0.0791,0.0505 0.15716,0.0931 0.23403,0.12823 0.0791,0.0352 0.16152,0.053 0.24717,0.053 0.0988,0 0.18969,-0.0165 0.27315,-0.0494 0.0857,-0.0308 0.17246,-0.0693 0.26032,-0.11541 0,-0.004 -6.3e-4,-0.008 -0.003,-0.01 -0.004,-0.006 -0.0134,-0.012 -0.0266,-0.0164 -0.011,-0.004 -0.0217,-0.006 -0.0327,-0.006 -0.011,0.002 -0.0364,0.005 -0.076,0.01 -0.0374,0.006 -0.0876,0.01 -0.15131,0.01 -0.0835,0 -0.15385,-0.008 -0.21095,-0.0231 -0.0549,-0.0132 -0.10552,-0.033 -0.15163,-0.0593 -0.0461,-0.0241 -0.0954,-0.0526 -0.14812,-0.0856 -0.0527,-0.033 -0.11741,-0.0681 -0.19428,-0.10548 0.14276,-0.0461 0.27014,-0.11954 0.38215,-0.22056 0.1142,-0.10103 0.20405,-0.22202 0.26993,-0.36259 0.0659,-0.14055 0.0988,-0.29308 0.0988,-0.4578 0,-0.16032 -0.0285,-0.30648 -0.0856,-0.43824 -0.0549,-0.13396 -0.13066,-0.24928 -0.2273,-0.34592 -0.0966,-0.0988 -0.2086,-0.17458 -0.33598,-0.22729 -0.12518,-0.0527 -0.25926,-0.0789 -0.40202,-0.0789 z m -2.46564,0.003 c -0.10762,0 -0.20954,0.0231 -0.30617,0.0693 -0.0966,0.0461 -0.17574,0.11183 -0.23723,0.19748 -0.0593,0.0835 -0.0891,0.18234 -0.0891,0.29655 0,0.10761 0.0298,0.20113 0.0891,0.28019 0.0593,0.0791 0.1317,0.14813 0.21736,0.20742 0.0878,0.0571 0.17233,0.10974 0.25358,0.15805 0.0747,0.0418 0.14405,0.0813 0.20774,0.11861 0.0659,0.0374 0.11851,0.0812 0.15806,0.13177 0.0417,0.0505 0.0625,0.1209 0.0625,0.21094 0,0.12519 -0.0385,0.22274 -0.11541,0.29302 -0.0769,0.068 -0.16672,0.10227 -0.26994,0.10227 -0.0966,0 -0.17808,-0.0188 -0.24397,-0.0561 -0.0637,-0.0395 -0.11632,-0.0878 -0.15805,-0.14491 -0.0395,-0.0571 -0.0703,-0.11207 -0.0923,-0.16478 -0.0198,-0.0549 -0.0329,-0.0978 -0.0395,-0.12856 -0.004,-0.0198 -0.0165,-0.0295 -0.0362,-0.0295 -0.0153,0 -0.0308,0.004 -0.0461,0.0131 -0.0131,0.006 -0.0252,0.0153 -0.0362,0.0263 0,0.0131 0.002,0.0473 0.006,0.10227 0.006,0.0549 0.0143,0.1186 0.0231,0.19107 0.011,0.0725 0.023,0.14052 0.0362,0.20422 0.0791,0.0154 0.1679,0.0352 0.26673,0.0593 0.10103,0.0241 0.20528,0.0362 0.31289,0.0362 0.11421,0 0.22182,-0.0241 0.32284,-0.0725 0.10322,-0.0505 0.18669,-0.11989 0.25038,-0.20774 0.0659,-0.09 0.0991,-0.19297 0.0991,-0.30936 0,-0.0791 -0.0187,-0.14946 -0.0561,-0.21095 -0.0374,-0.0637 -0.0856,-0.11967 -0.1449,-0.16799 -0.0593,-0.0484 -0.12098,-0.0922 -0.18466,-0.13177 -0.0637,-0.0395 -0.12169,-0.0757 -0.1744,-0.10867 -0.0703,-0.0461 -0.14067,-0.0914 -0.21095,-0.13529 -0.0681,-0.0439 -0.12507,-0.0942 -0.17119,-0.15131 -0.0439,-0.0571 -0.066,-0.12851 -0.066,-0.21416 0,-0.0527 0.0111,-0.10668 0.033,-0.16158 0.022,-0.0549 0.0582,-0.10082 0.10868,-0.13817 0.0505,-0.0374 0.11989,-0.0561 0.20775,-0.0561 0.068,0 0.12842,0.0165 0.18113,0.0494 0.0549,0.0308 0.10082,0.0703 0.13817,0.11861 0.0395,0.0484 0.0704,0.0989 0.0923,0.15164 0.022,0.0527 0.0351,0.0986 0.0394,0.13817 0.009,0.009 0.0208,0.0131 0.0362,0.0131 0.011,0 0.0254,-0.002 0.0429,-0.006 0.0175,-0.006 0.0251,-0.0153 0.0231,-0.0263 -0.002,-0.0439 -0.008,-0.10995 -0.0167,-0.19779 -0.006,-0.0901 -0.0163,-0.17686 -0.0295,-0.26032 -0.0703,-0.0175 -0.12961,-0.0329 -0.17793,-0.0461 -0.046,-0.0132 -0.0924,-0.0229 -0.13849,-0.0295 -0.0439,-0.009 -0.0999,-0.0131 -0.16799,-0.0131 z m -11.420634,0.003 c -0.0043,0.009 -0.0079,0.0219 -0.0099,0.0394 -0.0029,0.0175 0.0014,0.0353 0.0099,0.0529 0.01315,0 0.03837,0.002 0.07566,0.006 0.03736,0.004 0.07353,0.0121 0.10868,0.0231 0.03736,0.009 0.05949,0.0198 0.06603,0.033 0.01552,0.0241 0.02421,0.0516 0.0263,0.0824 0.0043,0.0308 0.0065,0.0767 0.0065,0.13817 v 1.3968 c 0,0.0615 -0.0022,0.10776 -0.0065,0.1385 -0.0022,0.0285 -0.01092,0.055 -0.0263,0.0792 -0.0065,0.0131 -0.02874,0.0252 -0.06603,0.0362 -0.03514,0.009 -0.07135,0.0165 -0.10868,0.0231 -0.03729,0.004 -0.06244,0.006 -0.07566,0.006 -0.0086,0.0175 -0.01207,0.0353 -0.0099,0.0529 0.0029,0.0175 0.0057,0.0306 0.0099,0.0394 0.05051,-0.002 0.09105,-0.005 0.121829,-0.006 0.03291,-0.002 0.06575,-0.004 0.09874,-0.006 0.03514,-0.002 0.07703,-0.003 0.12535,-0.003 0.07027,0 0.132637,0.002 0.187541,0.006 0.0549,0.002 0.114241,0.005 0.177933,0.01 0.0043,-0.011 0.0065,-0.0261 0.0065,-0.0458 0,-0.0198 -0.0043,-0.0352 -0.01315,-0.0461 -0.01753,0 -0.04505,-0.003 -0.0824,-0.01 -0.03514,-0.006 -0.06934,-0.0143 -0.102263,-0.0231 -0.03075,-0.011 -0.04951,-0.022 -0.05612,-0.033 -0.01538,-0.0264 -0.02515,-0.0548 -0.02946,-0.0856 -0.0022,-0.033 -0.0029,-0.0779 -0.0029,-0.13497 v -1.46284 l 1.403528,1.77253 c 0.02414,0.0285 0.04599,0.0484 0.06575,0.0593 0.02199,0.011 0.03744,0.0164 0.04613,0.0164 0.0043,0 0.01207,-0.001 0.02307,-0.003 0.01114,-0.002 0.01782,-0.008 0.01983,-0.0164 -0.0022,-0.0571 -0.005,-0.10638 -0.0065,-0.14811 v -0.13529 -0.16126 -1.30799 c 0,-0.0615 0.0014,-0.10745 0.0029,-0.13817 0.0029,-0.0308 0.01092,-0.0583 0.0263,-0.0824 0.0088,-0.0132 0.0309,-0.0242 0.06603,-0.033 0.03514,-0.011 0.07135,-0.0187 0.10868,-0.0231 0.03952,-0.004 0.06567,-0.006 0.07886,-0.006 0.0086,-0.0175 0.01207,-0.0353 0.0099,-0.0529 -0.0029,-0.0175 -0.0057,-0.0306 -0.0099,-0.0394 -0.04836,0.002 -0.08988,0.004 -0.125027,0.006 -0.03291,0.002 -0.06575,0.005 -0.09874,0.006 h -0.122146 c -0.07027,0 -0.133965,-0.001 -0.191068,-0.003 -0.0549,-0.004 -0.113918,-0.008 -0.17761,-0.01 -0.0029,0.009 -0.005,0.0242 -0.0065,0.0461 0,0.0198 0.0043,0.0351 0.01315,0.0461 0.01753,0 0.04405,0.003 0.07918,0.01 0.03736,0.004 0.07252,0.0121 0.105483,0.0231 0.03291,0.009 0.05274,0.0185 0.05928,0.0295 0.01768,0.0264 0.02745,0.0561 0.02946,0.0891 0.0022,0.0329 0.0029,0.0779 0.0029,0.13496 v 1.21888 c -0.07027,-0.0988 -0.153754,-0.20846 -0.250384,-0.32925 -0.09663,-0.12298 -0.196523,-0.24734 -0.299749,-0.37252 -0.103219,-0.12518 -0.203118,-0.24586 -0.299749,-0.36227 -0.09664,-0.11859 -0.181432,-0.22385 -0.253905,-0.31609 -0.07246,-0.0922 -0.125084,-0.16364 -0.158051,-0.21415 -0.02199,0.002 -0.05612,0.003 -0.102264,0.003 h -0.141388 v -6.2e-4 c -0.05274,0 -0.10199,-6.2e-4 -0.148107,-0.003 -0.04606,-0.004 -0.106459,-0.008 -0.181131,-0.01 z m 19.938004,0.004 c -0.1735,0 -0.35149,0.003 -0.53377,0.01 -0.18228,0.006 -0.34922,0.01 -0.50076,0.01 l -3.1e-4,-6.2e-4 c -0.0615,0 -0.12387,-0.001 -0.18755,-0.003 -0.0637,-0.004 -0.12872,-0.008 -0.1946,-0.01 -0.009,0.009 -0.0132,0.0242 -0.0132,0.0461 0.002,0.022 0.006,0.0374 0.0132,0.0461 0.0131,0 0.0373,0.002 0.0725,0.006 0.0351,0.002 0.0683,0.006 0.0991,0.0131 0.0331,0.006 0.0505,0.0166 0.0525,0.0298 0.009,0.0264 0.0131,0.0616 0.0131,0.10547 0.002,0.0418 0.003,0.0867 0.003,0.13497 v 1.37372 c 0,0.0483 -0.001,0.0932 -0.003,0.13497 0,0.0418 -0.004,0.0759 -0.0131,0.10227 -0.002,0.011 -0.0197,0.0207 -0.0525,0.0295 -0.0307,0.009 -0.0639,0.0155 -0.0991,0.0198 -0.0351,0.002 -0.0592,0.003 -0.0725,0.003 -0.006,0.009 -0.0111,0.0242 -0.0132,0.0461 0,0.022 0.004,0.0374 0.0132,0.0461 0.0637,0 0.12536,-0.002 0.18466,-0.006 0.0593,-0.002 0.12633,-0.003 0.20101,-0.003 0.21522,0 0.40832,0.002 0.57962,0.006 0.17131,0.004 0.34393,0.006 0.51743,0.006 0.011,-0.0703 0.0338,-0.15476 0.0689,-0.25359 0.0374,-0.0988 0.0716,-0.19202 0.10227,-0.27987 -0.0131,-0.0132 -0.0397,-0.0198 -0.0792,-0.0198 -0.0264,0 -0.0418,0.006 -0.0461,0.0198 -0.0264,0.0681 -0.0535,0.13178 -0.0821,0.19107 -0.0285,0.0571 -0.0681,0.10104 -0.11861,0.13176 -0.0439,0.0285 -0.10326,0.0503 -0.17793,0.0658 -0.0747,0.0154 -0.15043,0.0231 -0.2273,0.0231 h -0.15485 c -0.0681,0 -0.11871,-6.2e-4 -0.15163,-0.003 -0.0308,-0.004 -0.0572,-0.0144 -0.0792,-0.0298 -0.009,-0.006 -0.0143,-0.0341 -0.0164,-0.0824 v -0.11862 -0.0198 -0.61264 c 0,-0.0111 0.0131,-0.0178 0.0395,-0.0198 0.0264,-0.004 0.0572,-0.006 0.0923,-0.006 0.0374,-0.002 0.0702,-0.003 0.0987,-0.003 0.0418,0 0.0856,0.001 0.13177,0.003 0.0483,0 0.0922,0.002 0.13176,0.006 0.0395,0.002 0.0649,0.008 0.076,0.0167 0.011,0.006 0.0198,0.0153 0.0263,0.0263 0.009,0.009 0.0175,0.0275 0.0263,0.056 0.011,0.0264 0.0244,0.0703 0.0397,0.13176 0.006,0.0154 0.023,0.0231 0.0494,0.0231 0.0264,0 0.0438,-0.004 0.0525,-0.0132 v -0.60623 c -0.011,-0.011 -0.0295,-0.0164 -0.0558,-0.0164 -0.0287,0 -0.0441,0.008 -0.0461,0.0231 -0.0132,0.0527 -0.0252,0.0943 -0.0362,0.12503 -0.011,0.0307 -0.0264,0.0538 -0.0461,0.0693 -0.0198,0.0154 -0.0516,0.0254 -0.0955,0.0298 -0.0417,0.004 -0.10106,0.006 -0.17792,0.006 h -0.16799 c -0.0352,0 -0.067,-0.001 -0.0955,-0.003 -0.0285,-0.002 -0.0426,-0.008 -0.0426,-0.0164 v -0.59951 -0.0362 -0.10868 c 0.002,-0.0351 0.006,-0.0637 0.0131,-0.0856 0.004,-0.011 0.0218,-0.0187 0.0525,-0.0231 0.0307,-0.004 0.0636,-0.006 0.0987,-0.006 0.0351,-0.002 0.0593,-0.003 0.0725,-0.003 h 0.27699 c 0.0857,0 0.16008,0.0178 0.22377,0.053 0.0637,0.0351 0.11328,0.1176 0.14843,0.24717 0.002,0.0154 0.0173,0.0231 0.0458,0.0231 0.0264,0 0.0451,-0.006 0.0561,-0.0167 -0.0153,-0.0725 -0.0318,-0.14287 -0.0494,-0.21096 -0.0175,-0.068 -0.0317,-0.1425 -0.0426,-0.22377 z m -44.329951,0.003 c -0.01537,0 -0.0385,0.0111 -0.06925,0.033 -0.02855,0.022 -0.04732,0.0418 -0.0561,0.0593 -0.03294,0.0834 -0.07149,0.18001 -0.115412,0.28981 -0.04173,0.10981 -0.08564,0.22513 -0.131762,0.34592 -0.04612,0.1186 -0.09205,0.23491 -0.138174,0.34912 -0.04392,0.11201 -0.08348,0.21424 -0.118617,0.30649 -0.03514,0.0922 -0.06364,0.16565 -0.0856,0.22056 l -0.02981,0.0792 v -6.2e-4 c -0.02196,0.0571 -0.04509,0.11207 -0.06925,0.16478 -0.02196,0.0505 -0.04913,0.0965 -0.08207,0.13817 -0.01537,0.022 -0.04721,0.0387 -0.09553,0.0497 -0.04612,0.009 -0.0793,0.0131 -0.09906,0.0131 -0.0044,0.011 -0.0064,0.0284 -0.0064,0.0525 0,0.022 0.002,0.0351 0.0064,0.0394 0.05051,-0.002 0.09241,-0.004 0.12535,-0.006 0.03294,-0.002 0.0658,-0.005 0.09874,-0.006 0.03294,-0.002 0.07351,-0.003 0.121823,-0.003 0.04832,0 0.08686,6.2e-4 0.115412,0.003 0.03075,0.002 0.06025,0.005 0.0888,0.006 0.03075,0.002 0.06695,0.004 0.108679,0.006 0.0044,-0.011 0.0057,-0.0274 0.0035,-0.0494 -0.0022,-0.0242 -0.0055,-0.0383 -0.0099,-0.0426 -0.0088,0 -0.03191,-0.002 -0.06925,-0.006 -0.03514,-0.004 -0.07034,-0.0131 -0.105474,-0.0263 -0.03294,-0.0154 -0.04937,-0.0352 -0.04937,-0.0593 0,-0.022 0.0024,-0.0518 0.0068,-0.0891 0.0066,-0.0374 0.01967,-0.0833 0.03943,-0.13817 0.01757,-0.0527 0.03734,-0.10869 0.05931,-0.16799 0.02416,-0.0615 0.04393,-0.11445 0.05931,-0.15837 l 0.02628,-0.0658 0.0068,-0.003 c 0.0044,-0.004 0.0077,-0.006 0.0099,-0.006 0.07247,-0.004 0.131485,-0.006 0.177605,-0.006 0.04612,-0.002 0.102102,-0.003 0.167989,-0.003 h 0.02981 0.03303 0.134968 c 0.04832,0 0.08888,6.2e-4 0.121823,0.003 0.0044,0 0.0088,0.002 0.01315,0.006 l 0.0068,0.006 0.01988,0.0561 c 0.01538,0.0351 0.03382,0.0814 0.05579,0.1385 0.02196,0.0549 0.04408,0.11189 0.06604,0.17119 0.02196,0.0593 0.0394,0.11294 0.05258,0.16126 0.01538,0.0461 0.02309,0.0793 0.02309,0.0991 0,0.022 -0.0043,0.0371 -0.01315,0.0458 -0.01537,0.0132 -0.04387,0.0243 -0.0856,0.033 -0.04173,0.006 -0.07256,0.01 -0.09233,0.01 -0.0088,0.009 -0.01416,0.0242 -0.01635,0.0461 0,0.022 0.0043,0.0374 0.01315,0.0461 0.07467,-0.004 0.136022,-0.008 0.184339,-0.01 0.05051,-0.004 0.113194,-0.006 0.187864,-0.006 0.07028,0 0.13062,0.002 0.181132,0.006 0.05051,0.002 0.107505,0.006 0.171194,0.01 0.0022,-0.004 0.0045,-0.0178 0.0068,-0.0397 0.0022,-0.0241 -0.0011,-0.0416 -0.0099,-0.0525 -0.0088,0 -0.02958,-0.003 -0.06251,-0.01 -0.03075,-0.009 -0.06259,-0.0218 -0.09554,-0.0394 -0.03075,-0.0175 -0.05153,-0.0384 -0.06251,-0.0625 -0.0066,-0.0131 -0.03408,-0.0836 -0.08239,-0.21095 l -0.655603,-1.71963 c -0.0044,-0.002 -0.0077,-0.003 -0.0099,-0.003 0,-0.002 -0.002,-0.003 -0.0064,-0.003 z m 10.396353,0 c -0.0022,0.009 -0.0045,0.0242 -0.0068,0.0461 0,0.0198 0.0047,0.0352 0.01347,0.0461 0.01757,0 0.04272,0.003 0.07566,0.01 0.03514,0.004 0.068,0.0121 0.09874,0.0231 0.03075,0.009 0.04951,0.0185 0.0561,0.0295 0.01758,0.0264 0.0273,0.0561 0.02949,0.0891 0.0022,0.0329 0.0035,0.0779 0.0035,0.13497 v 0.86975 c -0.0022,0.18448 -0.03303,0.32829 -0.09233,0.43151 -0.0571,0.10102 -0.131851,0.17243 -0.224092,0.21416 -0.09224,0.0418 -0.194476,0.0625 -0.306481,0.0625 -0.193265,0 -0.340104,-0.0614 -0.44113,-0.18433 -0.05051,-0.0637 -0.09007,-0.14514 -0.118617,-0.24398 -0.02636,-0.0988 -0.03975,-0.21515 -0.03975,-0.34911 v -0.79378 -0.13529 c 0.0022,-0.0439 0.0079,-0.0788 0.01667,-0.10515 0.0044,-0.0132 0.02183,-0.0233 0.05258,-0.0298 0.03075,-0.006 0.06259,-0.0111 0.09553,-0.0131 0.03514,-0.004 0.05928,-0.006 0.07245,-0.006 0.0066,-0.009 0.0099,-0.0238 0.0099,-0.0458 0.0022,-0.022 -0.0011,-0.0374 -0.0099,-0.0461 -0.06588,0.002 -0.129576,0.005 -0.19107,0.01 -0.05929,0.002 -0.120648,0.003 -0.184338,0.003 -0.06149,0 -0.124175,-0.001 -0.187865,-0.003 -0.06149,-0.004 -0.125184,-0.008 -0.19107,-0.01 -0.0088,0.009 -0.01314,0.0242 -0.01314,0.0461 0.0022,0.022 0.0065,0.0374 0.01314,0.0461 0.01318,0 0.03631,0.002 0.06925,0.006 0.03514,0.002 0.068,0.006 0.09874,0.0131 0.03294,0.006 0.0507,0.0166 0.0529,0.0298 0.0088,0.0264 0.01314,0.0616 0.01314,0.10548 0.0022,0.0417 0.0032,0.0867 0.0032,0.13496 v 0.939 c 0,0.12739 0.02079,0.2427 0.06251,0.34592 0.04173,0.10322 0.10005,0.18972 0.17472,0.26 0.07028,0.068 0.154757,0.12102 0.253585,0.15836 0.09883,0.0374 0.205425,0.0558 0.319626,0.0558 0.166911,0 0.312741,-0.0305 0.437924,-0.092 0.127379,-0.0615 0.226265,-0.15836 0.296544,-0.29013 0.07028,-0.13397 0.105473,-0.30728 0.105473,-0.52031 v -0.86656 c 0,-0.0615 10e-4,-0.10744 0.0032,-0.13817 0.0044,-0.0307 0.01444,-0.0583 0.02981,-0.0824 0.0088,-0.0132 0.03058,-0.0243 0.06572,-0.033 0.03514,-0.011 0.07134,-0.0187 0.10868,-0.0231 0.03733,-0.004 0.0628,-0.006 0.07598,-0.006 0.0088,-0.0175 0.01213,-0.035 0.0099,-0.0526 -0.0022,-0.0175 -0.0055,-0.0306 -0.0099,-0.0394 -0.04832,0.002 -0.09021,0.004 -0.12535,0.006 -0.03294,0.002 -0.0658,0.005 -0.09874,0.006 h -0.121823 c -0.07028,0 -0.13195,-0.001 -0.184658,-0.003 -0.05051,-0.004 -0.107505,-0.008 -0.171195,-0.01 z m 3.768512,0 c -0.01537,0 -0.0385,0.0111 -0.06925,0.033 -0.02855,0.022 -0.047,0.0418 -0.05579,0.0593 -0.03294,0.0834 -0.07149,0.18001 -0.115411,0.28981 -0.04173,0.10981 -0.08564,0.22513 -0.131762,0.34592 -0.04612,0.1186 -0.09237,0.23491 -0.138494,0.34912 -0.04393,0.11201 -0.08348,0.21424 -0.118618,0.30649 -0.03514,0.0922 -0.06363,0.16565 -0.0856,0.22056 l -0.02949,0.0792 v -6.2e-4 c -0.02196,0.0571 -0.04509,0.11207 -0.06925,0.16478 -0.02196,0.0505 -0.04945,0.0965 -0.08239,0.13817 -0.01537,0.022 -0.04722,0.0387 -0.09553,0.0497 -0.04612,0.009 -0.07898,0.0131 -0.09874,0.0131 -0.0044,0.011 -0.0068,0.0284 -0.0068,0.0525 0,0.022 0.0024,0.0351 0.0068,0.0394 0.05051,-0.002 0.09209,-0.004 0.125029,-0.006 0.03294,-0.002 0.06612,-0.005 0.09906,-0.006 0.03294,-0.002 0.07351,-0.003 0.121823,-0.003 0.04832,0 0.08654,6.2e-4 0.115092,0.003 0.03075,0.002 0.06057,0.005 0.08912,0.006 0.03075,0.002 0.06695,0.004 0.108679,0.006 0.0044,-0.011 0.0054,-0.0274 0.0032,-0.0494 -0.0022,-0.0242 -0.0055,-0.0383 -0.0099,-0.0426 -0.0088,0 -0.03159,-0.002 -0.06892,-0.006 -0.03514,-0.004 -0.07034,-0.0131 -0.105474,-0.0263 -0.03294,-0.0154 -0.04937,-0.0352 -0.04937,-0.0593 0,-0.022 0.0021,-0.0518 0.0064,-0.0891 0.0066,-0.0374 0.01967,-0.0833 0.03943,-0.13817 0.01757,-0.0527 0.03735,-0.10869 0.05931,-0.16799 0.02416,-0.0615 0.04393,-0.11445 0.05931,-0.15837 l 0.02661,-0.0658 0.0064,-0.003 c 0.0044,-0.004 0.0077,-0.006 0.0099,-0.006 0.07247,-0.004 0.131807,-0.006 0.177927,-0.006 0.04612,-0.002 0.102102,-0.003 0.167988,-0.003 h 0.0295 0.03302 0.134967 c 0.04832,0 0.0892,6.2e-4 0.122144,0.003 0.0044,0 0.0088,0.002 0.01314,0.006 l 0.0064,0.006 0.01988,0.0561 c 0.01537,0.0351 0.03414,0.0814 0.0561,0.1385 0.02196,0.0549 0.04376,0.11189 0.06572,0.17119 0.02196,0.0593 0.03972,0.11294 0.0529,0.16126 0.01537,0.0461 0.02309,0.0793 0.02309,0.0991 0,0.022 -0.0047,0.0371 -0.01347,0.0458 -0.01537,0.0132 -0.04387,0.0243 -0.0856,0.033 -0.04173,0.006 -0.07224,0.01 -0.09201,0.01 -0.0088,0.009 -0.01448,0.0242 -0.01667,0.0461 0,0.022 0.0043,0.0374 0.01314,0.0461 0.07467,-0.004 0.136342,-0.008 0.184659,-0.01 0.05051,-0.004 0.112873,-0.006 0.187544,-0.006 0.07028,0 0.13094,0.002 0.181453,0.006 0.05051,0.002 0.107505,0.006 0.171194,0.01 0.0022,-0.004 0.0042,-0.0178 0.0064,-0.0397 0.0022,-0.0241 -7.91e-4,-0.0416 -0.0096,-0.0525 -0.0088,0 -0.0299,-0.003 -0.06284,-0.01 -0.03075,-0.009 -0.06259,-0.0218 -0.09553,-0.0394 -0.03075,-0.0175 -0.05153,-0.0384 -0.06251,-0.0625 -0.0066,-0.0131 -0.03408,-0.0836 -0.08239,-0.21095 l -0.655603,-1.71963 c -0.0044,-0.002 -0.0074,-0.003 -0.0096,-0.003 0,-0.002 -0.0024,-0.003 -0.0068,-0.003 z m 27.350336,0 c -0.002,0.009 -0.005,0.0242 -0.006,0.0461 0,0.0198 0.004,0.0352 0.0131,0.0461 0.0175,0 0.0427,0.003 0.0756,0.01 0.0352,0.004 0.0683,0.0121 0.0991,0.0231 0.0308,0.009 0.0492,0.0185 0.0558,0.0295 0.0177,0.0264 0.0277,0.0561 0.0298,0.0891 0.002,0.0329 0.003,0.0779 0.003,0.13497 v 0.86975 c -0.002,0.18448 -0.033,0.32829 -0.0923,0.43151 -0.0571,0.10102 -0.13185,0.17243 -0.22409,0.21416 -0.0922,0.0418 -0.19449,0.0625 -0.30649,0.0625 -0.19326,0 -0.3401,-0.0614 -0.44112,-0.18433 -0.0505,-0.0637 -0.0901,-0.14514 -0.11862,-0.24398 -0.0264,-0.0988 -0.0397,-0.21515 -0.0397,-0.34911 v -0.79378 -0.13529 c 0.002,-0.0439 0.008,-0.0788 0.0167,-0.10515 0.004,-0.0132 0.0219,-0.0233 0.0525,-0.0298 0.0307,-0.006 0.0626,-0.0111 0.0955,-0.0131 0.0351,-0.004 0.0593,-0.006 0.0725,-0.006 0.006,-0.009 0.01,-0.0238 0.01,-0.0458 0.002,-0.022 -0.001,-0.0374 -0.01,-0.0461 -0.0659,0.002 -0.12959,0.005 -0.19108,0.01 -0.0592,0.002 -0.12044,0.003 -0.18401,0.003 h -3.2e-4 c -0.0614,0 -0.12365,-0.001 -0.18723,-0.003 -0.0615,-0.004 -0.12518,-0.008 -0.19107,-0.01 -0.009,0.009 -0.0131,0.0242 -0.0131,0.0461 0.002,0.022 0.006,0.0374 0.0131,0.0461 0.0131,0 0.0363,0.002 0.0693,0.006 0.0352,0.002 0.068,0.006 0.0987,0.0131 0.0331,0.006 0.0505,0.0166 0.0525,0.0298 0.009,0.0264 0.0131,0.0616 0.0131,0.10548 0.002,0.0417 0.003,0.0867 0.003,0.13496 v 0.939 c 0,0.12739 0.0208,0.2427 0.0625,0.34592 0.0417,0.10322 0.10005,0.18972 0.17472,0.26 0.0703,0.068 0.15476,0.12102 0.25358,0.15836 0.0988,0.0374 0.20542,0.0558 0.31963,0.0558 0.1669,0 0.31306,-0.0305 0.43824,-0.092 0.12738,-0.0615 0.22595,-0.15836 0.29622,-0.29013 0.0703,-0.13397 0.10548,-0.30728 0.10548,-0.52031 v -0.86656 c 0,-0.0615 10e-4,-0.10744 0.003,-0.13817 0.004,-0.0307 0.0141,-0.0583 0.0295,-0.0824 0.009,-0.0132 0.0309,-0.0243 0.066,-0.033 0.0351,-0.011 0.0713,-0.0187 0.10868,-0.0231 0.0373,-0.004 0.0624,-0.006 0.0757,-0.006 0.009,-0.0175 0.0121,-0.035 0.01,-0.0526 -0.002,-0.0175 -0.006,-0.0306 -0.01,-0.0394 -0.0484,0.002 -0.0899,0.004 -0.12503,0.006 -0.033,0.002 -0.0658,0.005 -0.0987,0.006 h -0.12215 c -0.0703,0 -0.13163,-0.001 -0.18433,-0.003 -0.0505,-0.004 -0.1075,-0.008 -0.1712,-0.01 z m -39.912902,0.003 c -0.0088,0.009 -0.01315,0.0242 -0.01315,0.0461 0.0022,0.022 0.0065,0.0374 0.01315,0.0461 0.01318,0 0.03764,0.002 0.07277,0.006 0.03514,0.002 0.068,0.006 0.09874,0.0131 0.03295,0.006 0.05039,0.0163 0.05258,0.0295 0.0088,0.0264 0.01314,0.0616 0.01314,0.10548 0.0022,0.0418 0.0035,0.0867 0.0035,0.13497 v 1.37372 c 0,0.0483 -0.0014,0.0936 -0.0035,0.13529 0,0.0418 -0.0043,0.0756 -0.01314,0.10195 -0.0022,0.011 -0.01964,0.021 -0.05258,0.0298 -0.03075,0.009 -0.0636,0.0152 -0.09874,0.0195 -0.03514,0.002 -0.0596,0.003 -0.07277,0.003 -0.0066,0.009 -0.01095,0.0242 -0.01315,0.0461 0,0.022 0.0043,0.0374 0.01315,0.0461 0.06369,0 0.125361,-0.002 0.184659,-0.006 0.05929,-0.002 0.126339,-0.003 0.201008,-0.003 0.215228,0 0.408321,0.002 0.579624,0.006 0.171303,0.004 0.34393,0.006 0.517429,0.006 0.01098,-0.0703 0.03379,-0.15508 0.06892,-0.2539 0.03734,-0.0988 0.07152,-0.19203 0.102268,-0.27987 -0.01318,-0.0132 -0.03966,-0.0198 -0.07919,-0.0198 -0.02636,0 -0.04177,0.006 -0.04616,0.0198 -0.02636,0.0856 -0.05687,0.1537 -0.09201,0.2042 -0.03294,0.0505 -0.06915,0.0901 -0.108679,0.11863 -0.04392,0.0307 -0.103256,0.0538 -0.177926,0.0693 -0.07247,0.0132 -0.139515,0.0198 -0.201009,0.0198 h -0.181133 c -0.06808,0 -0.118696,-0.001 -0.151637,-0.003 -0.03075,-0.004 -0.05723,-0.0144 -0.07919,-0.0298 -0.0066,-0.004 -0.01095,-0.0195 -0.01314,-0.0458 -0.0022,-0.0264 -0.0032,-0.0552 -0.0032,-0.0859 v -0.0789 -0.0198 -1.37404 -0.0195 -0.0198 -0.11541 c 0.0022,-0.0351 0.0065,-0.0637 0.01314,-0.0856 0.0044,-0.0132 0.02215,-0.0229 0.0529,-0.0295 0.03075,-0.006 0.06361,-0.0111 0.09874,-0.0131 0.03514,-0.004 0.05928,-0.006 0.07245,-0.006 0.0066,-0.009 0.0099,-0.0242 0.0099,-0.0461 0.0022,-0.0221 -0.0011,-0.0374 -0.0099,-0.0461 -0.06588,0.002 -0.129577,0.006 -0.191071,0.01 -0.05929,0.002 -0.120968,0.003 -0.184658,0.003 -0.06149,0 -0.123854,-10e-4 -0.187544,-0.003 -0.06369,-0.004 -0.128712,-0.008 -0.194597,-0.01 z m 4.605569,6.1e-4 c -0.03514,0.002 -0.07368,0.005 -0.115411,0.01 -0.04173,0.002 -0.09,0.003 -0.144906,0.003 v 6.1e-4 h -0.118619 c -0.03075,-0.002 -0.06159,-0.004 -0.09233,-0.006 -0.03075,-0.002 -0.07131,-0.005 -0.121824,-0.006 -0.0022,0.002 -0.0032,0.0186 -0.0032,0.0494 0,0.0285 0.001,0.043 0.0032,0.043 0.01318,0 0.03631,0.003 0.06925,0.01 0.03514,0.004 0.068,0.0121 0.09874,0.0231 0.03294,0.009 0.05171,0.0195 0.0561,0.0327 0.0066,0.0175 0.0099,0.0374 0.0099,0.0593 0.0022,0.022 0.0032,0.0451 0.0032,0.0693 0,0.0154 -0.001,0.068 -0.0032,0.15804 -0.0022,0.0879 -0.0055,0.20317 -0.0099,0.34592 -0.0022,0.14056 -0.0065,0.29978 -0.01314,0.47767 -0.0044,0.1779 -0.01008,0.36361 -0.01667,0.55687 -0.0022,0.0352 -0.0055,0.066 -0.0099,0.0923 -0.0044,0.0241 -0.01412,0.0469 -0.02949,0.0689 -0.0088,0.0132 -0.03191,0.0242 -0.06925,0.033 -0.03734,0.009 -0.07556,0.0155 -0.115092,0.0198 -0.03733,0.004 -0.0628,0.006 -0.07598,0.006 -0.0066,0.0132 -0.0086,0.031 -0.0064,0.0529 0.0022,0.022 0.0042,0.0351 0.0064,0.0394 0.07467,-0.004 0.137352,-0.008 0.187865,-0.01 0.05051,-0.004 0.113194,-0.006 0.187864,-0.006 0.07028,0 0.128281,0.002 0.174401,0.006 0.04612,0.002 0.101093,0.006 0.164782,0.01 0.0022,-0.004 0.0045,-0.0185 0.0068,-0.0426 0.0022,-0.0242 -0.0011,-0.041 -0.0099,-0.0496 -0.0088,0 -0.03292,-6.2e-4 -0.07245,-0.003 -0.03953,-0.004 -0.07909,-0.0111 -0.118617,-0.0198 -0.03734,-0.009 -0.05945,-0.0208 -0.06604,-0.0362 -0.0044,-0.0131 -0.0077,-0.0286 -0.0099,-0.0461 -0.0022,-0.0198 -0.0032,-0.0371 -0.0032,-0.0525 0,-0.006 0.001,-0.0441 0.0032,-0.11221 0.0022,-0.0703 0.0045,-0.16114 0.0068,-0.27314 0.0044,-0.1142 0.0077,-0.24159 0.0099,-0.38214 0.0044,-0.14055 0.0088,-0.28569 0.01315,-0.43504 0.0044,-0.14934 0.0077,-0.29415 0.0099,-0.43472 l 0.783838,1.87769 c 0.0022,0 0.0045,0.001 0.0068,0.003 0.01098,0.004 0.01869,0.005 0.02309,0.003 0.01318,-0.002 0.02726,-0.0143 0.04264,-0.0362 0.01757,-0.0242 0.03432,-0.0493 0.04969,-0.0757 0.01537,-0.0264 0.0251,-0.0441 0.02949,-0.053 0.06149,-0.15592 0.118486,-0.30074 0.171195,-0.43471 0.0549,-0.13617 0.108867,-0.26892 0.161576,-0.39849 0.05271,-0.13177 0.106351,-0.2682 0.161255,-0.40876 0.0571,-0.14055 0.118774,-0.29308 0.18466,-0.4578 0.0066,-0.0154 0.01196,-0.0231 0.01635,-0.0231 0.01098,0 0.01869,0.009 0.02309,0.0263 0.0044,0.0175 0.0068,0.0297 0.0068,0.0362 0.0066,0.1735 0.01196,0.33607 0.01635,0.48761 0.0044,0.14935 0.0088,0.2965 0.01315,0.44145 0.0044,0.14275 0.0088,0.29225 0.01314,0.44819 0,0.0241 0.0014,0.056 0.0035,0.0955 0.0022,0.0374 0.0032,0.0678 0.0032,0.092 0,0.022 -0.0024,0.0484 -0.0068,0.0792 -0.0044,0.0308 -0.01211,0.0495 -0.02309,0.0561 -0.01318,0.006 -0.03397,0.0129 -0.06251,0.0195 l -0.0856,0.0134 c -0.02855,0.002 -0.04933,0.003 -0.06251,0.003 -0.0066,0.0132 -0.0089,0.031 -0.0068,0.0529 0.0022,0.022 0.0045,0.0351 0.0068,0.0394 0.07467,-0.004 0.139371,-0.008 0.194276,-0.01 0.0549,-0.004 0.119606,-0.006 0.194276,-0.006 0.07028,0 0.134979,0.002 0.194277,0.006 0.06149,0.002 0.124174,0.006 0.187864,0.01 0.0022,-0.004 0.0032,-0.0164 0.0032,-0.0362 0.0022,-0.022 -7.91e-4,-0.0407 -0.0096,-0.0561 -0.0088,0 -0.0309,-6.2e-4 -0.06604,-0.003 -0.03294,-0.004 -0.0658,-0.0101 -0.09874,-0.0167 -0.03294,-0.009 -0.05272,-0.0208 -0.05931,-0.0362 -0.01537,-0.0374 -0.02542,-0.0836 -0.02981,-0.13849 -0.0044,-0.0549 -0.0074,-0.11291 -0.0096,-0.1744 -0.0022,-0.10542 -0.0055,-0.2261 -0.0099,-0.36226 -0.0022,-0.13617 -0.0055,-0.2736 -0.0099,-0.41196 -0.0022,-0.14056 -0.0045,-0.26693 -0.0068,-0.37894 -0.0022,-0.112 -0.0042,-0.19547 -0.0064,-0.25037 0,-0.0198 0.001,-0.0415 0.0032,-0.0658 0.0022,-0.0241 0.0065,-0.0439 0.01314,-0.0593 0.0066,-0.011 0.02536,-0.0211 0.0561,-0.0298 0.03075,-0.009 0.06259,-0.0152 0.09553,-0.0195 0.03514,-0.004 0.06029,-0.006 0.07566,-0.006 l -0.0032,-0.0426 c -0.0022,-0.0286 -0.0045,-0.0453 -0.0068,-0.0497 -0.03953,0.002 -0.09551,0.005 -0.167987,0.006 -0.07028,0.002 -0.13397,0.003 -0.191071,0.003 -0.06588,0 -0.150364,-0.003 -0.253585,-0.01 l -0.02309,0.0658 c -0.01537,0.0439 -0.03414,0.0956 -0.0561,0.15484 -0.02196,0.0593 -0.04275,0.11427 -0.06251,0.16479 -0.06149,0.15812 -0.118486,0.30294 -0.171194,0.43471 -0.05051,0.12958 -0.101125,0.26032 -0.151639,0.39208 -0.05051,0.12958 -0.107504,0.27573 -0.171194,0.43825 -0.0022,0.009 -0.0065,0.0131 -0.01314,0.0131 -0.0066,0 -0.01095,-0.002 -0.01314,-0.006 -0.04612,-0.1142 -0.09673,-0.2369 -0.151638,-0.36868 -0.0549,-0.13396 -0.110887,-0.26804 -0.167989,-0.40201 -0.0571,-0.13396 -0.111062,-0.26034 -0.161575,-0.37893 -0.04832,-0.1208 -0.0909,-0.22505 -0.128236,-0.3129 -0.03514,-0.0878 -0.05928,-0.15255 -0.07245,-0.19427 z m 5.570219,0 c -0.0088,0.009 -0.01314,0.0242 -0.01314,0.0461 0.0022,0.022 0.0065,0.0371 0.01314,0.0459 0.01318,0 0.03631,0.002 0.06925,0.006 0.03514,0.002 0.06831,0.006 0.09906,0.0131 0.03294,0.006 0.05038,0.0163 0.05258,0.0295 0.0088,0.0264 0.01314,0.0616 0.01314,0.10548 0.0022,0.0418 0.0032,0.087 0.0032,0.13529 v 1.37371 c 0,0.19327 -0.0064,0.3525 -0.01955,0.47769 -0.01318,0.12518 -0.03094,0.22172 -0.0529,0.28981 -0.02196,0.0681 -0.04811,0.11535 -0.07886,0.1417 -0.03075,0.0285 -0.06259,0.0426 -0.09553,0.0426 -0.02855,0 -0.05604,-0.008 -0.08239,-0.0231 -0.02416,-0.0153 -0.04495,-0.0308 -0.06251,-0.0461 -0.02196,-0.0198 -0.04509,-0.0406 -0.06925,-0.0625 -0.02636,-0.0198 -0.05485,-0.0295 -0.0856,-0.0295 -0.05051,0 -0.08906,0.0175 -0.115412,0.0525 -0.02636,0.0351 -0.03943,0.0781 -0.03943,0.12856 0,0.0307 0.0087,0.0548 0.02629,0.0725 0.01977,0.0153 0.05262,0.0284 0.09874,0.0395 0.04612,0.0132 0.08132,0.0198 0.105473,0.0198 0.144949,0 0.273341,-0.0372 0.385347,-0.11189 0.114202,-0.0747 0.203039,-0.19434 0.266729,-0.35906 0.06588,-0.16471 0.09906,-0.38125 0.09906,-0.64919 v -1.35705 -0.13529 c 0.0022,-0.0439 0.0076,-0.0788 0.01635,-0.10515 0.0044,-0.0132 0.02215,-0.0233 0.0529,-0.0298 0.03075,-0.006 0.06361,-0.0111 0.09874,-0.0131 0.03514,-0.004 0.05928,-0.006 0.07245,-0.006 0.0066,-0.009 0.0099,-0.0239 0.0099,-0.0459 0.0022,-0.022 -0.0011,-0.0374 -0.0099,-0.0461 -0.06588,0.002 -0.129578,0.005 -0.191071,0.01 -0.06149,0.002 -0.124175,0.003 -0.187865,0.003 -0.06149,0 -0.124175,-0.001 -0.187865,-0.003 -0.06149,-0.004 -0.125184,-0.008 -0.19107,-0.01 z m 4.746949,0 c -0.06588,0.002 -0.129578,0.005 -0.191072,0.01 -0.05929,0.002 -0.120648,0.003 -0.184338,0.003 v 3.1e-4 c -0.06149,0 -0.124175,-0.001 -0.187864,-0.003 -0.06369,-0.004 -0.128391,-0.008 -0.194276,-0.01 -0.0088,0.009 -0.01315,0.0262 -0.01315,0.0525 0.0022,0.0241 0.0065,0.0406 0.01315,0.0494 0.01318,0 0.03731,0.002 0.07245,0.006 0.03514,0.002 0.068,0.006 0.09874,0.0131 0.03294,0.006 0.0507,0.0163 0.0529,0.0295 0.0088,0.0264 0.01314,0.0616 0.01314,0.10547 0.0022,0.0418 0.0032,0.0867 0.0032,0.13497 v 1.35416 c 0,0.0484 -0.001,0.0932 -0.0032,0.13497 0,0.0418 -0.0043,0.0759 -0.01314,0.10227 -0.0022,0.011 -0.01996,0.0207 -0.0529,0.0295 -0.03075,0.009 -0.06361,0.0155 -0.09874,0.0198 -0.03514,0.002 -0.05928,0.003 -0.07245,0.003 -0.0066,0.009 -0.01095,0.0265 -0.01315,0.053 0,0.0242 0.0043,0.0406 0.01315,0.0494 0.06588,-0.004 0.130586,-0.008 0.194276,-0.01 0.06369,-0.004 0.126371,-0.006 0.187864,-0.006 0.06369,0 0.125041,0.002 0.184338,0.006 0.06149,0.002 0.125185,0.006 0.191072,0.01 0.0088,-0.009 0.01213,-0.0252 0.0099,-0.0494 0,-0.0264 -0.0034,-0.0441 -0.0099,-0.053 -0.01318,0 -0.03731,-6.2e-4 -0.07245,-0.003 -0.03514,-0.004 -0.068,-0.0111 -0.09874,-0.0198 -0.03075,-0.009 -0.04818,-0.0185 -0.05258,-0.0295 -0.0066,-0.022 -0.01095,-0.0494 -0.01314,-0.0824 v -0.11541 -0.0198 -0.0195 -0.63925 c 0,-0.002 0.001,-0.004 0.0032,-0.006 0.0044,-0.002 0.01747,-0.005 0.03943,-0.006 0.02196,-0.002 0.06822,-0.005 0.138494,-0.006 0.07028,-0.002 0.179903,-0.003 0.329244,-0.003 0.08346,0 0.166924,0.002 0.250379,0.006 0.08565,0.002 0.165771,0.005 0.240441,0.006 l 0.0035,0.003 c 0.0022,0 0.0032,0.002 0.0032,0.006 v 0.63925 c 0,0.0484 -0.001,0.0932 -0.0032,0.13496 0,0.0418 -0.0043,0.0756 -0.01314,0.10195 -0.0022,0.011 -0.01996,0.0211 -0.0529,0.0298 -0.03075,0.009 -0.06361,0.0155 -0.09874,0.0198 -0.03294,0.002 -0.05607,0.003 -0.06925,0.003 -0.0066,0.009 -0.01095,0.0266 -0.01314,0.0529 0,0.0242 0.0043,0.0406 0.01314,0.0494 0.06588,-0.004 0.129578,-0.008 0.191071,-0.01 0.06369,-0.004 0.126371,-0.006 0.187865,-0.006 0.06369,0 0.125041,0.002 0.184337,0.006 0.06149,0.002 0.125186,0.006 0.191071,0.01 0.0088,-0.009 0.01213,-0.0252 0.0099,-0.0494 0,-0.0264 -0.0034,-0.0441 -0.0099,-0.0529 -0.01318,0 -0.03731,-6.2e-4 -0.07245,-0.003 -0.03294,-0.004 -0.06479,-0.0111 -0.09553,-0.0198 -0.03075,-0.009 -0.04819,-0.0189 -0.05258,-0.0298 -0.0088,-0.0264 -0.01448,-0.0602 -0.01667,-0.10195 v -0.13496 -1.35416 -0.13498 c 0.0022,-0.0439 0.0079,-0.0791 0.01667,-0.10546 0.0044,-0.0132 0.02183,-0.0229 0.05258,-0.0295 0.03075,-0.006 0.06259,-0.0111 0.09553,-0.0131 0.03514,-0.004 0.05928,-0.006 0.07245,-0.006 0.0066,-0.009 0.0099,-0.0252 0.0099,-0.0494 0.0022,-0.0264 -0.0012,-0.0441 -0.0099,-0.0529 -0.06588,0.002 -0.129577,0.006 -0.191071,0.01 -0.05929,0.002 -0.120648,0.003 -0.184337,0.003 -0.06149,0 -0.124175,-0.001 -0.187865,-0.003 -0.06149,-0.004 -0.125184,-0.008 -0.191071,-0.01 -0.0088,0.009 -0.01314,0.0266 -0.01314,0.0529 0.0022,0.0241 0.0065,0.0406 0.01314,0.0494 0.01318,0 0.03631,0.002 0.06925,0.006 0.03514,0.002 0.068,0.006 0.09874,0.0131 0.03294,0.006 0.0507,0.0163 0.0529,0.0295 0.0088,0.0264 0.01314,0.0616 0.01314,0.10546 0.0022,0.0418 0.0032,0.0867 0.0032,0.13498 v 0.56007 c 0,0.002 -0.001,0.005 -0.0032,0.006 l -0.0035,0.003 c -0.07247,0.002 -0.153602,0.005 -0.243647,0.006 -0.08785,0.002 -0.170306,0.003 -0.247173,0.003 -0.09004,0 -0.176862,-6.2e-4 -0.260318,-0.003 -0.08346,-0.002 -0.164584,-0.005 -0.243647,-0.006 h -0.0032 c -0.0022,-0.002 -0.0032,-0.004 -0.0032,-0.006 v -0.56327 -0.0198 -0.0198 -0.11541 c 0.0022,-0.0351 0.0065,-0.0637 0.01315,-0.0856 0.0044,-0.0132 0.02183,-0.0229 0.05258,-0.0295 0.03075,-0.006 0.06361,-0.0111 0.09874,-0.0131 0.03514,-0.004 0.05928,-0.006 0.07245,-0.006 0.0066,-0.009 0.0099,-0.0251 0.0099,-0.0494 0.0022,-0.0264 -0.0011,-0.0438 -0.0099,-0.0526 z m 2.067151,0 c -0.0088,0.009 -0.01314,0.0242 -0.01314,0.0461 0.0022,0.022 0.0065,0.0374 0.01314,0.0461 0.01318,0 0.03731,0.002 0.07245,0.006 0.03514,0.002 0.06832,0.006 0.09906,0.0131 0.03294,0.006 0.05038,0.0166 0.05258,0.0298 0.0088,0.0264 0.01314,0.0615 0.01314,0.10547 0.0022,0.0418 0.0032,0.0867 0.0032,0.13496 v 1.37373 c 0,0.0483 -0.001,0.0932 -0.0032,0.13496 0,0.0418 -0.0043,0.0759 -0.01314,0.10227 -0.0022,0.011 -0.01964,0.0207 -0.05258,0.0295 -0.03075,0.009 -0.06392,0.0155 -0.09906,0.0198 -0.03514,0.002 -0.05927,0.003 -0.07245,0.003 -0.0066,0.009 -0.01095,0.0242 -0.01314,0.0461 0,0.022 0.0043,0.0371 0.01314,0.0458 0.06588,-0.004 0.130908,-0.008 0.194597,-0.01 0.06369,-0.004 0.126051,-0.006 0.187544,-0.006 0.06369,0 0.125362,0.002 0.184659,0.006 0.06149,0.002 0.125185,0.005 0.19107,0.01 0.0088,-0.009 0.01181,-0.0239 0.0096,-0.0458 0,-0.0221 -0.003,-0.0374 -0.0096,-0.0461 -0.01318,0 -0.03731,-0.001 -0.07245,-0.003 -0.03514,-0.004 -0.06832,-0.0111 -0.09906,-0.0198 -0.03075,-0.009 -0.04819,-0.0185 -0.05258,-0.0295 -0.0066,-0.022 -0.01095,-0.0494 -0.01314,-0.0824 v -0.11541 -0.0195 -0.0198 -1.37371 -0.0198 -0.0198 -0.11509 c 0.0022,-0.0351 0.0065,-0.0637 0.01314,-0.0856 0.0044,-0.0132 0.02183,-0.0233 0.05258,-0.0298 0.03075,-0.006 0.06392,-0.0111 0.09906,-0.0131 0.03514,-0.004 0.05928,-0.006 0.07245,-0.006 0.0066,-0.009 0.0096,-0.0239 0.0096,-0.0458 0.0022,-0.022 -7.91e-4,-0.0374 -0.0096,-0.0461 -0.06588,0.002 -0.129576,0.005 -0.19107,0.01 -0.05929,0.002 -0.120968,0.003 -0.184659,0.003 -0.06149,0 -0.123854,-6.1e-4 -0.187544,-0.003 -0.06369,-0.004 -0.128711,-0.008 -0.194597,-0.01 z m 1.533373,0 c -0.0088,0.009 -0.01314,0.0242 -0.01314,0.0461 0.0022,0.022 0.0065,0.0371 0.01314,0.0459 0.01318,0 0.03731,0.002 0.07245,0.006 0.03514,0.002 0.06832,0.006 0.09906,0.0131 0.03294,0.006 0.05038,0.0163 0.05258,0.0295 0.0088,0.0264 0.01314,0.0616 0.01314,0.10548 0.0022,0.0418 0.0032,0.087 0.0032,0.13529 v 1.37371 c 0,0.0484 -0.001,0.0932 -0.0032,0.13497 0,0.0417 -0.0043,0.0756 -0.01314,0.10195 -0.0022,0.011 -0.01964,0.0211 -0.05258,0.0298 -0.03075,0.009 -0.06392,0.0155 -0.09906,0.0198 -0.03514,0.002 -0.05928,0.003 -0.07245,0.003 -0.0066,0.009 -0.01095,0.0242 -0.01314,0.0461 0,0.022 0.0043,0.0374 0.01314,0.0461 h 0.804036 c 0.226207,0 0.414941,-0.0295 0.566478,-0.0888 0.151538,-0.0615 0.271211,-0.14395 0.359059,-0.24718 0.09005,-0.10322 0.153737,-0.21954 0.191071,-0.34911 0.03733,-0.12958 0.0561,-0.26265 0.0561,-0.39882 0,-0.19985 -0.04492,-0.37753 -0.134968,-0.53346 -0.09004,-0.15812 -0.219766,-0.28247 -0.388873,-0.37252 -0.169107,-0.0922 -0.37124,-0.13817 -0.606232,-0.13817 -0.07028,0 -0.149388,0.001 -0.237236,0.003 h -0.227297 c -0.06149,0 -0.123854,-10e-4 -0.187544,-0.003 -0.06369,-0.004 -0.128711,-0.008 -0.194597,-0.01 z m 2.745836,0 c -0.0088,0.009 -0.01315,0.0242 -0.01315,0.0461 0.0022,0.022 0.0065,0.0374 0.01315,0.0461 0.01315,0 0.03729,0.002 0.07246,0.006 0.03514,0.002 0.06798,0.006 0.09874,0.0131 0.03298,0.006 0.05073,0.0166 0.05289,0.0298 0.0088,0.0264 0.01315,0.0615 0.01315,0.10547 0.0022,0.0418 0.0036,0.0867 0.0036,0.13496 v 1.37373 c 0,0.0483 -7.19e-4,0.0932 -0.0036,0.13496 0,0.0418 -0.0043,0.0759 -0.01315,0.10227 -0.0022,0.011 -0.01998,0.0207 -0.05289,0.0295 -0.03075,0.009 -0.06359,0.0155 -0.09874,0.0198 -0.03514,0.002 -0.05928,0.003 -0.07246,0.003 -0.0065,0.009 -0.01092,0.0242 -0.01315,0.0461 0,0.022 0.0043,0.0371 0.01315,0.0458 0.06589,-0.004 0.130589,-0.008 0.194281,-0.01 0.06366,-0.004 0.12637,-0.006 0.187863,-0.006 0.06366,0 0.125035,0.002 0.184336,0.006 0.06151,0.002 0.125185,0.005 0.191076,0.01 0.0088,-0.009 0.01207,-0.0239 0.0099,-0.0458 0,-0.0221 -0.0029,-0.0374 -0.0099,-0.0461 -0.01315,0 -0.03729,-0.001 -0.07246,-0.003 -0.03514,-0.004 -0.06797,-0.0111 -0.09874,-0.0198 -0.03075,-0.009 -0.04821,-0.0185 -0.05253,-0.0295 -0.0065,-0.022 -0.01099,-0.0494 -0.01315,-0.0824 v -0.11541 -0.0195 -0.0198 -1.37371 -0.0198 -0.0198 -0.11509 c 0.0029,-0.0351 0.0065,-0.0637 0.01315,-0.0856 0.0043,-0.0132 0.02184,-0.0233 0.05253,-0.0298 0.03075,-0.006 0.06359,-0.0111 0.09874,-0.0131 0.03514,-0.004 0.05928,-0.006 0.07246,-0.006 0.0065,-0.009 0.0099,-0.0239 0.0099,-0.0458 0.0022,-0.022 -0.0014,-0.0374 -0.0099,-0.0461 -0.06589,0.002 -0.129583,0.005 -0.191076,0.01 -0.05928,0.002 -0.120644,0.003 -0.184336,0.003 -0.06151,0 -0.124179,-6.1e-4 -0.187863,-0.003 -0.06366,-0.004 -0.12839,-0.008 -0.194281,-0.01 z m 6.613095,0 c -0.0351,0.002 -0.0737,0.005 -0.11541,0.01 -0.0418,0.002 -0.09,0.003 -0.14491,0.003 l 6.2e-4,6.1e-4 h -0.11862 c -0.0308,-0.002 -0.0616,-0.004 -0.0923,-0.006 -0.0308,-0.002 -0.0713,-0.005 -0.12182,-0.006 -0.002,0.002 -0.003,0.0186 -0.003,0.0494 0,0.0285 10e-4,0.043 0.003,0.043 0.0132,0 0.0363,0.003 0.0693,0.01 0.0352,0.004 0.068,0.0121 0.0987,0.0231 0.0329,0.009 0.0517,0.0195 0.056,0.0327 0.006,0.0175 0.01,0.0374 0.01,0.0593 0.002,0.022 0.003,0.0451 0.003,0.0693 0,0.0154 -6.2e-4,0.068 -0.003,0.15804 -0.003,0.0879 -0.006,0.20317 -0.01,0.34592 -0.002,0.14056 -0.006,0.29978 -0.0131,0.47767 -0.004,0.1779 -0.0101,0.36361 -0.0167,0.55687 -0.003,0.0352 -0.006,0.066 -0.01,0.0923 -0.004,0.0241 -0.0142,0.0469 -0.0295,0.0689 -0.009,0.0132 -0.0319,0.0242 -0.0693,0.033 -0.0374,0.009 -0.0755,0.0155 -0.11509,0.0198 -0.0373,0.004 -0.0628,0.006 -0.076,0.006 -0.006,0.0132 -0.008,0.031 -0.006,0.0529 0.003,0.022 0.004,0.0351 0.006,0.0394 0.0747,-0.004 0.13735,-0.008 0.18787,-0.01 0.0505,-0.004 0.11319,-0.006 0.18787,-0.006 0.0703,0 0.12828,0.002 0.1744,0.006 0.0461,0.002 0.1011,0.006 0.16478,0.01 0.003,-0.004 0.005,-0.0185 0.006,-0.0426 0.003,-0.0242 -0.001,-0.041 -0.01,-0.0496 -0.009,0 -0.033,-6.2e-4 -0.0725,-0.003 -0.0395,-0.004 -0.0791,-0.0111 -0.11862,-0.0198 -0.0374,-0.009 -0.0595,-0.0208 -0.066,-0.0362 -0.004,-0.0131 -0.008,-0.0286 -0.01,-0.0461 -0.002,-0.0198 -0.003,-0.0371 -0.003,-0.0525 0,-0.006 10e-4,-0.0441 0.003,-0.11221 0.003,-0.0703 0.004,-0.16114 0.006,-0.27314 0.004,-0.1142 0.008,-0.24159 0.01,-0.38214 0.004,-0.14055 0.009,-0.28569 0.0131,-0.43504 0.004,-0.14934 0.008,-0.29415 0.01,-0.43472 l 0.78384,1.87769 c 0.003,0 0.005,0.001 0.006,0.003 0.011,0.004 0.0187,0.005 0.0231,0.003 0.0131,-0.002 0.0272,-0.0143 0.0426,-0.0362 0.0175,-0.0242 0.034,-0.0493 0.0494,-0.0757 0.0154,-0.0264 0.0254,-0.0441 0.0298,-0.053 0.0615,-0.15592 0.11848,-0.30074 0.17118,-0.43471 0.0549,-0.13617 0.10888,-0.26892 0.16158,-0.39849 0.0527,-0.13177 0.10635,-0.2682 0.16126,-0.40876 0.0571,-0.14055 0.11877,-0.29308 0.18466,-0.4578 0.006,-0.0154 0.012,-0.0231 0.0163,-0.0231 0.011,0 0.0187,0.009 0.0231,0.0263 0.004,0.0175 0.006,0.0297 0.006,0.0362 0.006,0.1735 0.012,0.33607 0.0164,0.48761 0.004,0.14935 0.009,0.2965 0.0131,0.44145 0.004,0.14275 0.009,0.29225 0.0131,0.44819 0,0.0241 10e-4,0.056 0.003,0.0955 0.002,0.0374 0.003,0.0678 0.003,0.092 0,0.022 -0.003,0.0484 -0.006,0.0792 -0.004,0.0308 -0.0121,0.0495 -0.0231,0.0561 -0.0132,0.006 -0.034,0.0129 -0.0625,0.0195 -0.0285,0.004 -0.0571,0.009 -0.0856,0.0134 -0.0285,0.002 -0.0496,0.003 -0.0628,0.003 -0.006,0.0132 -0.008,0.031 -0.006,0.0529 0.002,0.022 0.004,0.0351 0.006,0.0394 0.0747,-0.004 0.13969,-0.008 0.1946,-0.01 0.0549,-0.004 0.11961,-0.006 0.19427,-0.006 0.0703,0 0.13499,0.002 0.19428,0.006 0.0615,0.002 0.12418,0.006 0.18787,0.01 0.002,-0.004 0.003,-0.0164 0.003,-0.0362 0.002,-0.022 -0.001,-0.0407 -0.01,-0.0561 -0.009,0 -0.0309,-6.2e-4 -0.066,-0.003 -0.0329,-0.004 -0.0657,-0.0101 -0.0987,-0.0167 -0.0329,-0.009 -0.0528,-0.0208 -0.0593,-0.0362 -0.0154,-0.0374 -0.0252,-0.0836 -0.0295,-0.13849 -0.004,-0.0549 -0.008,-0.11291 -0.01,-0.1744 -0.003,-0.10542 -0.006,-0.2261 -0.01,-0.36226 -0.003,-0.13617 -0.006,-0.2736 -0.01,-0.41196 -0.003,-0.14056 -0.004,-0.26693 -0.006,-0.37894 -0.002,-0.112 -0.005,-0.19547 -0.006,-0.25037 0,-0.0198 0.001,-0.0415 0.003,-0.0658 0.003,-0.0241 0.006,-0.0439 0.0131,-0.0593 0.006,-0.011 0.0254,-0.0211 0.056,-0.0298 0.0307,-0.009 0.0626,-0.0152 0.0955,-0.0195 0.0351,-0.004 0.0603,-0.006 0.0757,-0.006 l -0.003,-0.0426 c -0.003,-0.0286 -0.004,-0.0453 -0.006,-0.0497 -0.0395,0.002 -0.0955,0.005 -0.16799,0.006 -0.0703,0.002 -0.13397,0.003 -0.19107,0.003 -0.0659,0 -0.15036,-0.003 -0.25358,-0.01 l -0.0231,0.0658 c -0.0154,0.0439 -0.0341,0.0956 -0.0561,0.15484 -0.022,0.0593 -0.0427,0.11427 -0.0625,0.16479 -0.0615,0.15812 -0.1188,0.30294 -0.17152,0.43471 -0.0505,0.12958 -0.1008,0.26032 -0.15132,0.39208 -0.0505,0.12958 -0.10782,0.27573 -0.17151,0.43825 -0.002,0.009 -0.006,0.0131 -0.0131,0.0131 -0.006,0 -0.0111,-0.002 -0.0131,-0.006 -0.0461,-0.1142 -0.0967,-0.2369 -0.15165,-0.36868 -0.0549,-0.13396 -0.11088,-0.26804 -0.16798,-0.40201 -0.0571,-0.13396 -0.11075,-0.26034 -0.16125,-0.37893 -0.0484,-0.1208 -0.0912,-0.22505 -0.12856,-0.3129 -0.0351,-0.0878 -0.0592,-0.15255 -0.0724,-0.19427 z m 3.74382,0.092 c 0.12519,0 0.23513,0.0308 0.32956,0.0923 0.0966,0.0593 0.17777,0.13942 0.24365,0.24044 0.068,0.10103 0.11868,0.21299 0.15164,0.33598 0.0352,0.12298 0.0525,0.24701 0.0525,0.3722 0,0.10761 -0.0131,0.21623 -0.0395,0.32604 -0.0241,0.10761 -0.0637,0.2065 -0.11862,0.29654 -0.0549,0.09 -0.12498,0.16246 -0.21063,0.21736 -0.0857,0.0527 -0.18889,0.0792 -0.30968,0.0792 -0.12519,0 -0.23614,-0.0308 -0.33278,-0.0923 -0.0944,-0.0615 -0.17455,-0.14263 -0.24043,-0.24365 -0.0659,-0.10322 -0.1165,-0.21652 -0.15164,-0.3395 -0.033,-0.12519 -0.0494,-0.25023 -0.0494,-0.37541 0,-0.10761 0.0121,-0.21521 0.0362,-0.32283 0.0264,-0.10762 0.0659,-0.20549 0.11862,-0.29334 0.0549,-0.0879 0.12498,-0.15792 0.21063,-0.21063 0.0857,-0.0549 0.18889,-0.0824 0.30968,-0.0824 z m 5.00406,0 c 0.12518,0 0.2348,0.0308 0.32925,0.0923 0.0966,0.0593 0.17808,0.13942 0.24397,0.24044 0.068,0.10103 0.11835,0.21299 0.15131,0.33598 0.0352,0.12298 0.053,0.24701 0.053,0.3722 0,0.10761 -0.0131,0.21623 -0.0394,0.32604 -0.0242,0.10761 -0.0637,0.2065 -0.11863,0.29654 -0.0549,0.09 -0.12529,0.16246 -0.21094,0.21736 -0.0857,0.0527 -0.1889,0.0792 -0.30969,0.0792 -0.12518,0 -0.23614,-0.0308 -0.33277,-0.0923 -0.0944,-0.0615 -0.17456,-0.14263 -0.24044,-0.24365 -0.0659,-0.10322 -0.11648,-0.21652 -0.15164,-0.3395 -0.0329,-0.12519 -0.0494,-0.25023 -0.0494,-0.37541 0,-0.10761 0.0121,-0.21521 0.0362,-0.32283 0.0264,-0.10762 0.0659,-0.20549 0.11861,-0.29334 0.0549,-0.0879 0.12529,-0.15792 0.21095,-0.21063 0.0857,-0.0549 0.1889,-0.0824 0.30969,-0.0824 z m -17.345735,0.0231 c 0.116399,0 0.227354,0.0184 0.332771,0.0558 0.107614,0.0352 0.20315,0.0935 0.286606,0.17472 0.08565,0.0791 0.152692,0.18232 0.201008,0.30969 0.05051,0.12738 0.07566,0.28225 0.07566,0.46453 0,0.20864 -0.03956,0.38095 -0.118618,0.51711 -0.07906,0.13397 -0.183319,0.23386 -0.312894,0.29975 -0.12738,0.0659 -0.26784,0.0987 -0.421573,0.0987 -0.05929,0 -0.11528,-0.003 -0.167989,-0.01 -0.05051,-0.006 -0.08236,-0.0187 -0.09554,-0.0362 -0.0044,-0.006 -0.0091,-0.0254 -0.01346,-0.0561 -0.0022,-0.033 -0.0032,-0.0658 -0.0032,-0.0987 v -0.076 -1.37019 -3.2e-4 -0.0198 -0.0195 -0.11221 c 0.0022,-0.0374 0.0065,-0.0668 0.01314,-0.0888 0.0044,-0.011 0.02215,-0.0187 0.0529,-0.0231 0.03075,-0.004 0.06361,-0.006 0.09874,-0.006 0.03514,-0.002 0.05928,-0.003 0.07245,-0.003 z m -21.002049,0.26993 0.283401,0.77775 -0.0035,0.01 c 0,0.004 -0.002,0.006 -0.0064,0.006 -0.04832,0.002 -0.09356,0.005 -0.135288,0.006 -0.03954,0.002 -0.08445,0.003 -0.134968,0.003 h -0.1417 c -0.0571,-0.002 -0.106384,-0.005 -0.148112,-0.006 -0.0022,0 -0.0045,-0.002 -0.0068,-0.006 v -0.006 z m 14.164867,0 0.283399,0.77775 -0.0032,0.01 c 0,0.004 -0.0024,0.006 -0.0068,0.006 -0.04832,0.002 -0.09324,0.005 -0.134968,0.006 -0.03953,0.002 -0.08445,0.003 -0.134968,0.003 h -0.1417 c -0.05709,-0.002 -0.106704,-0.005 -0.148431,-0.006 -0.0022,0 -0.0042,-0.002 -0.0064,-0.006 v -0.006 z m -9.282951,0.86335 c -0.02196,0 -0.06253,0.002 -0.121822,0.006 -0.0571,0.002 -0.123133,0.006 -0.197804,0.01 -0.07247,0.002 -0.143874,0.005 -0.214152,0.01 -0.07028,0.004 -0.12828,0.008 -0.1744,0.01 l -0.06925,0.003 v 3.3e-4 c -0.01098,0.0242 -0.02071,0.0503 -0.02949,0.0789 -0.0066,0.0264 -0.0099,0.0548 -0.0099,0.0856 0,0.0242 0.0064,0.0362 0.01955,0.0362 l 0.296543,-0.0131 c 0.101025,-0.004 0.193212,-0.009 0.276668,-0.0132 0.08565,-0.004 0.153703,-0.008 0.204215,-0.01 0.02855,-0.0615 0.04296,-0.11982 0.04296,-0.17472 0,-0.0198 -0.0077,-0.0298 -0.02309,-0.0298 z" />
    </g>
  </g>
  <metadata
     id="metadata5284">
    <rdf:RDF>
      <cc:Work
         rdf:about="">
        <cc:license
           rdf:resource="http://creativecommons.org/licenses/by-nc-sa/4.0/" />
        <dc:title>Al-Mujahidin Mosque Logo</dc:title>
        <dc:creator>
          <cc:Agent>
            <dc:title>Hervy Qurrotul Ainur Rozi</dc:title>
          </cc:Agent>
        </dc:creator>
      </cc:Work>
      <cc:License
         rdf:about="http://creativecommons.org/licenses/by-nc-sa/4.0/">
        <cc:permits
           rdf:resource="http://creativecommons.org/ns#Reproduction" />
        <cc:permits
           rdf:resource="http://creativecommons.org/ns#Distribution" />
        <cc:requires
           rdf:resource="http://creativecommons.org/ns#Notice" />
        <cc:requires
           rdf:resource="http://creativecommons.org/ns#Attribution" />
        <cc:prohibits
           rdf:resource="http://creativecommons.org/ns#CommercialUse" />
        <cc:permits
           rdf:resource="http://creativecommons.org/ns#DerivativeWorks" />
        <cc:requires
           rdf:resource="http://creativecommons.org/ns#ShareAlike" />
      </cc:License>
    </rdf:RDF>
  </metadata>
</svg>
