<?xml version="1.0" encoding="UTF-8" standalone="no"?>
<!-- Created with Inkscape (http://www.inkscape.org/) -->

<svg
   width="299.99973"
   height="104.16982"
   viewBox="0 0 79.374928 27.561598"
   version="1.1"
   id="svg5"
   inkscape:version="1.2.1 (9c6d41e410, 2022-07-14)"
   sodipodi:docname="logo_footer.svg"
   xmlns:inkscape="http://www.inkscape.org/namespaces/inkscape"
   xmlns:sodipodi="http://sodipodi.sourceforge.net/DTD/sodipodi-0.dtd"
   xmlns="http://www.w3.org/2000/svg"
   xmlns:svg="http://www.w3.org/2000/svg"
   xmlns:rdf="http://www.w3.org/1999/02/22-rdf-syntax-ns#"
   xmlns:cc="http://creativecommons.org/ns#"
   xmlns:dc="http://purl.org/dc/elements/1.1/">
  <title
     id="title5288">Al-Mujahidin Mosque Logo</title>
  <sodipodi:namedview
     id="namedview7"
     pagecolor="#ffffff"
     bordercolor="#000000"
     borderopacity="0.25"
     inkscape:showpageshadow="2"
     inkscape:pageopacity="0.0"
     inkscape:pagecheckerboard="0"
     inkscape:deskcolor="#d1d1d1"
     inkscape:document-units="px"
     showgrid="false"
     inkscape:zoom="2.0703423"
     inkscape:cx="135.96785"
     inkscape:cy="10.384756"
     inkscape:window-width="1366"
     inkscape:window-height="707"
     inkscape:window-x="0"
     inkscape:window-y="0"
     inkscape:window-maximized="1"
     inkscape:current-layer="g1987" />
  <defs
     id="defs2" />
  <g
     inkscape:label="Layer 1"
     inkscape:groupmode="layer"
     id="layer1"
     transform="translate(-71.57589,-134.74264)">
    <g
       id="g1987"
       transform="matrix(1.1582427,0,0,1.1582427,-11.533441,-18.521194)">
      <path
         id="path4753"
         style="font-size:11.1337px;font-family:'Amiri Quran';-inkscape-font-specification:'Amiri Quran, Normal';fill:#ffffff;stroke-width:3.54391;stroke-opacity:0.509375"
         d="m 115.23664,134.10397 c -0.012,-3.3e-4 -0.0236,6.4e-4 -0.0356,0.003 -0.29877,0.0477 -0.53278,0.28153 -0.70255,0.70255 -0.068,0.16296 -0.0306,0.31236 0.11205,0.44817 0.0816,0.0747 0.21018,0.15976 0.38674,0.25483 -0.32595,0.42102 -0.76381,0.7909 -1.31384,1.11007 -0.12903,0.0679 -0.16948,0.1494 -0.12196,0.24441 0.0476,0.0747 0.12535,0.0815 0.23402,0.0204 0.53646,-0.26483 1.01839,-0.67519 1.4462,-1.23202 0.0951,0.0545 0.17699,0.0916 0.24488,0.11205 0.0544,0.0204 0.0984,-3.6e-4 0.13245,-0.0615 l 0.10155,-0.19335 c 0.0476,-0.0884 0.0306,-0.1494 -0.051,-0.18345 -0.0271,-0.006 -0.0577,-0.0204 -0.0917,-0.0405 -0.0271,-0.0272 -0.0677,-0.0542 -0.12195,-0.0815 0.15618,-0.39385 0.15618,-0.70977 0,-0.94741 -0.0652,-0.1011 -0.13845,-0.15288 -0.21938,-0.15508 z m 8.40299,0 c -0.012,-3.3e-4 -0.0229,6.4e-4 -0.0349,0.003 -0.29878,0.0477 -0.53323,0.28153 -0.703,0.70255 -0.0679,0.16296 -0.0305,0.31236 0.11205,0.44817 0.0816,0.0747 0.21064,0.15976 0.38719,0.25483 -0.32595,0.42102 -0.76378,0.7909 -1.31381,1.11007 -0.129,0.0679 -0.16997,0.1494 -0.1224,0.24441 0.0477,0.0747 0.12585,0.0815 0.23449,0.0204 0.53646,-0.26483 1.01841,-0.67519 1.44619,-1.23202 0.0951,0.0545 0.17652,0.0916 0.24444,0.11205 0.0545,0.0204 0.0984,-3.6e-4 0.13245,-0.0615 l 0.10215,-0.19335 c 0.0476,-0.0884 0.0305,-0.1494 -0.051,-0.18345 -0.0272,-0.006 -0.0577,-0.0204 -0.0917,-0.0405 -0.0272,-0.0272 -0.0675,-0.0542 -0.12195,-0.0815 0.15618,-0.39385 0.15618,-0.70977 0,-0.94741 -0.0653,-0.1011 -0.1389,-0.15288 -0.21983,-0.15508 z m -8.71313,0.50821 c 0.0517,-9e-4 0.1095,0.0273 0.17304,0.0846 0.0949,0.0746 0.1287,0.20743 0.10155,0.39759 -0.19694,-0.095 -0.32608,-0.17339 -0.38719,-0.2345 -0.0543,-0.0545 -0.0678,-0.0985 -0.0405,-0.13245 0.0432,-0.0757 0.0945,-0.1143 0.15316,-0.11535 z m 8.40299,0 c 0.0517,-9e-4 0.10935,0.0273 0.17304,0.0846 0.095,0.0746 0.12915,0.20743 0.10215,0.39759 -0.19694,-0.095 -0.32608,-0.17339 -0.38721,-0.2345 -0.0543,-0.0545 -0.0678,-0.0985 -0.0405,-0.13245 0.0432,-0.0757 0.094,-0.1143 0.1527,-0.11535 z m -24.357989,0.34938 c -0.216337,0.005 -0.405574,0.15387 -0.566849,0.44818 -0.03395,0.0679 -0.0677,0.1395 -0.101654,0.21417 -0.02716,0.0747 -0.04742,0.15615 -0.06097,0.24442 -0.10185,0.63831 0.118619,0.97807 0.661875,1.01881 0.258041,0.0204 0.479003,-0.0309 0.662347,-0.15318 0.24446,-0.17655 0.356511,-0.44788 0.336141,-0.81458 -0.02039,-0.29199 -0.169772,-0.54671 -0.448186,-0.76399 -0.173795,-0.13245 -0.334677,-0.19703 -0.482696,-0.19383 z m 34.591059,0 c -0.21631,0.005 -0.40557,0.15387 -0.56685,0.44818 -0.0339,0.0679 -0.0677,0.1395 -0.10155,0.21417 -0.0272,0.0747 -0.0474,0.15615 -0.061,0.24442 -0.1017,0.63831 0.11865,0.97807 0.66189,1.01881 0.25805,0.0204 0.47901,-0.0309 0.66234,-0.15318 0.24447,-0.17655 0.35652,-0.44788 0.33615,-0.81458 -0.0204,-0.29199 -0.16979,-0.54671 -0.4482,-0.76399 -0.17379,-0.13245 -0.33466,-0.19703 -0.48268,-0.19383 z m -36.048133,0.24159 c -0.02929,3e-4 -0.0721,0.0182 -0.128114,0.0539 l -1.915186,1.18145 c -0.108645,0.0884 -0.162631,0.15982 -0.162631,0.21417 v 0.15268 c 0,0.1155 0.05398,0.14295 0.162631,0.0819 l 1.782812,-1.0292 c 0.115439,-0.0679 0.183392,-0.13905 0.203763,-0.21369 l 0.09172,-0.29549 c 0.02547,-0.0976 0.0138,-0.14609 -0.03499,-0.14549 z m 16.215493,0 c -0.0292,3e-4 -0.0717,0.0182 -0.12771,0.0539 l -1.9152,1.18145 c -0.10866,0.0884 -0.16311,0.15982 -0.16311,0.21417 v 0.15268 c 0,0.1155 0.0545,0.14295 0.16311,0.0819 l 1.78282,-1.0292 c 0.11547,-0.0679 0.18292,-0.13905 0.20328,-0.21369 l 0.0917,-0.29549 c 0.0254,-0.0976 0.0132,-0.14609 -0.035,-0.14549 z m 26.1063,0 c -0.0292,3e-4 -0.0717,0.0182 -0.12765,0.0539 l -1.9152,1.18145 c -0.10875,0.0884 -0.1631,0.15982 -0.1631,0.21417 v 0.15268 c 0,0.1155 0.0545,0.14295 0.1631,0.0819 l 1.78281,-1.0292 c 0.1155,-0.0679 0.18293,-0.13905 0.2033,-0.21369 l 0.0916,-0.29549 c 0.0254,-0.0976 0.0135,-0.14609 -0.0349,-0.14549 z m -40.924761,0.35929 c 0.0077,-2e-5 0.0153,2.5e-4 0.02316,4.8e-4 0.210506,0 0.39051,0.0747 0.539902,0.2241 0.203714,0.2037 0.206855,0.33237 0.01005,0.38671 -0.285202,0.0816 -0.546655,0.0816 -0.784323,0 -0.10866,-0.0406 -0.162632,-0.13575 -0.162632,-0.28509 0.0132,-0.21705 0.137744,-0.32577 0.373958,-0.3262 z m 34.591071,0 c 0.007,-2e-5 0.0153,2.5e-4 0.0231,4.8e-4 0.21051,0 0.39051,0.0747 0.53989,0.2241 0.20372,0.2037 0.20687,0.33237 0.009,0.38671 -0.28521,0.0816 -0.54665,0.0816 -0.78431,0 -0.10875,-0.0406 -0.16265,-0.13575 -0.16265,-0.28509 0.0135,-0.21705 0.1377,-0.32577 0.37397,-0.3262 z m -17.82245,2.19033 c -0.0406,0 -0.0713,0.0171 -0.0917,0.051 l -0.17302,0.45812 c -0.0271,0.0816 -0.0204,0.18004 0.0204,0.29546 0.0204,0.0544 0.0577,0.21363 0.11205,0.47844 0.0477,0.26484 0.10875,0.63835 0.18345,1.12048 0.0545,0.31914 0.0948,0.57072 0.12195,0.75408 0.0271,0.18331 0.0442,0.30211 0.051,0.35646 10e-4,0.03 0.006,0.0582 0.009,0.0855 -0.72228,0.1464 -1.74705,0.6203 -3.0744,1.42161 -0.0883,0.0439 -0.17647,0.12555 -0.26475,0.24489 -0.0544,0.0745 -0.10205,0.1458 -0.14279,0.21369 -0.0407,0.068 -0.0713,0.1395 -0.0918,0.21419 -0.006,0.0474 0.0171,0.0714 0.0713,0.0714 0.17656,-0.0135 0.36331,-0.0135 0.56024,0 0.20371,0.0135 0.41071,0.037 0.62122,0.071 0.21729,0.0339 0.41753,0.0781 0.60087,0.13244 0.18335,0.0477 0.34986,0.10875 0.49926,0.18342 0.0477,0.0206 0.0446,0.0405 -0.009,0.061 -0.006,0 -0.0135,0.003 -0.0208,0.0105 -0.006,0 -0.0166,0.003 -0.0305,0.009 -0.0135,0.006 -0.1086,0.0344 -0.28507,0.0819 -0.16977,0.0406 -0.41773,0.10185 -0.74366,0.18342 -0.66548,0.1698 -1.1038,0.258 -1.3143,0.26477 -0.003,7e-5 -0.004,3.4e-4 -0.007,4.8e-4 -9.1e-4,-8e-5 -0.002,-4.1e-4 -0.003,-4.8e-4 -0.63154,-0.0406 -0.9713,-0.37376 -1.01882,-0.99849 -0.006,-0.1494 -0.0234,-0.43785 -0.0506,-0.86563 -0.0203,-0.42781 -0.0479,-0.99483 -0.0818,-1.70104 -0.0407,-0.74693 -0.12219,-1.64649 -0.24442,-2.69904 -0.0204,-0.14265 -0.0474,-0.21415 -0.0814,-0.21415 -0.0204,-0.006 -0.0443,0.0135 -0.0713,0.061 l -0.32573,0.52997 c -0.0407,0.0679 -0.0512,0.15251 -0.0307,0.25434 0.10183,0.55685 0.1833,1.05589 0.24442,1.49728 0.0611,0.43459 0.10204,1.00519 0.12244,1.71142 0.0135,0.35311 0.0271,0.70636 0.0406,1.05949 0.0203,0.34629 0.0443,0.69235 0.0713,1.03867 0.0611,0.82843 0.53631,1.24291 1.42587,1.24291 0.25804,0 0.71612,-0.1224 1.37481,-0.36689 0.33275,-0.12225 0.59105,-0.21355 0.7744,-0.27468 0.18333,-0.0679 0.29178,-0.10529 0.32574,-0.11204 0.92353,-0.27842 1.93871,-0.38732 3.04558,-0.32621 0.0815,0.0135 0.1395,-0.0135 0.17351,-0.0814 l 0.30541,-0.53992 c 0.0272,-0.0545 0.0303,-0.10515 0.009,-0.1527 -0.0206,-0.0474 -0.0607,-0.0683 -0.12195,-0.0615 -0.47533,0.0545 -1.13054,0.0237 -1.96579,-0.0917 -0.4142,-0.0544 -0.80842,-0.1254 -1.1819,-0.2137 -0.37348,-0.0882 -0.71952,-0.19673 -1.03867,-0.32574 -0.10441,-0.0392 -0.20383,-0.0716 -0.2988,-0.0974 0.87535,-0.47232 1.54207,-0.69454 1.99982,-0.66661 0.47533,0.0339 0.98475,0.25083 1.52798,0.65147 0.0271,0.0204 0.0505,0.006 0.0709,-0.0405 0.0951,-0.25802 0.1563,-0.55324 0.18345,-0.88597 0.006,-0.0545 -0.0105,-0.0985 -0.051,-0.13245 -0.28503,-0.21041 -0.55304,-0.33961 -0.80417,-0.3872 h -4.8e-4 c -0.0358,-0.007 -0.0735,-0.0135 -0.1125,-0.0175 -0.0473,-0.0204 -0.0947,-0.0688 -0.1419,-0.1455 -0.0612,-0.10875 -0.129,-0.4682 -0.20376,-1.07934 -0.0339,-0.30558 -0.0609,-0.53643 -0.0814,-0.69259 -0.0204,-0.163 -0.0306,-0.24805 -0.0306,-0.25482 0,-0.006 0.0374,-0.0645 0.11205,-0.17304 0.0339,-0.0545 0.0647,-0.0984 0.0917,-0.13245 0.0272,-0.0408 0.0474,-0.075 0.0611,-0.10215 0.0271,-0.0612 0.009,-0.11865 -0.051,-0.17304 -0.19013,-0.18332 -0.34941,-0.43129 -0.47842,-0.74366 -0.006,-0.0406 -0.0375,-0.061 -0.0917,-0.061 z m 4.12776,0.6009 c -0.0459,0.003 -0.10455,0.0885 -0.17586,0.25482 l -0.25436,0.59049 c -0.0406,0.0951 -0.0543,0.21073 -0.0405,0.34655 l 0.22409,1.84332 c 0.14265,1.26306 0.21369,1.90838 0.21369,1.93551 0.0951,0.71301 0.13605,1.35471 0.1224,1.92512 0,0.0814 0.0135,0.13905 0.0405,0.17303 0.0272,0.0406 0.0647,0.0206 0.11205,-0.061 0.31915,-0.60437 0.34975,-2.03042 0.0918,-4.27809 l -0.2345,-2.49576 c -0.0204,-0.15955 -0.0534,-0.2374 -0.0993,-0.23401 z m -15.57348,1.89344 c -0.0386,7.1e-4 -0.0668,0.0248 -0.0846,0.0725 -0.0204,0.0545 -0.051,0.126 -0.0917,0.21417 -0.0407,0.0816 -0.0884,0.17958 -0.14278,0.29502 -0.0407,0.0816 -0.0506,0.19714 -0.0302,0.34653 0.0135,0.0747 0.0338,0.2205 0.061,0.4378 0.0272,0.21049 0.0645,0.48546 0.11205,0.82497 0.10185,0.68584 0.14957,1.04947 0.14279,1.09021 -0.0883,0.27841 -0.26153,0.46829 -0.51958,0.57016 -0.52966,0.21049 -1.12413,0.24471 -1.78281,0.10215 -0.12222,-0.0272 -0.21356,-0.1392 -0.27468,-0.33612 -0.0272,-0.0951 -0.0749,-0.1392 -0.14278,-0.13245 -0.0679,0.006 -0.11875,0.0608 -0.1527,0.16263 -0.27162,0.84881 -0.12584,1.29389 0.43778,1.33463 0.72659,0.0476 1.2972,-0.0135 1.71142,-0.18343 0.32595,-0.129 0.59776,-0.48228 0.81506,-1.05949 0.0204,-0.0612 0.0406,-0.0642 0.061,-0.009 l 0.0203,0.0918 c 0.0135,0.0545 0.0338,0.1389 0.061,0.25434 0.16297,0.71302 0.46539,1.0834 0.90677,1.11053 0.25804,0 0.70938,-0.28891 1.35448,-0.86611 0.61115,0.23088 1.19165,0.37714 1.74168,0.43825 0.21051,0.0206 0.38737,-0.0545 0.52998,-0.22408 0.2852,-0.33954 0.39051,-0.73689 0.3158,-1.19185 -0.0611,-0.36669 -0.40087,-0.8419 -1.0188,-1.42588 -0.62474,-0.59075 -1.08283,-0.89315 -1.37482,-0.90676 -0.2852,-0.0135 -0.50931,0.28521 -0.67228,0.89637 -0.0204,0.0745 0.01,0.11865 0.0913,0.13245 0.14938,0.0204 0.2583,0.0852 0.32621,0.19383 -0.35311,0.31235 -0.60107,0.689 -0.74367,1.13038 -0.0883,0.26482 -0.0374,0.47182 0.1527,0.6212 -0.2105,0.15617 -0.44449,0.2516 -0.70253,0.28557 -0.20371,-0.0477 -0.35673,-0.30223 -0.45858,-0.76399 -0.0951,-0.42103 -0.19002,-0.91333 -0.28508,-1.47694 -0.0883,-0.57042 -0.17334,-1.21213 -0.25483,-1.9251 -0.007,-0.0545 -0.0374,-0.0887 -0.0917,-0.10215 -0.006,-8.6e-4 -0.0115,-9.2e-4 -0.017,-9.2e-4 z m 20.39193,0 c -0.0387,7.1e-4 -0.0667,0.0248 -0.0846,0.0725 -0.0206,0.0545 -0.051,0.126 -0.0918,0.21417 -0.0406,0.0816 -0.0879,0.17958 -0.14234,0.29502 -0.0406,0.0816 -0.0512,0.19714 -0.0306,0.34653 0.0135,0.0747 0.0337,0.2205 0.061,0.4378 0.0271,0.21049 0.0646,0.48546 0.11204,0.82497 0.10185,0.68584 0.14955,1.04947 0.1428,1.09021 -0.0882,0.27841 -0.26155,0.46829 -0.51958,0.57016 -0.52966,0.21049 -1.12366,0.24471 -1.78234,0.10215 -0.12224,-0.0272 -0.21404,-0.1392 -0.27515,-0.33612 -0.0272,-0.0951 -0.0747,-0.1392 -0.1428,-0.13245 -0.0679,0.006 -0.1188,0.0608 -0.15272,0.16263 -0.2716,0.84881 -0.1254,1.29389 0.43827,1.33463 0.72658,0.0476 1.29673,-0.0135 1.71095,-0.18343 0.32594,-0.129 0.59775,-0.48228 0.81505,-1.05949 0.0204,-0.0612 0.0405,-0.0642 0.061,-0.009 l 0.0204,0.0918 c 0.0135,0.0545 0.0337,0.1389 0.0611,0.25434 0.16298,0.71302 0.46541,1.0834 0.90679,1.11053 0.4346,0 0.93003,-0.1089 1.48684,-0.3262 0.27843,-0.1155 0.63169,-0.27159 1.05948,-0.46852 0.2173,-0.1017 0.3973,-0.1833 0.53992,-0.24443 0.14265,-0.0612 0.24789,-0.1053 0.31579,-0.13245 -0.0951,0.44141 -0.10545,0.71995 -0.0306,0.83539 0.23766,0.40743 0.93021,0.5195 2.07781,0.33614 4.9e-4,-9e-5 9.1e-4,-3.6e-4 0.001,-4.7e-4 0.29457,-0.003 0.57251,-0.13515 0.83396,-0.39666 0.19694,0.26484 0.48537,0.39713 0.86563,0.39713 0.38709,0 0.71334,-0.15615 0.97819,-0.46851 0.24444,0.38026 0.60759,0.56028 1.08972,0.53991 0.15618,-0.0135 0.28846,-0.0919 0.39712,-0.2345 0.10185,-0.14265 0.21752,-0.4243 0.34655,-0.84532 0.0205,-0.0406 0.037,-0.0406 0.0507,0 0.25612,0.6673 0.65975,1.0035 1.21028,1.00842 0.003,3e-5 0.009,0 0.012,0 0.001,-3e-5 0.003,-4.4e-4 0.005,-4.7e-4 0.44197,-0.009 0.82081,-0.45418 1.13653,-1.33415 0.40063,0.33952 0.86233,0.58434 1.3852,0.73373 0.0816,0.0206 0.14625,-0.003 0.19386,-0.0714 l 0.56021,-0.703 c 0.0339,-0.0406 0.0439,-0.0984 0.0304,-0.17304 -0.16971,-1.11323 -0.48545,-1.67711 -0.94694,-1.69107 h -4.8e-4 c -0.30539,2.1e-4 -0.57703,0.21081 -0.81459,0.63161 -0.34632,0.61793 -0.56728,0.99144 -0.66233,1.12047 -0.28302,0.37063 -0.57906,0.56064 -0.88881,0.57015 -0.40609,-0.0419 -0.73096,-0.3779 -0.97485,-1.00794 -0.0204,-0.0545 -0.0679,-0.0819 -0.1428,-0.0819 -0.0747,0 -0.11564,0.0274 -0.12239,0.0819 -0.10185,0.43459 -0.21032,0.70954 -0.32574,0.82498 -0.1155,0.1155 -0.29186,0.1491 -0.52952,0.10155 -0.23087,-0.0477 -0.3569,-0.15286 -0.37724,-0.31581 -0.0135,-0.0883 0.0206,-0.24082 0.10215,-0.45812 0.0339,-0.0882 0.0305,-0.15626 -0.0105,-0.20376 -0.0406,-0.0476 -0.0879,-0.061 -0.14235,-0.0405 -0.0477,0.0204 -0.0916,0.0712 -0.13245,0.15271 -0.32595,0.77412 -0.89971,0.99508 -1.72135,0.66235 0.0339,-0.0544 0.0609,-0.1089 0.0815,-0.16311 0.0272,-0.0545 0.0541,-0.10515 0.0814,-0.15271 0.0476,-0.10185 0.0512,-0.18017 0.0105,-0.2345 -0.0406,-0.0544 -0.0885,-0.0714 -0.1428,-0.051 -0.0545,0.0205 -0.1014,0.0712 -0.14235,0.15271 h -4.8e-4 c -0.19693,0.4414 -0.63117,0.68622 -1.30342,0.73374 -0.0135,10e-4 -0.0265,0.003 -0.0388,0.006 -0.65395,0.0872 -1.13717,0.0616 -1.44856,-0.0774 -0.0883,-0.0406 -0.15262,-0.1356 -0.19337,-0.28508 0.13574,-0.0406 0.30235,-0.0714 0.49925,-0.0916 0.19692,-0.0204 0.42102,-0.0239 0.67227,-0.0105 0.10185,0 0.1626,-0.027 0.18297,-0.0814 l 0.21417,-0.63161 c 0.0339,-0.0951 0.009,-0.1428 -0.0714,-0.1428 h -0.97768 c -0.58399,-0.0612 -1.40571,-0.28523 -2.46502,-0.67227 -0.23087,-0.0816 -0.45499,-0.0607 -0.67229,0.0615 -0.21729,0.1155 -0.45175,0.37329 -0.70299,0.77394 -0.23769,0.38027 -0.39384,0.74027 -0.46854,1.0798 -0.006,0.0187 -0.0135,0.0369 -0.0185,0.0554 -0.17941,-0.0747 -0.31588,-0.32393 -0.4094,-0.74792 -0.0951,-0.42103 -0.19002,-0.91334 -0.28509,-1.47693 -0.0882,-0.57042 -0.17334,-1.21213 -0.25484,-1.92512 -0.006,-0.0544 -0.0374,-0.0886 -0.0918,-0.10215 -0.006,-8.6e-4 -0.012,-9.2e-4 -0.0171,-9.2e-4 z m -28.11366,0.0497 c -0.02547,0 -0.04323,0.007 -0.05342,0.0226 l -0.49877,0.74368 c -0.02039,0.0204 -0.0135,0.0405 0.02032,0.0611 0.217298,0.129 0.383334,0.2312 0.498773,0.30588 0.11544,0.0748 0.187004,0.12195 0.214163,0.14235 0.04753,0.0406 0.08127,0.0444 0.10164,0.0105 l 0.478915,-0.7744 c 0.02038,-0.0272 0.01677,-0.0541 -0.01035,-0.0813 -0.210508,-0.19014 -0.451245,-0.3328 -0.722865,-0.42786 -0.0102,-0.001 -0.01987,-0.003 -0.02838,-0.003 z m 3.67483,1.71379 c -0.0679,0 -0.10212,0.0441 -0.10212,0.13245 0.0135,0.27162 -0.0575,0.47547 -0.213689,0.61129 -0.149399,0.129 -0.325785,0.18298 -0.5295,0.16261 -0.142395,-0.015 -0.256765,-0.0552 -0.342758,-0.1224 -0.05281,-0.11565 -0.115154,-0.22085 -0.187217,-0.31532 -0.04074,-0.0545 -0.0781,-0.0408 -0.112049,0.0405 l -0.305411,0.65194 c -0.03395,0.0816 -0.03081,0.15618 0.01005,0.2241 0.305576,0.64508 0.417627,1.24945 0.33614,1.81305 -0.0135,0.0612 -0.03021,0.10515 -0.05058,0.13245 -0.502499,0.75372 -1.368304,1.11687 -2.597391,1.08973 -1.120442,-0.0205 -1.673948,-0.47847 -1.660364,-1.3748 0,-0.12225 0.04048,-0.29235 0.121979,-0.50964 0.08149,-0.2241 0.197149,-0.49905 0.34654,-0.82498 0.02039,-0.0545 0.02039,-0.0948 0,-0.12195 -0.02038,-0.0339 -0.04737,-0.051 -0.08131,-0.051 -0.04754,0 -0.08175,0.0203 -0.10212,0.0611 -0.0747,0.14265 -0.149399,0.30237 -0.224093,0.47892 -0.07471,0.16977 -0.149399,0.35965 -0.224093,0.57016 -0.176553,0.4957 -0.264748,0.8661 -0.264748,1.11053 0,1.17478 0.655197,1.76566 1.96577,1.77243 0.61794,0.006 1.164698,-0.126 1.640035,-0.39761 0.237671,-0.1359 0.441528,-0.28521 0.61129,-0.44819 0.176556,-0.15617 0.322345,-0.32582 0.437786,-0.50916 0.319149,-0.52287 0.502765,-1.16772 0.550302,-1.93505 0.0055,-0.1065 0.0075,-0.20931 0.0066,-0.30872 0.04119,-0.003 0.08307,-0.009 0.12576,-0.0175 0.387059,-0.0612 0.658391,-0.25101 0.814581,-0.57016 0.15618,-0.31915 0.20702,-0.72687 0.1527,-1.22258 -0.007,-0.0816 -0.0473,-0.12195 -0.12198,-0.12195 z m 6.66793,0.87037 c 0.0416,7.5e-4 0.0833,0.006 0.12576,0.0156 0.18334,0.0406 0.28865,0.23785 0.31582,0.59097 0,0.0612 -0.11207,0.14925 -0.33615,0.26474 -0.33273,-0.10184 -0.55683,-0.19006 -0.67227,-0.26474 -0.11544,-0.0746 -0.13883,-0.153 -0.0709,-0.2345 0.20053,-0.25209 0.41306,-0.37618 0.63776,-0.37207 z m 0.84484,0.1263 c 0.006,-2e-5 0.0144,0.005 0.0246,0.012 0.57041,0.35989 0.92367,0.70279 1.05948,1.02874 0.0135,0.0339 -0.004,0.0609 -0.0511,0.0813 -0.14259,0.0816 -0.6079,4e-5 -1.39561,-0.24443 0.26483,-0.34631 0.38049,-0.62801 0.34654,-0.8453 0,-0.0213 0.005,-0.0321 0.0161,-0.0321 z m 31.28878,0.0217 c 0.0774,-10e-4 0.15385,0.0153 0.23023,0.051 0.2037,0.0951 0.30227,0.28858 0.29549,0.58057 -0.37349,-0.0816 -0.67903,-0.23764 -0.91671,-0.46852 0.13155,-0.10605 0.26207,-0.16046 0.39099,-0.16311 z m -12.04143,0.47703 c 0.3043,-0.003 0.7213,0.1089 1.25096,0.33802 -0.88277,0.39384 -1.5857,0.60757 -2.10857,0.64155 -0.0816,0 -0.13905,-0.0171 -0.17302,-0.051 0.2173,-0.48893 0.472,-0.78412 0.76399,-0.88597 0.0763,-0.0272 0.16521,-0.0412 0.26664,-0.0425 z m -11.63152,2.30142 c -0.0253,1e-5 -0.0432,0.007 -0.0534,0.0226 l -0.49925,0.74368 c -0.0204,0.0206 -0.0135,0.0405 0.0204,0.0611 0.2173,0.129 0.3838,0.23119 0.49924,0.30586 0.1155,0.0747 0.18655,0.12195 0.21369,0.14235 0.0477,0.0406 0.0813,0.0444 0.10155,0.0105 l 0.47893,-0.7744 c 0.0204,-0.0272 0.0171,-0.0541 -0.009,-0.0814 -0.21049,-0.19014 -0.45171,-0.33279 -0.72334,-0.42786 -0.0105,-0.001 -0.0194,-0.003 -0.0279,-0.003 z m -14.81042,0.23403 c -0.0255,1e-5 -0.0433,0.009 -0.0534,0.0231 l -0.32574,0.48883 c -0.0815,-0.0612 -0.170158,-0.1191 -0.265224,-0.17349 -0.08827,-0.0545 -0.183221,-0.0984 -0.28508,-0.13245 -0.03395,-0.006 -0.05781,-4e-5 -0.07139,0.0204 l -0.448185,0.67227 c -0.02039,0.0205 -0.01677,0.0375 0.01035,0.051 0.190134,0.1155 0.335924,0.20724 0.437782,0.27514 0.10866,0.0679 0.176605,0.11205 0.203765,0.13245 0.04074,0.0339 0.07134,0.0371 0.09171,0.009 l 0.346542,-0.53943 c 0.15618,0.0883 0.27498,0.15579 0.35647,0.2033 0.0883,0.0545 0.14226,0.0916 0.16263,0.11205 0.0407,0.0339 0.0682,0.0411 0.0818,0.0208 l 0.43779,-0.703 c 0.0204,-0.0272 0.0172,-0.0542 -0.0101,-0.0815 -0.0951,-0.0816 -0.19724,-0.15306 -0.30589,-0.21416 -0.10865,-0.0612 -0.22069,-0.11565 -0.33613,-0.16312 -0.0102,-0.001 -0.0194,-0.003 -0.0279,-0.003 z m 27.95008,0.0405 c -0.0254,1e-5 -0.0432,0.009 -0.0534,0.0231 l -0.49923,0.74365 c -0.0206,0.0205 -0.0135,0.0405 0.0204,0.061 0.21732,0.129 0.38382,0.23073 0.49926,0.30541 0.11549,0.0746 0.18655,0.1224 0.2137,0.1428 0.0477,0.0406 0.0819,0.0439 0.10215,0.009 l 0.47845,-0.77392 c 0.0204,-0.0272 0.0171,-0.0548 -0.009,-0.0819 -0.21052,-0.19015 -0.45175,-0.33232 -0.72335,-0.42741 -0.0105,-10e-4 -0.0194,-0.003 -0.0279,-0.003 z m -24.45302,2.61726 c -0.0293,3.2e-4 -0.0721,0.0182 -0.12812,0.054 l -1.91472,1.18192 c -0.10866,0.0882 -0.1631,0.15936 -0.1631,0.21369 v 0.1527 c 0,0.1155 0.0545,0.14295 0.1631,0.0819 l 1.78234,-1.02874 c 0.11544,-0.0679 0.18339,-0.1395 0.20376,-0.21417 l 0.0917,-0.29548 c 0.0255,-0.0977 0.0138,-0.1461 -0.035,-0.1455 z m 4.29842,0 c -0.0292,3.2e-4 -0.0721,0.0182 -0.12811,0.054 l -1.91472,1.18192 c -0.10864,0.0882 -0.1631,0.15936 -0.1631,0.21369 v 0.1527 c 0,0.1155 0.0545,0.14295 0.1631,0.0819 l 1.78234,-1.02874 c 0.11544,-0.0679 0.18339,-0.1395 0.20377,-0.21417 l 0.0918,-0.29548 c 0.0254,-0.0977 0.0138,-0.1461 -0.035,-0.1455 z m 21.23723,0 c -0.0293,3.2e-4 -0.0717,0.0182 -0.12765,0.054 l -1.91518,1.18192 c -0.10874,0.0882 -0.16312,0.15936 -0.16312,0.21369 v 0.1527 c 0,0.1155 0.0544,0.14295 0.16312,0.0819 l 1.78281,-1.02874 c 0.1155,-0.0679 0.18291,-0.1395 0.20329,-0.21417 l 0.0917,-0.29548 c 0.0254,-0.0977 0.0135,-0.1461 -0.035,-0.1455 z" />
      <g
         id="g4836"
         transform="matrix(0.9148634,0,0,0.9148634,17.906315,25.46311)"
         style="stroke-width:1.3917">
        <path
           id="path4706"
           style="color:#000000;fill:#0e9948;fill-opacity:1;stroke-width:1.3917"
           d="m 68.70773,120.20766 c -0.146795,0 -0.29109,0.0127 -0.433566,0.0367 -1.853946,0.15836 -3.509742,1.32331 -4.71289,3.08612 -1.177882,1.7258 -1.937156,4.03213 -2.066024,6.59081 l 7.21248,-2.24792 7.212996,2.24792 c -0.12918,-2.55868 -0.890209,-4.86501 -2.068091,-6.59081 -1.203002,-1.7626 -2.856872,-2.92754 -4.710307,-3.08612 -0.142636,-0.024 -0.287631,-0.0367 -0.434598,-0.0367 z" />
        <path
           id="path4708"
           style="font-variation-settings:normal;fill:#ffffff;fill-opacity:1;stroke:none;stroke-width:0.736441;stroke-linecap:butt;stroke-linejoin:miter;stroke-miterlimit:4;stroke-dasharray:none;stroke-dashoffset:0;stroke-opacity:1;stop-color:#000000"
           d="m 68.70795,116.80579 -0.183968,1.43764 v 1.21439 l -0.255799,0.30334 v 0.4837 c -1.851334,0.16029 -3.503259,1.32465 -4.705139,3.08559 -1.177883,1.72581 -1.938918,4.03212 -2.06809,6.59082 0.151862,-2.38292 1.583482,-5.39604 2.392102,-6.35569 0.757617,-0.89913 1.565674,-1.66799 2.440161,-2.16266 -0.476765,0.51707 -0.90262,1.18195 -1.266073,1.95337 -0.739272,1.56908 -1.237165,3.61048 -1.387512,5.88595 0.1593,-2.13236 1.347245,-4.76447 1.738395,-5.53403 0.680658,-1.33917 1.572965,-2.4116 2.434994,-2.78536 -0.04387,0.0812 -0.08617,0.1681 -0.127641,0.26148 -0.243941,0.54928 -0.451066,1.3122 -0.626835,2.24793 -0.250559,1.33388 -0.430554,3.0205 -0.513664,4.90461 0.125408,-2.15842 1.074877,-6.04658 1.624707,-6.93756 0.107458,-0.24196 0.218122,-0.42053 0.312642,-0.52349 0.09452,-0.10296 0.15449,-0.12144 0.19172,-0.12144 0.03723,0 0.0972,0.0185 0.191719,0.12144 0.09452,0.10296 0.205185,0.28153 0.312643,0.52349 0.549827,0.89098 1.499299,4.77914 1.624707,6.93756 -0.08311,-1.88411 -0.263104,-3.57073 -0.513664,-4.90461 -0.175771,-0.93573 -0.382894,-1.69865 -0.626835,-2.24793 -0.04147,-0.0934 -0.08377,-0.18023 -0.127641,-0.26148 0.862027,0.37376 1.754334,1.44619 2.434994,2.78536 0.391148,0.76956 1.579095,3.40167 1.738395,5.53403 -0.150347,-2.27547 -0.648239,-4.31687 -1.387512,-5.88595 -0.363452,-0.77142 -0.789308,-1.4363 -1.266073,-1.95337 0.874487,0.49467 1.682545,1.26353 2.440161,2.16266 0.808618,0.95965 2.240238,3.97277 2.392102,6.35569 -0.129174,-2.5587 -0.890206,-4.86501 -2.068091,-6.59082 -1.201875,-1.76094 -2.853809,-2.9253 -4.705139,-3.08559 v -0.4837 l -0.255798,-0.30334 v -1.21439 z m 0,11.41067 -9.848494,3.06958 v 1.53531 l 9.848494,-3.0701 9.848494,3.0701 v -1.53531 z" />
        <path
           id="path4714"
           style="font-variation-settings:normal;fill:#0e9948;fill-opacity:1;stroke:none;stroke-width:0.736441;stroke-linecap:butt;stroke-linejoin:miter;stroke-miterlimit:4;stroke-dasharray:none;stroke-dashoffset:0;stroke-opacity:1;stop-color:#000000"
           d="m 68.70795,128.83451 -9.306925,2.9006 v 0.29972 l 9.306925,-2.90111 9.306408,2.90111 v -0.29972 z m 0,1.44746 -9.848494,3.06958 h 3.694864 a 9.7924366,4.0735264 0 0 1 6.15363,-0.90744 9.7924366,4.0735264 0 0 1 6.160864,0.90744 h 3.68763 z" />
      </g>
      <path
         id="path4838"
         style="font-size:5.31016px;font-family:'Amiri Quran';-inkscape-font-specification:'Amiri Quran, Normal';letter-spacing:0.79375px;fill:#ffffff;stroke-width:0.673744"
         d="m 123.03683,151.87912 c -0.20726,0 -0.40499,0.0419 -0.59283,0.12615 -0.1846,0.081 -0.34777,0.19567 -0.49027,0.34464 -0.1392,0.14565 -0.2495,0.31579 -0.33047,0.51013 -0.081,0.19431 -0.1215,0.40341 -0.1215,0.62689 0,0.23319 0.0403,0.4487 0.1215,0.64627 0.081,0.19431 0.19121,0.36438 0.33047,0.51012 0.1425,0.1425 0.30567,0.25226 0.49027,0.33 0.18784,0.0777 0.38557,0.11685 0.59283,0.11685 0.21054,0 0.40825,-0.0405 0.59287,-0.1215 0.18784,-0.0841 0.35296,-0.19893 0.49548,-0.34467 0.1425,-0.14895 0.2542,-0.31902 0.33517,-0.5101 0.0841,-0.19434 0.1263,-0.40342 0.1263,-0.62689 0,-0.23643 -0.042,-0.45196 -0.1263,-0.64629 -0.081,-0.19755 -0.19267,-0.36762 -0.33517,-0.51013 -0.1425,-0.14565 -0.30764,-0.25745 -0.49548,-0.33517 -0.18462,-0.0777 -0.38233,-0.1164 -0.59287,-0.1164 z m 7.37899,0 c -0.20727,0 -0.405,0.0419 -0.59285,0.12615 -0.18462,0.081 -0.34823,0.19567 -0.49073,0.34464 -0.1392,0.14565 -0.24902,0.31579 -0.33,0.51013 -0.081,0.19431 -0.1215,0.40341 -0.1215,0.62689 0,0.26234 0.0498,0.50208 0.15034,0.71908 0.10035,0.21375 0.23831,0.39321 0.41319,0.53895 0.17491,0.1425 0.37216,0.24137 0.59239,0.29643 0.15545,0.0388 0.29634,0.0937 0.42266,0.16498 0.12945,0.0714 0.25262,0.14295 0.36922,0.21419 0.1167,0.0744 0.23176,0.13725 0.34513,0.1891 0.1167,0.0519 0.23819,0.0782 0.3645,0.0782 0.14565,0 0.27973,-0.0243 0.40281,-0.0729 0.12645,-0.0455 0.25432,-0.10215 0.38389,-0.1702 0,-0.006 -9.3e-4,-0.012 -0.005,-0.015 -0.006,-0.009 -0.0198,-0.0177 -0.0393,-0.0241 -0.0162,-0.006 -0.0319,-0.009 -0.0483,-0.009 -0.0162,0.003 -0.0537,0.007 -0.11205,0.015 -0.0552,0.009 -0.12915,0.015 -0.22314,0.015 -0.12315,0 -0.22687,-0.012 -0.31108,-0.0341 -0.081,-0.0195 -0.15561,-0.0486 -0.2236,-0.0874 -0.0679,-0.0356 -0.1407,-0.0776 -0.21843,-0.1263 -0.0777,-0.0486 -0.17315,-0.1005 -0.2865,-0.15555 0.21052,-0.0679 0.39837,-0.17629 0.56355,-0.32526 0.1684,-0.14895 0.30091,-0.32742 0.39806,-0.53472 0.0972,-0.20726 0.14565,-0.4322 0.14565,-0.67511 0,-0.23642 -0.042,-0.45196 -0.1263,-0.64626 -0.081,-0.19756 -0.19267,-0.36762 -0.33518,-0.51013 -0.1425,-0.14565 -0.30762,-0.25746 -0.49547,-0.33519 -0.1846,-0.0777 -0.38233,-0.1164 -0.59285,-0.1164 z m -3.63606,0.005 c -0.1587,0 -0.309,0.034 -0.4515,0.10215 -0.1425,0.0679 -0.25917,0.16491 -0.34984,0.29122 -0.0875,0.12315 -0.1314,0.26889 -0.1314,0.43731 0,0.1587 0.0439,0.29661 0.1314,0.4132 0.0875,0.1167 0.19422,0.21845 0.32053,0.30588 0.12945,0.0841 0.25414,0.16184 0.37396,0.23307 0.1101,0.0617 0.21243,0.11985 0.30635,0.17492 0.0972,0.0552 0.17476,0.1197 0.2331,0.19432 0.0615,0.0744 0.0921,0.17829 0.0921,0.31107 0,0.18462 -0.0567,0.32848 -0.17019,0.43212 -0.1134,0.10035 -0.24587,0.15082 -0.39809,0.15082 -0.1425,0 -0.26262,-0.0277 -0.35977,-0.0828 -0.0939,-0.0582 -0.17154,-0.12945 -0.23308,-0.21369 -0.0582,-0.0841 -0.10365,-0.16527 -0.13605,-0.243 -0.0292,-0.081 -0.0484,-0.1443 -0.0582,-0.1896 -0.006,-0.0293 -0.0243,-0.0435 -0.0534,-0.0435 -0.0226,0 -0.0455,0.006 -0.0679,0.0194 -0.0194,0.009 -0.0372,0.0225 -0.0534,0.0388 0,0.0194 0.003,0.0697 0.009,0.15081 0.009,0.081 0.0211,0.1749 0.034,0.28178 0.0162,0.10695 0.0339,0.20722 0.0534,0.30115 0.1167,0.0226 0.2476,0.0519 0.39334,0.0874 0.14895,0.0356 0.30273,0.0534 0.46143,0.0534 0.16842,0 0.3271,-0.0356 0.47608,-0.10695 0.15222,-0.0745 0.27531,-0.1768 0.36924,-0.30636 0.0972,-0.13275 0.1461,-0.28456 0.1461,-0.45621 0,-0.11669 -0.0276,-0.2204 -0.0828,-0.31108 -0.0552,-0.0939 -0.12615,-0.17647 -0.21367,-0.24774 -0.0875,-0.0714 -0.17841,-0.1359 -0.27233,-0.19432 -0.0939,-0.0582 -0.17946,-0.1116 -0.25719,-0.16025 -0.10365,-0.068 -0.20743,-0.13485 -0.31108,-0.19951 -0.1005,-0.0648 -0.18444,-0.1389 -0.25245,-0.22314 -0.0648,-0.0842 -0.0974,-0.18951 -0.0974,-0.31582 0,-0.0777 0.0164,-0.15732 0.0486,-0.23828 0.0324,-0.081 0.0858,-0.14865 0.16028,-0.20376 0.0744,-0.0552 0.1768,-0.0828 0.30637,-0.0828 0.10035,0 0.18937,0.0243 0.2671,0.0729 0.081,0.0454 0.14865,0.10365 0.20376,0.17492 0.0582,0.0714 0.1038,0.1458 0.13605,0.22362 0.0324,0.0777 0.0517,0.14535 0.058,0.20376 0.0135,0.0135 0.0306,0.0193 0.0534,0.0193 0.0162,0 0.0375,-0.003 0.0633,-0.009 0.0258,-0.009 0.037,-0.0225 0.034,-0.0388 -0.003,-0.0648 -0.012,-0.16215 -0.0246,-0.29169 -0.009,-0.1329 -0.024,-0.26081 -0.0435,-0.38389 -0.10365,-0.0258 -0.19114,-0.0485 -0.26239,-0.0679 -0.0678,-0.0195 -0.1362,-0.0338 -0.20424,-0.0435 -0.0648,-0.0135 -0.1473,-0.0194 -0.24773,-0.0194 z m -16.84192,0.004 c -0.006,0.0135 -0.0117,0.0323 -0.0145,0.0581 -0.004,0.0258 0.002,0.0521 0.0145,0.078 0.0194,0 0.0566,0.003 0.11157,0.009 0.0551,0.006 0.10844,0.0178 0.16027,0.034 0.0551,0.0135 0.0877,0.0293 0.0974,0.0486 0.0229,0.0355 0.0357,0.076 0.0388,0.1215 0.006,0.0454 0.01,0.1131 0.01,0.20376 v 2.05985 c 0,0.0907 -0.003,0.15891 -0.01,0.20425 -0.003,0.042 -0.0161,0.0811 -0.0388,0.11685 -0.01,0.0193 -0.0424,0.0372 -0.0974,0.0534 -0.0518,0.0135 -0.10522,0.0243 -0.16027,0.0341 -0.055,0.006 -0.0921,0.009 -0.11157,0.009 -0.0127,0.0258 -0.0178,0.0521 -0.0145,0.078 0.004,0.0258 0.008,0.0452 0.0145,0.0581 0.0745,-0.003 0.13427,-0.007 0.17967,-0.009 0.0485,-0.003 0.097,-0.006 0.14561,-0.009 0.0518,-0.003 0.1136,-0.005 0.18486,-0.005 0.10363,0 0.1956,0.003 0.27656,0.009 0.081,0.003 0.16847,0.007 0.2624,0.015 0.006,-0.0162 0.01,-0.0385 0.01,-0.0675 0,-0.0292 -0.006,-0.0519 -0.0194,-0.0679 -0.0258,0 -0.0664,-0.005 -0.12151,-0.015 -0.0518,-0.009 -0.10226,-0.0211 -0.15081,-0.034 -0.0453,-0.0162 -0.073,-0.0324 -0.0828,-0.0486 -0.0227,-0.039 -0.0371,-0.0809 -0.0434,-0.1263 -0.003,-0.0486 -0.004,-0.1149 -0.004,-0.19903 v -2.15725 l 2.06977,2.61395 c 0.0356,0.042 0.0678,0.0714 0.097,0.0875 0.0324,0.0162 0.0552,0.0241 0.068,0.0241 0.006,0 0.0178,-10e-4 0.034,-0.005 0.0164,-0.003 0.0263,-0.012 0.0292,-0.0241 -0.003,-0.0841 -0.007,-0.15688 -0.01,-0.21843 v -0.1995 -0.23781 -1.92888 c 0,-0.0907 0.002,-0.15846 0.004,-0.20376 0.004,-0.0455 0.0161,-0.0859 0.0388,-0.1215 0.0131,-0.0195 0.0456,-0.0357 0.0974,-0.0486 0.0518,-0.0162 0.10523,-0.0276 0.16027,-0.034 0.0583,-0.006 0.0968,-0.009 0.1163,-0.009 0.0127,-0.0258 0.0178,-0.0521 0.0145,-0.078 -0.004,-0.0258 -0.008,-0.0452 -0.0145,-0.0581 -0.0713,0.003 -0.13254,0.006 -0.18438,0.009 -0.0485,0.003 -0.097,0.007 -0.14562,0.009 h -0.18013 c -0.10362,0 -0.19755,-0.001 -0.28176,-0.004 -0.081,-0.006 -0.168,-0.012 -0.26192,-0.015 -0.004,0.0135 -0.007,0.0357 -0.01,0.0679 0,0.0293 0.006,0.0517 0.0194,0.068 0.0258,0 0.065,0.004 0.11676,0.015 0.0551,0.006 0.10695,0.0179 0.15556,0.0341 0.0485,0.0135 0.0778,0.0273 0.0874,0.0435 0.0261,0.0388 0.0405,0.0827 0.0434,0.1314 0.003,0.0485 0.004,0.1149 0.004,0.19902 v 1.79747 c -0.10362,-0.14565 -0.22674,-0.30741 -0.36924,-0.48555 -0.1425,-0.18135 -0.28981,-0.36474 -0.44204,-0.54934 -0.15222,-0.1846 -0.29954,-0.36258 -0.44204,-0.53424 -0.14251,-0.17488 -0.26755,-0.33012 -0.37443,-0.46614 -0.10686,-0.1359 -0.18446,-0.24131 -0.23308,-0.3158 -0.0324,0.003 -0.0828,0.005 -0.1508,0.005 h -0.20851 v -9.2e-4 c -0.0778,0 -0.1504,-9.1e-4 -0.21841,-0.004 -0.0679,-0.006 -0.15699,-0.012 -0.26711,-0.015 z m 29.40242,0.006 c -0.25585,0 -0.51833,0.005 -0.78715,0.015 -0.2688,0.009 -0.51499,0.015 -0.73846,0.015 l -4.6e-4,-9.1e-4 c -0.0907,0 -0.18267,-0.001 -0.27657,-0.005 -0.0939,-0.006 -0.18983,-0.012 -0.28698,-0.015 -0.0135,0.0135 -0.0195,0.0357 -0.0195,0.068 0.003,0.0324 0.009,0.0552 0.0195,0.0679 0.0194,0 0.055,0.003 0.10695,0.009 0.0517,0.003 0.10065,0.009 0.1461,0.0194 0.0487,0.009 0.0744,0.0245 0.0774,0.0439 0.0135,0.039 0.0194,0.0909 0.0194,0.15554 0.003,0.0617 0.005,0.1278 0.005,0.19905 v 2.0258 c 0,0.0712 -0.001,0.1374 -0.005,0.19905 0,0.0617 -0.006,0.1119 -0.0194,0.15081 -0.003,0.0162 -0.0291,0.0306 -0.0774,0.0435 -0.0453,0.0135 -0.0942,0.0228 -0.1461,0.0292 -0.0517,0.003 -0.0873,0.005 -0.10695,0.005 -0.009,0.0135 -0.0164,0.0357 -0.0195,0.0679 0,0.0324 0.006,0.0552 0.0195,0.0679 0.0939,0 0.18486,-0.003 0.27231,-0.009 0.0874,-0.003 0.1863,-0.005 0.29643,-0.005 0.31738,0 0.60215,0.003 0.85477,0.009 0.25263,0.006 0.50719,0.009 0.76304,0.009 0.0162,-0.10365 0.0498,-0.22823 0.10155,-0.37398 0.0552,-0.14565 0.1056,-0.28317 0.15081,-0.41273 -0.0194,-0.0195 -0.0585,-0.0292 -0.11685,-0.0292 -0.039,0 -0.0616,0.009 -0.0679,0.0292 -0.039,0.10035 -0.0789,0.19434 -0.12105,0.28178 -0.042,0.0841 -0.1005,0.14895 -0.17491,0.19431 -0.0648,0.042 -0.15228,0.0743 -0.26239,0.097 -0.1101,0.0226 -0.22184,0.0341 -0.33519,0.0341 h -0.22836 c -0.1005,0 -0.17507,-9.2e-4 -0.22361,-0.005 -0.0455,-0.006 -0.0843,-0.0213 -0.11685,-0.0439 -0.0135,-0.009 -0.0212,-0.0503 -0.0242,-0.1215 v -0.17493 -0.0293 -0.90346 c 0,-0.0163 0.0194,-0.0263 0.0582,-0.0292 0.039,-0.006 0.0843,-0.009 0.13605,-0.009 0.0552,-0.003 0.1035,-0.004 0.1455,-0.004 0.0616,0 0.1263,0.001 0.19433,0.004 0.0712,0 0.1359,0.003 0.19431,0.009 0.0582,0.003 0.0957,0.012 0.11205,0.0246 0.0162,0.009 0.0293,0.0225 0.0388,0.0388 0.0135,0.0135 0.0258,0.0405 0.0389,0.0825 0.0162,0.039 0.036,0.10365 0.0585,0.19431 0.009,0.0226 0.0339,0.0341 0.0729,0.0341 0.039,0 0.0647,-0.006 0.0774,-0.0195 v -0.894 c -0.0162,-0.0162 -0.0435,-0.0241 -0.0824,-0.0241 -0.0423,0 -0.0651,0.012 -0.0679,0.0341 -0.0195,0.0777 -0.0372,0.13905 -0.0534,0.18438 -0.0162,0.0453 -0.039,0.0794 -0.068,0.10215 -0.0292,0.0226 -0.076,0.0375 -0.14085,0.0439 -0.0615,0.006 -0.1491,0.009 -0.26238,0.009 h -0.24774 c -0.0519,0 -0.0988,-0.001 -0.14085,-0.005 -0.042,-0.003 -0.0628,-0.012 -0.0628,-0.0241 v -0.8841 -0.0534 -0.16027 c 0.003,-0.0517 0.009,-0.0939 0.0194,-0.1263 0.006,-0.0162 0.0321,-0.0276 0.0774,-0.0341 0.0453,-0.006 0.0937,-0.009 0.1455,-0.009 0.0517,-0.003 0.0874,-0.005 0.10695,-0.005 h 0.40846 c 0.12645,0 0.23607,0.0263 0.33,0.0781 0.0939,0.0517 0.16705,0.17343 0.21889,0.3645 0.003,0.0226 0.0255,0.034 0.0675,0.034 0.039,0 0.0665,-0.009 0.0828,-0.0246 -0.0225,-0.10695 -0.0469,-0.21069 -0.0729,-0.3111 -0.0258,-0.1002 -0.0468,-0.21015 -0.0628,-0.32998 z m -65.373026,0.005 c -0.02267,0 -0.05678,0.0164 -0.102119,0.0486 -0.04211,0.0324 -0.06978,0.0617 -0.08272,0.0875 -0.04857,0.123 -0.10542,0.26545 -0.170197,0.42738 -0.06154,0.16194 -0.126284,0.33201 -0.194307,0.51013 -0.06801,0.1749 -0.13575,0.34642 -0.203765,0.51484 -0.06477,0.16518 -0.123105,0.31595 -0.174923,0.45198 -0.05182,0.1359 -0.09386,0.24429 -0.12624,0.32526 l -0.04397,0.11685 v -9.2e-4 c -0.03239,0.0841 -0.06649,0.16527 -0.102119,0.243 -0.03239,0.0744 -0.07245,0.14235 -0.121035,0.20376 -0.02266,0.0324 -0.06961,0.057 -0.140879,0.0733 -0.06801,0.0135 -0.116939,0.0194 -0.146084,0.0194 -0.0065,0.0162 -0.0095,0.0419 -0.0095,0.0774 0,0.0324 0.003,0.0517 0.0095,0.0581 0.07449,-0.003 0.136274,-0.006 0.184853,-0.009 0.04857,-0.003 0.09703,-0.007 0.145604,-0.009 0.04858,-0.003 0.108405,-0.005 0.179653,-0.005 0.07125,0 0.128084,9.2e-4 0.170197,0.005 0.04534,0.003 0.08884,0.007 0.130949,0.009 0.04535,0.003 0.09873,0.006 0.160268,0.009 0.0065,-0.0162 0.0084,-0.0404 0.0051,-0.0729 -0.0033,-0.0357 -0.0081,-0.0566 -0.01455,-0.0628 -0.01305,0 -0.04706,-0.003 -0.102119,-0.009 -0.05182,-0.006 -0.103725,-0.0194 -0.155542,-0.0388 -0.04857,-0.0226 -0.07281,-0.0519 -0.07281,-0.0874 0,-0.0324 0.0036,-0.0764 0.01005,-0.1314 0.0097,-0.0552 0.02901,-0.12285 0.05814,-0.20374 0.02591,-0.0777 0.05506,-0.16029 0.08746,-0.24774 0.03562,-0.0907 0.06479,-0.16878 0.08746,-0.23355 l 0.03876,-0.0971 0.01005,-0.004 c 0.0065,-0.006 0.0114,-0.009 0.01455,-0.009 0.106874,-0.006 0.193899,-0.009 0.261912,-0.009 0.06801,-0.003 0.150569,-0.005 0.247733,-0.005 h 0.04397 0.0487 0.199036 c 0.07126,0 0.131069,9.2e-4 0.179653,0.005 0.0065,0 0.01305,0.003 0.01939,0.009 l 0.01005,0.009 0.02931,0.0827 c 0.02268,0.0517 0.04988,0.12 0.08227,0.20425 0.03239,0.081 0.06501,0.165 0.09739,0.25245 0.03238,0.0875 0.05811,0.16656 0.07753,0.23781 0.02268,0.068 0.03405,0.117 0.03405,0.1461 0,0.0324 -0.0063,0.0547 -0.01939,0.0675 -0.02267,0.0195 -0.0647,0.0359 -0.126239,0.0486 -0.06155,0.009 -0.10701,0.015 -0.136155,0.015 -0.01305,0.0135 -0.02088,0.0357 -0.02412,0.0679 0,0.0324 0.0063,0.0552 0.0194,0.0679 0.110115,-0.006 0.20059,-0.012 0.271842,-0.015 0.07449,-0.006 0.166927,-0.009 0.277043,-0.009 0.103635,0 0.192623,0.003 0.267113,0.009 0.07449,0.003 0.158537,0.009 0.252459,0.015 0.0033,-0.006 0.0066,-0.0263 0.01005,-0.0585 0.0033,-0.0356 -0.0016,-0.0614 -0.01455,-0.0774 -0.01305,0 -0.04362,-0.005 -0.09219,-0.015 -0.04534,-0.0135 -0.09229,-0.0321 -0.140895,-0.0581 -0.04534,-0.0258 -0.07599,-0.0565 -0.09219,-0.0921 -0.0097,-0.0194 -0.05026,-0.1233 -0.1215,-0.31108 l -0.966813,-2.53593 c -0.0065,-0.003 -0.0114,-0.004 -0.01455,-0.004 0,-0.003 -0.003,-0.005 -0.0095,-0.005 z m 15.331419,0 c -0.0033,0.0135 -0.0066,0.0357 -0.01005,0.0679 0,0.0293 0.0069,0.0519 0.01986,0.0679 0.0259,0 0.063,0.005 0.11157,0.015 0.05182,0.006 0.100274,0.0179 0.145604,0.0341 0.04535,0.0135 0.07302,0.0273 0.08273,0.0435 0.02592,0.039 0.04026,0.0827 0.04348,0.1314 0.0033,0.0486 0.0051,0.1149 0.0051,0.19905 v 1.28261 c -0.0033,0.27206 -0.0487,0.48412 -0.136154,0.63634 -0.08421,0.14895 -0.19444,0.25428 -0.330466,0.31583 -0.136035,0.0617 -0.286793,0.0921 -0.451966,0.0921 -0.285006,0 -0.501548,-0.0906 -0.650531,-0.27183 -0.07449,-0.0939 -0.132824,-0.21404 -0.174924,-0.35979 -0.03887,-0.14565 -0.05862,-0.31728 -0.05862,-0.51483 v -1.17059 -0.1995 c 0.0033,-0.0648 0.0117,-0.11625 0.02459,-0.15507 0.0065,-0.0195 0.03219,-0.0343 0.07753,-0.0439 0.04534,-0.009 0.0923,-0.0163 0.14088,-0.0194 0.05183,-0.006 0.08742,-0.009 0.106844,-0.009 0.0097,-0.0135 0.01455,-0.0351 0.01455,-0.0675 0.0033,-0.0324 -0.0016,-0.0552 -0.01455,-0.0679 -0.09715,0.003 -0.191084,0.007 -0.281769,0.015 -0.08743,0.003 -0.177919,0.005 -0.271841,0.005 -0.09067,0 -0.18312,-0.001 -0.277044,-0.005 -0.09067,-0.006 -0.184607,-0.012 -0.281769,-0.015 -0.01305,0.0135 -0.01938,0.0357 -0.01938,0.0679 0.0033,0.0324 0.0096,0.0552 0.01938,0.0679 0.01944,0 0.05355,0.003 0.10212,0.009 0.05182,0.003 0.100274,0.009 0.145619,0.0194 0.04857,0.009 0.07476,0.0245 0.07801,0.0439 0.01305,0.039 0.01938,0.0909 0.01938,0.15556 0.0033,0.0615 0.0046,0.1278 0.0046,0.19902 v 1.38474 c 0,0.18786 0.03066,0.35791 0.09217,0.51013 0.06155,0.15222 0.147539,0.27978 0.257658,0.38341 0.10365,0.1002 0.22822,0.17847 0.37396,0.23354 0.14574,0.0552 0.302939,0.0824 0.471351,0.0824 0.246143,0 0.461196,-0.045 0.645802,-0.13575 0.187846,-0.0908 0.333672,-0.23354 0.437311,-0.42786 0.103635,-0.19757 0.15554,-0.45313 0.15554,-0.76729 v -1.27791 c 0,-0.0908 0.0015,-0.15844 0.0046,-0.20376 0.0065,-0.0453 0.0213,-0.0859 0.04397,-0.1215 0.01305,-0.0195 0.04509,-0.0358 0.09692,-0.0487 0.05182,-0.0162 0.105209,-0.0276 0.160269,-0.0341 0.05505,-0.006 0.09261,-0.009 0.11205,-0.009 0.01305,-0.0258 0.01789,-0.0516 0.01455,-0.0775 -0.0033,-0.0258 -0.0081,-0.0452 -0.01455,-0.0581 -0.07126,0.003 -0.133035,0.006 -0.184852,0.009 -0.04858,0.003 -0.09703,0.008 -0.145619,0.009 h -0.179651 c -0.10365,0 -0.194585,-0.001 -0.272313,-0.005 -0.07449,-0.006 -0.158538,-0.012 -0.252461,-0.015 z m 5.557396,0 c -0.02267,0 -0.05678,0.0164 -0.10212,0.0486 -0.04211,0.0324 -0.06932,0.0617 -0.08227,0.0875 -0.04859,0.123 -0.10542,0.26545 -0.170196,0.42738 -0.06154,0.16194 -0.126299,0.33201 -0.194309,0.51013 -0.06801,0.1749 -0.136214,0.34642 -0.204236,0.51484 -0.06478,0.16518 -0.123104,0.31595 -0.174924,0.45198 -0.05182,0.1359 -0.09384,0.24429 -0.12624,0.32526 l -0.04349,0.11685 v -9.2e-4 c -0.03238,0.0841 -0.06649,0.16527 -0.102119,0.243 -0.03239,0.0744 -0.07293,0.14235 -0.1215,0.20376 -0.02266,0.0324 -0.06963,0.057 -0.140879,0.0733 -0.06801,0.0135 -0.116474,0.0194 -0.145604,0.0194 -0.0065,0.0162 -0.01005,0.0419 -0.01005,0.0774 0,0.0324 0.0036,0.0517 0.01005,0.0581 0.07449,-0.003 0.135809,-0.006 0.184379,-0.009 0.04857,-0.003 0.0975,-0.007 0.146084,-0.009 0.04857,-0.003 0.108405,-0.005 0.179651,-0.005 0.07126,0 0.12762,9.2e-4 0.169726,0.005 0.04534,0.003 0.08933,0.007 0.131429,0.009 0.04534,0.003 0.09873,0.006 0.160269,0.009 0.0065,-0.0162 0.0079,-0.0404 0.0046,-0.0729 -0.0033,-0.0357 -0.0081,-0.0566 -0.01455,-0.0628 -0.01305,0 -0.04659,-0.003 -0.10164,-0.009 -0.05182,-0.006 -0.103724,-0.0194 -0.155542,-0.0388 -0.04857,-0.0226 -0.07281,-0.0519 -0.07281,-0.0874 0,-0.0324 0.0031,-0.0764 0.0094,-0.1314 0.0098,-0.0552 0.02901,-0.12285 0.05814,-0.20374 0.0259,-0.0777 0.05508,-0.16029 0.08746,-0.24774 0.03562,-0.0907 0.06479,-0.16878 0.08746,-0.23355 l 0.03924,-0.0971 0.0095,-0.004 c 0.0065,-0.006 0.0114,-0.009 0.01455,-0.009 0.106875,-0.006 0.194375,-0.009 0.262388,-0.009 0.06801,-0.003 0.150569,-0.005 0.24773,-0.005 h 0.0435 0.04869 0.199034 c 0.07126,0 0.13155,9.2e-4 0.180126,0.005 0.0065,0 0.01305,0.003 0.01938,0.009 l 0.0094,0.009 0.02931,0.0827 c 0.02267,0.0517 0.05034,0.12 0.08273,0.20425 0.03238,0.081 0.06453,0.165 0.09691,0.25245 0.03238,0.0875 0.05857,0.16656 0.07801,0.23781 0.02267,0.068 0.03405,0.117 0.03405,0.1461 0,0.0324 -0.0069,0.0547 -0.01986,0.0675 -0.02267,0.0195 -0.0647,0.0359 -0.126239,0.0486 -0.06154,0.009 -0.10653,0.015 -0.13569,0.015 -0.01305,0.0135 -0.02136,0.0357 -0.02459,0.0679 0,0.0324 0.0063,0.0552 0.01938,0.0679 0.110115,-0.006 0.201064,-0.012 0.272317,-0.015 0.07449,-0.006 0.166452,-0.009 0.276568,-0.009 0.10365,0 0.193097,0.003 0.267588,0.009 0.07449,0.003 0.158536,0.009 0.252458,0.015 0.0033,-0.006 0.0061,-0.0263 0.0095,-0.0585 0.0033,-0.0356 -0.0012,-0.0614 -0.0141,-0.0774 -0.01305,0 -0.0441,-0.005 -0.09267,-0.015 -0.04535,-0.0135 -0.0923,-0.0321 -0.14088,-0.0581 -0.04534,-0.0258 -0.07599,-0.0565 -0.09219,-0.0921 -0.0098,-0.0194 -0.05027,-0.1233 -0.1215,-0.31108 l -0.966811,-2.53593 c -0.0065,-0.003 -0.01095,-0.004 -0.0141,-0.004 0,-0.003 -0.0036,-0.005 -0.01005,-0.005 z m 40.333331,0 c -0.003,0.0135 -0.007,0.0357 -0.009,0.0679 0,0.0293 0.006,0.0519 0.0193,0.0679 0.0258,0 0.063,0.005 0.11145,0.015 0.0519,0.006 0.10065,0.0179 0.1461,0.0341 0.0455,0.0135 0.0726,0.0273 0.0823,0.0435 0.0261,0.039 0.0408,0.0827 0.044,0.1314 0.003,0.0486 0.004,0.1149 0.004,0.19905 v 1.28261 c -0.003,0.27206 -0.0486,0.48412 -0.13605,0.63634 -0.0841,0.14895 -0.19443,0.25428 -0.33047,0.31583 -0.1359,0.0617 -0.28681,0.0921 -0.45197,0.0921 -0.285,0 -0.50154,-0.0906 -0.65052,-0.27183 -0.0744,-0.0939 -0.1329,-0.21404 -0.17493,-0.35979 -0.039,-0.14565 -0.0585,-0.31728 -0.0585,-0.51483 v -1.17059 -0.1995 c 0.003,-0.0648 0.012,-0.11625 0.0246,-0.15507 0.006,-0.0195 0.0323,-0.0343 0.0774,-0.0439 0.0453,-0.009 0.0923,-0.0163 0.14085,-0.0194 0.0517,-0.006 0.0874,-0.009 0.10695,-0.009 0.009,-0.0135 0.015,-0.0351 0.015,-0.0675 0.003,-0.0324 -0.001,-0.0552 -0.015,-0.0679 -0.0972,0.003 -0.1911,0.007 -0.28179,0.015 -0.0873,0.003 -0.1776,0.005 -0.27135,0.005 h -4.8e-4 c -0.0906,0 -0.18234,-0.001 -0.2761,-0.005 -0.0908,-0.006 -0.18461,-0.012 -0.28178,-0.015 -0.0135,0.0135 -0.0194,0.0357 -0.0194,0.0679 0.003,0.0324 0.009,0.0552 0.0194,0.0679 0.0194,0 0.0536,0.003 0.10215,0.009 0.0519,0.003 0.10035,0.009 0.1455,0.0194 0.0487,0.009 0.0744,0.0245 0.0774,0.0439 0.0135,0.039 0.0194,0.0909 0.0194,0.15556 0.003,0.0615 0.005,0.1278 0.005,0.19902 v 1.38474 c 0,0.18786 0.0306,0.35791 0.0923,0.51013 0.0615,0.15222 0.1476,0.27978 0.25766,0.38341 0.10364,0.1002 0.22822,0.17847 0.37394,0.23354 0.14565,0.0552 0.30294,0.0824 0.47136,0.0824 0.24613,0 0.46167,-0.045 0.64627,-0.13575 0.18785,-0.0908 0.33321,-0.23354 0.43685,-0.42786 0.10365,-0.19757 0.15555,-0.45313 0.15555,-0.76729 v -1.27791 c 0,-0.0908 0.001,-0.15844 0.004,-0.20376 0.006,-0.0453 0.0208,-0.0859 0.0435,-0.1215 0.0135,-0.0195 0.0456,-0.0358 0.0973,-0.0487 0.0517,-0.0162 0.10515,-0.0276 0.16028,-0.0341 0.0551,-0.006 0.0921,-0.009 0.1116,-0.009 0.0135,-0.0258 0.0179,-0.0516 0.015,-0.0775 -0.003,-0.0258 -0.009,-0.0452 -0.015,-0.0581 -0.0714,0.003 -0.1326,0.006 -0.18438,0.009 -0.0486,0.003 -0.097,0.008 -0.1455,0.009 h -0.18013 c -0.10365,0 -0.19412,-0.001 -0.27183,-0.005 -0.0744,-0.006 -0.15854,-0.012 -0.25247,-0.015 z m -58.859248,0.005 c -0.01305,0.0135 -0.0194,0.0357 -0.0194,0.0679 0.0033,0.0324 0.0096,0.0552 0.0194,0.0679 0.01944,0 0.0555,0.003 0.10731,0.009 0.05182,0.003 0.100274,0.009 0.145619,0.0194 0.04859,0.009 0.07431,0.024 0.07753,0.0435 0.01305,0.039 0.01938,0.0909 0.01938,0.15555 0.0033,0.0616 0.0051,0.1278 0.0051,0.19905 v 2.02581 c 0,0.0713 -0.0021,0.138 -0.0051,0.1995 0,0.0617 -0.0063,0.11145 -0.01938,0.15035 -0.0033,0.0162 -0.02896,0.031 -0.07753,0.0439 -0.04534,0.0135 -0.0938,0.0224 -0.145619,0.0288 -0.05183,0.003 -0.08788,0.005 -0.10731,0.005 -0.0098,0.0135 -0.01616,0.0357 -0.0194,0.0679 0,0.0324 0.0063,0.0552 0.0194,0.0679 0.09391,0 0.184868,-0.003 0.272315,-0.009 0.08743,-0.003 0.186311,-0.004 0.296426,-0.004 0.317394,0 0.602146,0.003 0.854766,0.009 0.25262,0.006 0.507191,0.009 0.763048,0.009 0.0162,-0.10365 0.04983,-0.22871 0.101639,-0.37443 0.05506,-0.14565 0.105465,-0.28319 0.150814,-0.41273 -0.01944,-0.0195 -0.05848,-0.0293 -0.116774,-0.0293 -0.03888,0 -0.06161,0.009 -0.06807,0.0293 -0.03888,0.1263 -0.08386,0.22667 -0.135689,0.30114 -0.04857,0.0744 -0.10197,0.1329 -0.160269,0.17493 -0.06477,0.0453 -0.15227,0.0794 -0.262386,0.10215 -0.106874,0.0195 -0.20574,0.0292 -0.296425,0.0292 h -0.267116 c -0.100395,0 -0.17504,-0.001 -0.223618,-0.004 -0.04534,-0.006 -0.08439,-0.0213 -0.116774,-0.044 -0.0097,-0.006 -0.01614,-0.0288 -0.01938,-0.0675 -0.0033,-0.039 -0.0046,-0.0814 -0.0046,-0.12675 v -0.1164 -0.0293 -2.02628 -0.0288 -0.0293 -0.17019 c 0.0033,-0.0517 0.0096,-0.0939 0.01938,-0.1263 0.0065,-0.0195 0.03267,-0.0337 0.07802,-0.0435 0.04534,-0.009 0.09381,-0.0163 0.145619,-0.0194 0.05182,-0.006 0.08742,-0.009 0.106844,-0.009 0.0098,-0.0135 0.01455,-0.0357 0.01455,-0.0679 0.0033,-0.0326 -0.0016,-0.0552 -0.01455,-0.068 -0.09715,0.003 -0.191087,0.009 -0.281772,0.015 -0.08743,0.003 -0.178389,0.005 -0.272313,0.005 -0.09067,0 -0.182647,-0.001 -0.276569,-0.005 -0.09393,-0.006 -0.18981,-0.012 -0.286971,-0.015 z m 6.791795,9e-4 c -0.05182,0.003 -0.108659,0.007 -0.170195,0.015 -0.06155,0.003 -0.132719,0.005 -0.213692,0.005 v 9e-4 h -0.174926 c -0.04534,-0.003 -0.09082,-0.006 -0.136154,-0.009 -0.04534,-0.003 -0.105165,-0.008 -0.179653,-0.009 -0.0033,0.003 -0.0047,0.0275 -0.0047,0.0729 0,0.042 0.0015,0.0634 0.0047,0.0634 0.01944,0 0.05355,0.005 0.102119,0.015 0.05183,0.006 0.100275,0.0178 0.14562,0.0341 0.04857,0.0135 0.07626,0.0288 0.08272,0.0483 0.0097,0.0258 0.01455,0.0552 0.01455,0.0874 0.0033,0.0324 0.0046,0.0665 0.0046,0.10215 0,0.0226 -0.0015,0.10035 -0.0046,0.23307 -0.0033,0.1296 -0.0081,0.29961 -0.01455,0.51011 -0.0033,0.20729 -0.0096,0.4421 -0.01938,0.70443 -0.0065,0.26234 -0.01485,0.5362 -0.02458,0.8212 -0.0033,0.0519 -0.0081,0.0973 -0.01455,0.13605 -0.0065,0.0356 -0.02082,0.0692 -0.04349,0.10155 -0.01305,0.0195 -0.04706,0.0357 -0.10212,0.0486 -0.05506,0.0135 -0.111434,0.0228 -0.169725,0.0293 -0.05505,0.006 -0.09261,0.009 -0.11205,0.009 -0.0097,0.0195 -0.01275,0.0457 -0.0095,0.078 0.0033,0.0324 0.0062,0.0517 0.0095,0.0581 0.110115,-0.006 0.202552,-0.012 0.277043,-0.015 0.07449,-0.006 0.166927,-0.009 0.277041,-0.009 0.10365,0 0.189175,0.003 0.257187,0.009 0.06801,0.003 0.149085,0.009 0.243004,0.015 0.0033,-0.006 0.0066,-0.0273 0.01005,-0.0628 0.0033,-0.0357 -0.0016,-0.0605 -0.01455,-0.0732 -0.01305,0 -0.04854,-9.1e-4 -0.106845,-0.005 -0.05829,-0.006 -0.116639,-0.0163 -0.174923,-0.0292 -0.05506,-0.0135 -0.08767,-0.0306 -0.09739,-0.0534 -0.0064,-0.0193 -0.0114,-0.0421 -0.01455,-0.0679 -0.0033,-0.0292 -0.0046,-0.0547 -0.0046,-0.0774 0,-0.009 0.0015,-0.0651 0.0046,-0.16548 0.0033,-0.10365 0.0066,-0.23763 0.01005,-0.40279 0.0064,-0.16842 0.0114,-0.35628 0.01455,-0.56355 0.0065,-0.20727 0.01305,-0.4213 0.0194,-0.64154 0.0065,-0.22023 0.0114,-0.43379 0.01455,-0.64109 l 1.15592,2.76902 c 0.0033,0 0.0066,0.001 0.01005,0.005 0.01618,0.006 0.02755,0.007 0.03405,0.004 0.01944,-0.003 0.0402,-0.0211 0.06288,-0.0534 0.0259,-0.0357 0.05061,-0.0728 0.07327,-0.1116 0.02267,-0.039 0.03702,-0.0651 0.04349,-0.0781 0.09067,-0.22993 0.174731,-0.44349 0.252461,-0.64105 0.08096,-0.20082 0.160544,-0.39658 0.238274,-0.58765 0.07773,-0.19433 0.156836,-0.39552 0.237803,-0.6028 0.08421,-0.20727 0.175154,-0.43221 0.272316,-0.67512 0.0098,-0.0226 0.01764,-0.0341 0.02411,-0.0341 0.01619,0 0.02756,0.0135 0.03405,0.0388 0.0064,0.0258 0.01005,0.0438 0.01005,0.0534 0.0097,0.25585 0.01764,0.4956 0.0241,0.71906 0.0065,0.22025 0.01305,0.43725 0.0194,0.65102 0.0065,0.21051 0.01305,0.43097 0.01938,0.66094 0,0.0356 0.0021,0.0825 0.0051,0.14085 0.0033,0.0552 0.0047,0.10005 0.0047,0.13575 0,0.0324 -0.0036,0.0714 -0.01005,0.11685 -0.0065,0.0455 -0.01785,0.0731 -0.03405,0.0827 -0.01944,0.009 -0.0501,0.0191 -0.09219,0.0288 l -0.12624,0.0198 c -0.0421,0.003 -0.07275,0.004 -0.09219,0.004 -0.0097,0.0195 -0.01305,0.0457 -0.01005,0.078 0.0033,0.0324 0.0066,0.0517 0.01005,0.0581 0.110114,-0.006 0.20553,-0.012 0.286497,-0.015 0.08096,-0.006 0.176383,-0.009 0.286499,-0.009 0.103634,0 0.199052,0.003 0.286498,0.009 0.09068,0.003 0.183118,0.009 0.277041,0.015 0.0033,-0.006 0.0046,-0.0241 0.0046,-0.0534 0.0033,-0.0324 -0.0012,-0.06 -0.0141,-0.0827 -0.01305,0 -0.04557,-9.2e-4 -0.0974,-0.004 -0.04857,-0.006 -0.09704,-0.015 -0.145619,-0.0246 -0.04857,-0.0135 -0.07775,-0.0307 -0.08747,-0.0534 -0.02266,-0.0552 -0.03748,-0.1233 -0.04397,-0.20423 -0.0065,-0.081 -0.01095,-0.16651 -0.0141,-0.25719 -0.0033,-0.15546 -0.0081,-0.33343 -0.01455,-0.53422 -0.0033,-0.2008 -0.0081,-0.40348 -0.01455,-0.60751 -0.0033,-0.20728 -0.0066,-0.39364 -0.01005,-0.55882 -0.0033,-0.16517 -0.0062,-0.28826 -0.0095,-0.36923 0,-0.0292 0.0015,-0.0612 0.0046,-0.097 0.0033,-0.0356 0.0096,-0.0648 0.01938,-0.0874 0.0097,-0.0162 0.0374,-0.0311 0.08272,-0.044 0.04535,-0.0135 0.0923,-0.0223 0.140879,-0.0288 0.05183,-0.006 0.08891,-0.009 0.11157,-0.009 l -0.0046,-0.0628 c -0.0033,-0.0421 -0.0066,-0.0667 -0.01005,-0.0733 -0.05829,0.003 -0.140849,0.007 -0.247728,0.009 -0.10365,0.003 -0.197566,0.005 -0.281771,0.005 -0.09716,0 -0.221741,-0.005 -0.37396,-0.015 l -0.03405,0.097 c -0.02267,0.0648 -0.05034,0.14099 -0.08272,0.22834 -0.03239,0.0875 -0.06304,0.16851 -0.09219,0.24301 -0.09067,0.23318 -0.17473,0.44675 -0.252458,0.64105 -0.07449,0.1911 -0.149129,0.3839 -0.223622,0.57821 -0.07449,0.1911 -0.158534,0.40662 -0.252458,0.64628 -0.0033,0.0135 -0.0096,0.0194 -0.01938,0.0194 -0.0097,0 -0.01614,-0.003 -0.01938,-0.009 -0.06801,-0.1684 -0.142649,-0.34934 -0.223618,-0.54368 -0.08096,-0.19755 -0.163525,-0.39528 -0.247733,-0.59285 -0.08421,-0.19754 -0.163782,-0.38392 -0.238273,-0.5588 -0.07126,-0.17814 -0.134054,-0.33188 -0.189108,-0.46143 -0.05183,-0.12945 -0.08742,-0.22497 -0.106845,-0.28648 z m 8.214358,0 c -0.01305,0.0135 -0.01938,0.0357 -0.01938,0.0679 0.0033,0.0324 0.0096,0.0548 0.01938,0.0677 0.01944,0 0.05355,0.003 0.10212,0.009 0.05182,0.003 0.100739,0.009 0.146084,0.0194 0.04858,0.009 0.07429,0.024 0.07753,0.0435 0.01305,0.0388 0.01938,0.0909 0.01938,0.15555 0.0033,0.0616 0.0046,0.12825 0.0046,0.1995 v 2.0258 c 0,0.28501 -0.0095,0.51984 -0.02883,0.70445 -0.01944,0.18461 -0.04563,0.32697 -0.07801,0.42738 -0.03239,0.1005 -0.07095,0.1701 -0.116294,0.20897 -0.04534,0.042 -0.09229,0.0628 -0.140879,0.0628 -0.0421,0 -0.08263,-0.012 -0.1215,-0.0341 -0.03562,-0.0225 -0.06628,-0.0454 -0.09219,-0.0679 -0.03238,-0.0292 -0.06649,-0.0599 -0.10212,-0.0923 -0.03887,-0.0292 -0.08088,-0.0435 -0.126239,-0.0435 -0.07449,0 -0.13134,0.0258 -0.170197,0.0774 -0.03887,0.0517 -0.05814,0.1152 -0.05814,0.18958 0,0.0453 0.0129,0.0808 0.03878,0.10695 0.02916,0.0225 0.0776,0.0419 0.145604,0.0582 0.06801,0.0195 0.119925,0.0292 0.155541,0.0292 0.213755,0 0.403094,-0.0549 0.568267,-0.165 0.168414,-0.1101 0.299421,-0.28659 0.393344,-0.5295 0.09715,-0.24291 0.146084,-0.56222 0.146084,-0.95735 v -2.00125 -0.1995 c 0.0033,-0.0648 0.01125,-0.11625 0.02412,-0.15507 0.0065,-0.0195 0.03267,-0.0343 0.07801,-0.0439 0.04534,-0.009 0.09381,-0.0164 0.14562,-0.0194 0.05182,-0.006 0.08742,-0.009 0.106844,-0.009 0.0098,-0.0135 0.01455,-0.0352 0.01455,-0.0676 0.0033,-0.0324 -0.0016,-0.0552 -0.01455,-0.0679 -0.09715,0.003 -0.191088,0.007 -0.281771,0.015 -0.09067,0.003 -0.18312,0.005 -0.277044,0.005 -0.09067,0 -0.183119,-0.001 -0.277042,-0.005 -0.09068,-0.006 -0.184608,-0.012 -0.28177,-0.015 z m 7.000288,0 c -0.09715,0.003 -0.191087,0.007 -0.281772,0.015 -0.08743,0.003 -0.177918,0.005 -0.271842,0.005 v 4.5e-4 c -0.09067,0 -0.183119,-10e-4 -0.277041,-0.005 -0.09393,-0.006 -0.189337,-0.012 -0.286497,-0.015 -0.01305,0.0135 -0.0194,0.0387 -0.0194,0.0774 0.0033,0.0356 0.0096,0.0599 0.0194,0.0729 0.01944,0 0.05502,0.003 0.106844,0.009 0.05182,0.003 0.100275,0.009 0.145605,0.0194 0.04857,0.009 0.07476,0.024 0.07801,0.0435 0.01305,0.039 0.01938,0.0909 0.01938,0.15553 0.0033,0.0616 0.0046,0.1278 0.0046,0.19905 v 1.99697 c 0,0.0714 -0.0015,0.1374 -0.0046,0.19904 0,0.0616 -0.0063,0.1119 -0.01938,0.15082 -0.0033,0.0162 -0.02943,0.0304 -0.07801,0.0435 -0.04534,0.0135 -0.09381,0.0228 -0.145605,0.0292 -0.05182,0.003 -0.08742,0.005 -0.106844,0.005 -0.0097,0.0135 -0.01615,0.0392 -0.0194,0.0781 0,0.0357 0.0063,0.0599 0.0194,0.0729 0.09715,-0.006 0.192573,-0.012 0.286497,-0.015 0.09393,-0.006 0.186359,-0.009 0.277041,-0.009 0.09393,0 0.184397,0.003 0.271842,0.009 0.09068,0.003 0.18461,0.009 0.281772,0.015 0.01305,-0.0135 0.01789,-0.0372 0.01455,-0.0729 0,-0.039 -0.005,-0.0651 -0.01455,-0.0781 -0.01944,0 -0.05502,-9.1e-4 -0.106844,-0.005 -0.05183,-0.006 -0.100275,-0.0163 -0.145604,-0.0292 -0.04534,-0.0135 -0.07106,-0.0273 -0.07753,-0.0435 -0.0097,-0.0324 -0.01615,-0.0729 -0.01938,-0.1215 v -0.1702 -0.0292 -0.0288 -0.94269 c 0,-0.003 0.0015,-0.006 0.0046,-0.009 0.0065,-0.003 0.02577,-0.007 0.05814,-0.009 0.03239,-0.003 0.100604,-0.008 0.204236,-0.009 0.103634,-0.003 0.265302,-0.005 0.485534,-0.005 0.123074,0 0.246161,0.003 0.369232,0.009 0.1263,0.003 0.24446,0.007 0.354576,0.009 l 0.0051,0.005 c 0.0033,0 0.0046,0.003 0.0046,0.009 v 0.94269 c 0,0.0714 -0.0015,0.1374 -0.0046,0.19903 0,0.0616 -0.0063,0.11145 -0.01938,0.15035 -0.0033,0.0162 -0.02943,0.031 -0.07801,0.0439 -0.04534,0.0135 -0.09381,0.0228 -0.145605,0.0292 -0.04857,0.003 -0.08268,0.005 -0.102119,0.005 -0.0097,0.0135 -0.01615,0.0393 -0.01938,0.078 0,0.0357 0.0063,0.0598 0.01938,0.0729 0.09715,-0.006 0.191088,-0.012 0.28177,-0.015 0.09393,-0.006 0.186359,-0.009 0.277045,-0.009 0.09391,0 0.184397,0.003 0.271839,0.009 0.09068,0.003 0.184617,0.009 0.281777,0.015 0.013,-0.0135 0.0179,-0.0372 0.0145,-0.0729 0,-0.039 -0.005,-0.0651 -0.0145,-0.078 -0.0194,0 -0.055,-9.2e-4 -0.10685,-0.005 -0.0486,-0.006 -0.0956,-0.0163 -0.140879,-0.0292 -0.04535,-0.0135 -0.07107,-0.0279 -0.07754,-0.0439 -0.01305,-0.039 -0.02136,-0.0888 -0.02458,-0.15035 v -0.19903 -1.99696 -0.19906 c 0.0033,-0.0648 0.0117,-0.1167 0.02458,-0.15552 0.0065,-0.0195 0.03219,-0.0338 0.07754,-0.0435 0.04535,-0.009 0.0923,-0.0163 0.140879,-0.0194 0.0518,-0.006 0.0874,-0.009 0.10685,-0.009 0.01,-0.0135 0.0145,-0.0372 0.0145,-0.0729 0.003,-0.0388 -0.002,-0.0651 -0.0145,-0.078 -0.0972,0.003 -0.19109,0.009 -0.281777,0.015 -0.08743,0.003 -0.177919,0.004 -0.271839,0.004 -0.09067,0 -0.183121,-0.001 -0.277045,-0.004 -0.09067,-0.006 -0.184607,-0.012 -0.28177,-0.015 -0.01305,0.0135 -0.01938,0.0393 -0.01938,0.078 0.0033,0.0356 0.0096,0.0599 0.01938,0.0729 0.01944,0 0.05355,0.003 0.102119,0.009 0.05182,0.003 0.100275,0.009 0.145605,0.0194 0.04857,0.009 0.07477,0.024 0.07801,0.0435 0.01305,0.039 0.01938,0.0909 0.01938,0.15552 0.0033,0.0616 0.0046,0.1278 0.0046,0.19906 v 0.82593 c 0,0.003 -0.0015,0.007 -0.0046,0.009 l -0.0051,0.005 c -0.106874,0.003 -0.226515,0.007 -0.359304,0.009 -0.129554,0.003 -0.25115,0.005 -0.364504,0.005 -0.132779,0 -0.260817,-9.2e-4 -0.383889,-0.005 -0.123074,-0.003 -0.24271,-0.007 -0.359305,-0.009 h -0.0046 c -0.0033,-0.003 -0.0047,-0.006 -0.0047,-0.009 v -0.83065 -0.0292 -0.0293 -0.17021 c 0.0033,-0.0517 0.0096,-0.0939 0.0194,-0.12615 0.0065,-0.0195 0.03219,-0.0337 0.07753,-0.0435 0.04534,-0.009 0.09381,-0.0163 0.145604,-0.0194 0.05182,-0.006 0.08742,-0.009 0.106844,-0.009 0.0098,-0.0135 0.01455,-0.037 0.01455,-0.0729 0.0033,-0.0389 -0.0016,-0.0647 -0.01455,-0.0776 z m 3.048407,0 c -0.013,0.0135 -0.0194,0.0357 -0.0194,0.0679 0.003,0.0324 0.01,0.0552 0.0194,0.0679 0.0194,0 0.055,0.003 0.10685,0.009 0.0518,0.003 0.10075,0.009 0.14608,0.0194 0.0486,0.009 0.0743,0.0245 0.0775,0.0439 0.013,0.0388 0.0194,0.0907 0.0194,0.15553 0.003,0.0616 0.005,0.1278 0.005,0.19902 v 2.02583 c 0,0.0712 -0.001,0.1374 -0.005,0.19902 0,0.0616 -0.006,0.1119 -0.0194,0.15083 -0.003,0.0162 -0.029,0.0304 -0.0775,0.0435 -0.0453,0.0135 -0.0943,0.0228 -0.14608,0.0292 -0.0518,0.003 -0.0874,0.005 -0.10685,0.005 -0.01,0.0135 -0.0161,0.0357 -0.0194,0.0679 0,0.0324 0.006,0.0547 0.0194,0.0675 0.0972,-0.006 0.19305,-0.012 0.28698,-0.015 0.0939,-0.006 0.18588,-0.009 0.27656,-0.009 0.0939,0 0.18488,0.003 0.27232,0.009 0.0907,0.003 0.18461,0.007 0.28177,0.015 0.013,-0.0135 0.0174,-0.0352 0.0141,-0.0675 0,-0.0326 -0.004,-0.0552 -0.0141,-0.0679 -0.0194,0 -0.055,-0.001 -0.10684,-0.005 -0.0518,-0.006 -0.10076,-0.0163 -0.14609,-0.0292 -0.0453,-0.0135 -0.0711,-0.0273 -0.0775,-0.0435 -0.01,-0.0324 -0.0162,-0.0729 -0.0194,-0.1215 v -0.17019 -0.0288 -0.0293 -2.0258 -0.0293 -0.0292 -0.16973 c 0.003,-0.0517 0.01,-0.0939 0.0194,-0.1263 0.006,-0.0195 0.0322,-0.0343 0.0775,-0.0439 0.0453,-0.009 0.0943,-0.0164 0.14609,-0.0194 0.0518,-0.006 0.0874,-0.009 0.10684,-0.009 0.01,-0.0135 0.0141,-0.0352 0.0141,-0.0675 0.003,-0.0324 -0.001,-0.0552 -0.0141,-0.0679 -0.0971,0.003 -0.19109,0.007 -0.28177,0.015 -0.0874,0.003 -0.17839,0.005 -0.27232,0.005 -0.0907,0 -0.18264,-9e-4 -0.27656,-0.005 -0.0939,-0.006 -0.18981,-0.012 -0.28698,-0.015 z m 2.26126,0 c -0.0131,0.0135 -0.0194,0.0357 -0.0194,0.0679 0.003,0.0324 0.01,0.0548 0.0194,0.0677 0.0194,0 0.055,0.003 0.10684,0.009 0.0518,0.003 0.10076,0.009 0.14609,0.0194 0.0486,0.009 0.0743,0.024 0.0775,0.0435 0.0131,0.0388 0.0194,0.0909 0.0194,0.15555 0.003,0.0616 0.005,0.12825 0.005,0.1995 v 2.0258 c 0,0.0714 -0.001,0.1374 -0.005,0.19905 0,0.0615 -0.006,0.11145 -0.0194,0.15034 -0.003,0.0162 -0.029,0.031 -0.0775,0.0439 -0.0453,0.0135 -0.0943,0.0228 -0.14609,0.0292 -0.0518,0.003 -0.0874,0.005 -0.10684,0.005 -0.01,0.0135 -0.0161,0.0357 -0.0194,0.0679 0,0.0324 0.006,0.0552 0.0194,0.0679 h 1.1857 c 0.33359,0 0.61191,-0.0435 0.83538,-0.13095 0.22348,-0.0908 0.39996,-0.21228 0.52951,-0.36451 0.13279,-0.15222 0.22671,-0.32375 0.28177,-0.51483 0.055,-0.19108 0.0827,-0.38733 0.0827,-0.58813 0,-0.29472 -0.0662,-0.55674 -0.19903,-0.78669 -0.13278,-0.23319 -0.32409,-0.41656 -0.57347,-0.54936 -0.24938,-0.13589 -0.54747,-0.20375 -0.89401,-0.20375 -0.10363,0 -0.2203,0.001 -0.34985,0.005 h -0.33519 c -0.0907,0 -0.18265,-0.001 -0.27657,-0.005 -0.0939,-0.006 -0.18981,-0.012 -0.28697,-0.015 z m 4.04926,0 c -0.013,0.0135 -0.0194,0.0357 -0.0194,0.0679 0.003,0.0324 0.01,0.0552 0.0194,0.0679 0.0194,0 0.055,0.003 0.10686,0.009 0.0518,0.003 0.10025,0.009 0.1456,0.0194 0.0486,0.009 0.0748,0.0245 0.078,0.0439 0.0131,0.0388 0.0194,0.0907 0.0194,0.15553 0.003,0.0616 0.005,0.1278 0.005,0.19902 v 2.02583 c 0,0.0712 -0.001,0.1374 -0.005,0.19902 0,0.0616 -0.006,0.1119 -0.0194,0.15083 -0.003,0.0162 -0.0295,0.0304 -0.078,0.0435 -0.0453,0.0135 -0.0938,0.0228 -0.1456,0.0292 -0.0518,0.003 -0.0874,0.005 -0.10686,0.005 -0.01,0.0135 -0.0161,0.0357 -0.0194,0.0679 0,0.0324 0.006,0.0547 0.0194,0.0675 0.0972,-0.006 0.19258,-0.012 0.28651,-0.015 0.0939,-0.006 0.18635,-0.009 0.27704,-0.009 0.0939,0 0.18438,0.003 0.27183,0.009 0.0907,0.003 0.18461,0.007 0.28178,0.015 0.0131,-0.0135 0.0178,-0.0352 0.0145,-0.0675 0,-0.0326 -0.004,-0.0552 -0.0145,-0.0679 -0.0194,0 -0.055,-0.001 -0.10686,-0.005 -0.0518,-0.006 -0.10023,-0.0163 -0.14562,-0.0292 -0.0453,-0.0135 -0.0711,-0.0273 -0.0775,-0.0435 -0.01,-0.0324 -0.0162,-0.0729 -0.0194,-0.1215 v -0.17019 -0.0288 -0.0293 -2.0258 -0.0293 -0.0292 -0.16973 c 0.004,-0.0517 0.01,-0.0939 0.0194,-0.1263 0.006,-0.0195 0.0322,-0.0343 0.0775,-0.0439 0.0453,-0.009 0.0938,-0.0164 0.14562,-0.0194 0.0518,-0.006 0.0874,-0.009 0.10686,-0.009 0.01,-0.0135 0.0145,-0.0352 0.0145,-0.0675 0.003,-0.0324 -0.002,-0.0552 -0.0145,-0.0679 -0.0972,0.003 -0.19109,0.007 -0.28178,0.015 -0.0874,0.003 -0.17791,0.005 -0.27183,0.005 -0.0907,0 -0.18313,-9e-4 -0.27704,-0.005 -0.0939,-0.006 -0.18934,-0.012 -0.28651,-0.015 z m 9.75228,0 c -0.0517,0.003 -0.10875,0.007 -0.17019,0.015 -0.0617,0.003 -0.13275,0.005 -0.21371,0.005 l 9.2e-4,9e-4 h -0.17493 c -0.0455,-0.003 -0.0909,-0.006 -0.13605,-0.009 -0.0455,-0.003 -0.10515,-0.008 -0.17965,-0.009 -0.003,0.003 -0.004,0.0275 -0.004,0.0729 0,0.042 10e-4,0.0634 0.004,0.0634 0.0195,0 0.0536,0.005 0.10215,0.015 0.0519,0.006 0.10035,0.0178 0.1455,0.0341 0.0485,0.0135 0.0762,0.0288 0.0827,0.0483 0.009,0.0258 0.015,0.0552 0.015,0.0874 0.003,0.0324 0.004,0.0665 0.004,0.10215 0,0.0226 -9.2e-4,0.10035 -0.004,0.23307 -0.005,0.1296 -0.009,0.29961 -0.015,0.51011 -0.003,0.20729 -0.009,0.4421 -0.0194,0.70443 -0.006,0.26234 -0.015,0.5362 -0.0246,0.8212 -0.004,0.0519 -0.009,0.0973 -0.015,0.13605 -0.006,0.0356 -0.021,0.0692 -0.0435,0.10155 -0.0135,0.0195 -0.0471,0.0357 -0.10215,0.0486 -0.0552,0.0135 -0.1113,0.0228 -0.16973,0.0293 -0.0551,0.006 -0.0926,0.009 -0.11205,0.009 -0.009,0.0195 -0.012,0.0457 -0.009,0.078 0.004,0.0324 0.006,0.0517 0.009,0.0581 0.1101,-0.006 0.20255,-0.012 0.27705,-0.015 0.0744,-0.006 0.16692,-0.009 0.27705,-0.009 0.10365,0 0.18916,0.003 0.25719,0.009 0.0679,0.003 0.1491,0.009 0.243,0.015 0.004,-0.006 0.007,-0.0273 0.009,-0.0628 0.004,-0.0357 -0.001,-0.0605 -0.015,-0.0732 -0.0135,0 -0.0487,-9.1e-4 -0.10695,-0.005 -0.0582,-0.006 -0.1167,-0.0163 -0.17493,-0.0292 -0.0552,-0.0135 -0.0877,-0.0306 -0.0974,-0.0534 -0.006,-0.0193 -0.012,-0.0421 -0.015,-0.0679 -0.003,-0.0292 -0.004,-0.0547 -0.004,-0.0774 0,-0.009 0.001,-0.0651 0.004,-0.16548 0.005,-0.10365 0.006,-0.23763 0.009,-0.40279 0.006,-0.16842 0.012,-0.35628 0.015,-0.56355 0.006,-0.20727 0.0135,-0.4213 0.0194,-0.64154 0.006,-0.22023 0.012,-0.43379 0.015,-0.64109 l 1.15592,2.76902 c 0.004,0 0.007,0.001 0.009,0.005 0.0162,0.006 0.0276,0.007 0.0341,0.004 0.0194,-0.003 0.04,-0.0211 0.0628,-0.0534 0.0258,-0.0357 0.0501,-0.0728 0.0729,-0.1116 0.0226,-0.039 0.0375,-0.0651 0.0439,-0.0781 0.0907,-0.22993 0.17474,-0.44349 0.25245,-0.64105 0.081,-0.20082 0.16056,-0.39658 0.23828,-0.58765 0.0777,-0.19433 0.15683,-0.39552 0.2378,-0.6028 0.0841,-0.20727 0.17516,-0.43221 0.27233,-0.67512 0.009,-0.0226 0.0177,-0.0341 0.024,-0.0341 0.0162,0 0.0276,0.0135 0.034,0.0388 0.006,0.0258 0.009,0.0438 0.009,0.0534 0.009,0.25585 0.0177,0.4956 0.0242,0.71906 0.006,0.22025 0.0135,0.43725 0.0194,0.65102 0.006,0.21051 0.0135,0.43097 0.0194,0.66094 0,0.0356 0.001,0.0825 0.004,0.14085 0.003,0.0552 0.004,0.10005 0.004,0.13575 0,0.0324 -0.004,0.0714 -0.009,0.11685 -0.006,0.0455 -0.0179,0.0731 -0.0341,0.0827 -0.0195,0.009 -0.0501,0.0191 -0.0921,0.0288 -0.042,0.006 -0.0841,0.0135 -0.1263,0.0198 -0.042,0.003 -0.0732,0.004 -0.0926,0.004 -0.009,0.0195 -0.012,0.0457 -0.009,0.078 0.003,0.0324 0.006,0.0517 0.009,0.0581 0.1101,-0.006 0.20599,-0.012 0.28698,-0.015 0.081,-0.006 0.17638,-0.009 0.28648,-0.009 0.10365,0 0.19907,0.003 0.2865,0.009 0.0907,0.003 0.18313,0.009 0.27705,0.015 0.003,-0.006 0.005,-0.0241 0.005,-0.0534 0.003,-0.0324 -0.001,-0.06 -0.015,-0.0827 -0.0135,0 -0.0456,-9.2e-4 -0.0974,-0.004 -0.0485,-0.006 -0.0969,-0.015 -0.1455,-0.0246 -0.0485,-0.0135 -0.0778,-0.0307 -0.0875,-0.0534 -0.0226,-0.0552 -0.0372,-0.1233 -0.0435,-0.20423 -0.006,-0.081 -0.012,-0.16651 -0.015,-0.25719 -0.005,-0.15546 -0.009,-0.33343 -0.015,-0.53422 -0.004,-0.2008 -0.009,-0.40348 -0.015,-0.60751 -0.004,-0.20728 -0.006,-0.39364 -0.009,-0.55882 -0.003,-0.16517 -0.007,-0.28826 -0.009,-0.36923 0,-0.0292 10e-4,-0.0612 0.005,-0.097 0.004,-0.0356 0.009,-0.0648 0.0193,-0.0874 0.009,-0.0162 0.0375,-0.0311 0.0827,-0.044 0.0453,-0.0135 0.0923,-0.0223 0.14085,-0.0288 0.0517,-0.006 0.0889,-0.009 0.1116,-0.009 l -0.005,-0.0628 c -0.004,-0.0421 -0.006,-0.0667 -0.009,-0.0733 -0.0582,0.003 -0.14085,0.007 -0.24774,0.009 -0.10365,0.003 -0.19756,0.005 -0.28177,0.005 -0.0972,0 -0.22173,-0.005 -0.37395,-0.015 l -0.0341,0.097 c -0.0226,0.0648 -0.0502,0.14099 -0.0828,0.22834 -0.0324,0.0875 -0.063,0.16851 -0.0921,0.24301 -0.0907,0.23318 -0.1752,0.44675 -0.25294,0.64105 -0.0744,0.1911 -0.14865,0.3839 -0.22316,0.57821 -0.0744,0.1911 -0.159,0.40662 -0.25291,0.64628 -0.003,0.0135 -0.009,0.0194 -0.0194,0.0194 -0.009,0 -0.0164,-0.003 -0.0194,-0.009 -0.0679,-0.1684 -0.14265,-0.34934 -0.22364,-0.54368 -0.081,-0.19755 -0.16351,-0.39528 -0.24772,-0.59285 -0.0842,-0.19754 -0.16332,-0.38392 -0.23779,-0.5588 -0.0714,-0.17814 -0.13455,-0.33188 -0.18959,-0.46143 -0.0517,-0.12945 -0.0873,-0.22497 -0.1068,-0.28648 z m 5.52098,0.13575 c 0.18462,0 0.34675,0.0454 0.48599,0.13605 0.1425,0.0875 0.26217,0.2056 0.35931,0.35457 0.10035,0.14895 0.17502,0.3141 0.22364,0.49548 0.0519,0.18134 0.0774,0.36425 0.0774,0.54887 0,0.15869 -0.0194,0.31887 -0.0582,0.48081 -0.0356,0.15868 -0.0939,0.30453 -0.17493,0.43731 -0.081,0.13275 -0.18431,0.23958 -0.31062,0.32053 -0.12645,0.0777 -0.27855,0.11685 -0.45669,0.11685 -0.1846,0 -0.34822,-0.0454 -0.49074,-0.13605 -0.1392,-0.0907 -0.25741,-0.21033 -0.35457,-0.35931 -0.0972,-0.15222 -0.17179,-0.3193 -0.22361,-0.50065 -0.0486,-0.18462 -0.0729,-0.36901 -0.0729,-0.55362 0,-0.1587 0.0178,-0.31736 0.0534,-0.47608 0.039,-0.1587 0.0972,-0.30303 0.17493,-0.43258 0.081,-0.1296 0.1843,-0.23288 0.31061,-0.31061 0.1263,-0.081 0.27855,-0.1215 0.45669,-0.1215 z m 7.37945,0 c 0.18461,0 0.34626,0.0454 0.48553,0.13605 0.1425,0.0875 0.26262,0.2056 0.35979,0.35457 0.10035,0.14895 0.17453,0.3141 0.22314,0.49548 0.0519,0.18134 0.0781,0.36425 0.0781,0.54887 0,0.15869 -0.0194,0.31887 -0.0581,0.48081 -0.0357,0.15868 -0.0939,0.30453 -0.17494,0.43731 -0.081,0.13275 -0.18477,0.23958 -0.31107,0.32053 -0.12645,0.0777 -0.27858,0.11685 -0.4567,0.11685 -0.18461,0 -0.34824,-0.0454 -0.49074,-0.13605 -0.1392,-0.0907 -0.25742,-0.21033 -0.35457,-0.35931 -0.0972,-0.15222 -0.17178,-0.3193 -0.22362,-0.50065 -0.0486,-0.18462 -0.0729,-0.36901 -0.0729,-0.55362 0,-0.1587 0.0179,-0.31736 0.0534,-0.47608 0.0388,-0.1587 0.0972,-0.30303 0.17491,-0.43258 0.081,-0.1296 0.18477,-0.23288 0.31109,-0.31061 0.12645,-0.081 0.27856,-0.1215 0.4567,-0.1215 z m -25.57962,0.0341 c 0.17165,0 0.33528,0.0271 0.49074,0.0822 0.15869,0.0519 0.29958,0.13785 0.42265,0.25767 0.1263,0.1167 0.22517,0.26886 0.29643,0.45669 0.0745,0.18786 0.11156,0.41623 0.11156,0.68504 0,0.30768 -0.0583,0.56178 -0.17492,0.76258 -0.11659,0.19757 -0.27034,0.34487 -0.46142,0.44204 -0.18785,0.0972 -0.39498,0.1455 -0.62169,0.1455 -0.0874,0 -0.17,-0.005 -0.24773,-0.015 -0.0745,-0.009 -0.12146,-0.0276 -0.1409,-0.0534 -0.006,-0.009 -0.0134,-0.0375 -0.0198,-0.0827 -0.003,-0.0486 -0.005,-0.097 -0.005,-0.1455 v -0.11205 -2.02061 -4.8e-4 -0.0293 -0.0288 -0.16548 c 0.003,-0.0552 0.01,-0.0985 0.0194,-0.13095 0.006,-0.0162 0.0327,-0.0276 0.078,-0.0341 0.0453,-0.006 0.0938,-0.009 0.14562,-0.009 0.0518,-0.003 0.0874,-0.004 0.10684,-0.004 z m -30.971554,0.39805 0.417929,1.14694 -0.0051,0.015 c 0,0.006 -0.003,0.009 -0.0094,0.009 -0.07126,0.003 -0.137969,0.007 -0.199508,0.009 -0.0583,0.003 -0.124544,0.004 -0.199037,0.004 h -0.208964 c -0.08421,-0.003 -0.156882,-0.007 -0.21842,-0.009 -0.0033,0 -0.0066,-0.003 -0.01005,-0.009 v -0.009 z m 20.888816,0 0.417926,1.14694 -0.0047,0.015 c 0,0.006 -0.0036,0.009 -0.01005,0.009 -0.07126,0.003 -0.137505,0.007 -0.199036,0.009 -0.05829,0.003 -0.124544,0.004 -0.199037,0.004 h -0.208964 c -0.0842,-0.003 -0.157355,-0.007 -0.21889,-0.009 -0.0033,0 -0.0062,-0.003 -0.0094,-0.009 v -0.009 z m -13.689494,1.27318 c -0.03239,0 -0.09221,0.003 -0.17965,0.009 -0.08421,0.003 -0.181583,0.009 -0.291699,0.015 -0.106874,0.003 -0.212171,0.007 -0.315808,0.015 -0.10365,0.006 -0.189175,0.012 -0.257188,0.015 l -0.102119,0.005 v 5e-4 c -0.01619,0.0357 -0.03054,0.0743 -0.04349,0.1164 -0.0097,0.0389 -0.01455,0.0808 -0.01455,0.12615 0,0.0357 0.0095,0.0534 0.02883,0.0534 l 0.437309,-0.0194 c 0.14898,-0.006 0.284929,-0.0135 0.408002,-0.0195 0.126299,-0.006 0.226663,-0.012 0.301153,-0.015 0.04211,-0.0908 0.06334,-0.17669 0.06334,-0.25766 0,-0.0292 -0.0114,-0.0439 -0.03405,-0.0439 z" />
    </g>
  </g>
  <metadata
     id="metadata5284">
    <rdf:RDF>
      <cc:Work
         rdf:about="">
        <cc:license
           rdf:resource="http://creativecommons.org/licenses/by-nc-sa/4.0/" />
        <dc:title>Al-Mujahidin Mosque Logo</dc:title>
        <dc:creator>
          <cc:Agent>
            <dc:title>Hervy Qurrotul Ainur Rozi</dc:title>
          </cc:Agent>
        </dc:creator>
      </cc:Work>
      <cc:License
         rdf:about="http://creativecommons.org/licenses/by-nc-sa/4.0/">
        <cc:permits
           rdf:resource="http://creativecommons.org/ns#Reproduction" />
        <cc:permits
           rdf:resource="http://creativecommons.org/ns#Distribution" />
        <cc:requires
           rdf:resource="http://creativecommons.org/ns#Notice" />
        <cc:requires
           rdf:resource="http://creativecommons.org/ns#Attribution" />
        <cc:prohibits
           rdf:resource="http://creativecommons.org/ns#CommercialUse" />
        <cc:permits
           rdf:resource="http://creativecommons.org/ns#DerivativeWorks" />
        <cc:requires
           rdf:resource="http://creativecommons.org/ns#ShareAlike" />
      </cc:License>
    </rdf:RDF>
  </metadata>
</svg>
