<?xml version="1.0" encoding="UTF-8" standalone="no"?>
<!-- Created with Inkscape (http://www.inkscape.org/) -->

<svg
   width="300"
   height="84.588989"
   viewBox="0 0 79.375 22.380839"
   version="1.1"
   id="svg5"
   inkscape:version="1.2.1 (9c6d41e410, 2022-07-14)"
   sodipodi:docname="logo_footer.svg"
   xmlns:inkscape="http://www.inkscape.org/namespaces/inkscape"
   xmlns:sodipodi="http://sodipodi.sourceforge.net/DTD/sodipodi-0.dtd"
   xmlns="http://www.w3.org/2000/svg"
   xmlns:svg="http://www.w3.org/2000/svg"
   xmlns:rdf="http://www.w3.org/1999/02/22-rdf-syntax-ns#"
   xmlns:cc="http://creativecommons.org/ns#"
   xmlns:dc="http://purl.org/dc/elements/1.1/">
  <title
     id="title5288">Al-Mujahidin Mosque Logo</title>
  <sodipodi:namedview
     id="namedview7"
     pagecolor="#ffffff"
     bordercolor="#000000"
     borderopacity="0.25"
     inkscape:showpageshadow="2"
     inkscape:pageopacity="0.0"
     inkscape:pagecheckerboard="0"
     inkscape:deskcolor="#d1d1d1"
     inkscape:document-units="px"
     showgrid="false"
     inkscape:zoom="3.4294678"
     inkscape:cx="85.727587"
     inkscape:cy="60.067629"
     inkscape:window-width="1366"
     inkscape:window-height="707"
     inkscape:window-x="0"
     inkscape:window-y="0"
     inkscape:window-maximized="1"
     inkscape:current-layer="g1998" />
  <defs
     id="defs2" />
  <g
     inkscape:label="Layer 1"
     inkscape:groupmode="layer"
     id="layer1"
     transform="translate(-50.929314,-123.44678)">
    <g
       id="g1987"
       transform="matrix(1.1582427,0,0,1.1582427,-11.533441,-18.521194)">
      <g
         id="g2010"
         transform="matrix(0.86335102,0,0,0.86335102,-186.05761,22.608505)">
        <g
           transform="matrix(0.07832275,0,0,0.07832275,244.8514,106.91526)"
           id="g1998">
          <path
             d="M 704.42,256.13 A 138.68,138.68 0 0 1 565.74,394.81 138.68,138.68 0 0 1 427.06,256.13 138.68,138.68 0 0 1 565.74,117.45 138.68,138.68 0 0 1 704.42,256.13 Z"
             color="#000000"
             fill="#2b9136"
             stroke-width="8.3839"
             id="path1966" />
          <path
             d="m 565.74,113.25 c -78.858,0 -142.88,64.017 -142.88,142.88 0,78.858 64.017,142.88 142.88,142.88 78.863,0 142.88,-64.017 142.88,-142.88 0,-78.858 -64.017,-142.88 -142.88,-142.88 z m 0,8.3828 c 74.327,0 134.49,60.165 134.49,134.49 0,74.327 -60.165,134.49 -134.49,134.49 -74.327,0 -134.49,-60.163 -134.49,-134.49 0,-74.327 60.163,-134.49 134.49,-134.49 z"
             color="#000000"
             fill="#ffffff"
             id="path1968" />
          <path
             d="m 565.74,129.51 c -69.903,0 -126.62,56.712 -126.62,126.62 0,69.908 56.712,126.62 126.62,126.62 69.908,0 126.62,-56.712 126.62,-126.62 0,-69.908 -56.714,-126.62 -126.62,-126.62 z m 0,4.1914 c 67.638,0 122.42,54.786 122.42,122.42 0,67.638 -54.786,122.42 -122.42,122.42 -67.638,0 -122.42,-54.786 -122.42,-122.42 0,-67.638 54.786,-122.42 122.42,-122.42 z"
             color="#000000"
             fill="#ffffff"
             id="path1970" />
          <g
             transform="translate(-334.24)"
             fill="#ffffff"
             id="g1996">
            <g
               stroke-width="12.576"
               id="g1986">
              <path
                 d="m 961.22,204.21 c 0,0 -2.8422,-9.3876 -7.6109,-25.323 -4.7688,-15.935 -11.82,-24.108 -11.82,-24.108 0,0 41.589,16.841 57.223,47.176 15.634,30.335 17.574,66.135 3.5504,98.433 -14.023,32.298 -47.472,51.808 -52.699,52.608 -5.2274,0.8001 -17.353,-7.874 -24.569,-14.113 -7.2163,-6.2397 -5.7412,-13.329 -5.9177,-16.341 -0.17587,-3.0116 0.24557,-6.6698 0.24557,-6.6698 0,0 8.6793,18.343 28.933,20.039 20.254,1.6968 25.567,-6.6337 37.148,-23.302 11.581,-16.669 17.42003,-45.014 14.131,-64.705 -3.2885,-19.692 -8.2635,-29.714 -18.255,-45.129 -9.9911,-15.415 -20.175,-23.938 -20.175,-23.938 z"
                 id="path1972" />
              <path
                 d="m 908.7,219.25 c 0,0 -0.0125,-19.634 7.2391,-37.588 7.2529,-17.955 11.289,-13.687 20.088,-0.33114 8.7991,13.356 14.762,26.909 16.059,34.545 1.2976,7.6358 -0.5371,20.568 4.6895,21.409 5.226,0.8413 8.2073,-2.1196 8.2073,-2.1196 0,0 -4.0759,0.77793 -6.9298,-20.565 -2.8537,-21.342 -9.1669,-40.424 -16.653,-48.675 -7.4856,-8.2504 -20.224,-19.709 -23.983,-13.034 -3.7592,6.6744 -11.402,31.853 -11.675,47.084 -0.273,15.231 -1.2437,16.915 2.9566,19.276 z"
                 id="path1974" />
              <path
                 d="m 973.88,217.43 c -6.6627,-0.0475 -12.54,8.897 -17.66,17.202 -6.8267,11.073 -0.58938,19.658 -0.58938,19.658 -3.2034,2.8095 -10.843,8.5833 -12.879,11.421 -2.0362,2.8382 0.48323,14.967 0.48323,14.967 0,0 5.9266,-1.626 14.803,-5.9768 8.8761,-4.351 18.127,-1.793 18.127,-1.793 0,0 -11.812,14.613 -28.034,22.589 -16.222,7.976 -35.967,9.0061 -35.967,9.0061 l 1.4323,-22.147 -17.275,10.16 c 0,0 -0.0475,10.223 1.8257,20.493 1.8683,10.27 22.55,12.513 42.313,4.4131 19.763,-8.0999 42.301,-34.467 43.86,-36.172 1.559,-1.7048 2.5434,-15.413 2.7018,-21.508 0.15844,-6.0958 -0.67177,-5.6522 -7.3441,-3.8316 -6.6728,1.8208 -13.296,5.1498 -13.296,5.1498 0,0 1.0251,-3.6439 7.7288,-7.2458 6.7045,-3.602 11.315,-5.7395 11.315,-5.7395 l -0.36757,-7.5732 c 0,0 5.3417,-10.193 -4.2492,-19.674 -2.3978,-2.3705 -4.7057,-3.3824 -6.9267,-3.3978 z m 1.4243,16.522 c 3.5624,-0.11091 4.9304,2.8507 1.7604,6.0342 -4.5083,4.527 -11.651,7.9009 -11.651,7.9009 0,0 -2.7268,-7.3292 4.3803,-11.921 2.1099,-1.3625 4.0061,-1.9643 5.5101,-2.0142 z"
                 id="path1976" />
              <path
                 d="m 903.39,211.02 c -5.5494,0.1109 -10.79,1.342 -15.008,4.274 -14.996,10.424 -16.367,31.887 -14.172,51.54 2.1947,19.653 16.449,18.184 16.449,18.184 -4.8144,7.8939 -15.574,11.413 -22.384,5.0025 -6.81,-6.4105 -13.051,-45.44 -13.051,-45.44 l -9.4974,13.28 c 0,0 8.3756,20.013 11.798,33.871 3.4224,13.858 -5.2523,30.722 -23.506,33.953 -18.254,3.2312 -27.125,-20.747 -27.125,-20.747 0,0 2.265,12.764 8.6867,21.566 6.4216,8.8014 22.657,19.599 30.261,17.701 7.6038,-1.8984 19.552,-17.774 21.304,-25.07 1.7517,-7.2961 -2.9474,-21.877 -2.9474,-21.877 0,0 9.5497,15.476 14.631,13.968 5.0812,-1.5083 33.989,-23.477 46.365,-31.702 12.376,-8.2244 19.912,-19.458 23.506,-32.152 3.5941,-12.694 0.92368,-19.9 -8.2773,-25.618 -6.6139,-4.1105 -22.85,-11.033 -37.032,-10.734 z m 1.8341,16.866 c 6.2086,-0.0951 10.57,2.8083 10.57,2.8083 l -5.7885,8.3184 c 0,0 -10.507,-2.7899 -15.54,2.8248 -5.0324,5.6147 -7.2868,14.901 -7.2868,14.901 0,0 -3.1272,-19.24 7.9172,-25.864 3.6239,-2.1736 7.0957,-2.9393 10.128,-2.9884 z m 18.282,5.0844 c 0,0 6.924,3.1244 12.248,7.6552 5.3244,4.531 5.8838,2.8222 1.3832,8.4741 -4.4997,5.6517 -21.967,22.638 -21.967,22.638 0,0 2.0182,-9.3297 1.0726,-16.023 -0.94428,-6.693 -2.6118,-12.437 -2.6118,-12.437 z m -18.413,19.527 c 0,0 5.1679,1.4814 1.6129,9.0307 -3.5548,7.5484 -8.6458,14.754 -8.6458,14.754 0,0 -2.262,-5.7275 -0.26142,-10.21 2.0001,-4.4823 2.6855,-8.4822 2.6855,-8.4822 z"
                 id="path1978" />
              <path
                 d="m 923.92,217.96 c 0,0 1.071,-10.984 -2.5524,-24.924 -3.6238,-13.94 -28.794,-29.667 -28.794,-29.667 l 7.6279,51.079 -13.07,7.7521 -9.0874,-74.21 c 0,0 26.634,8.6736 41.726,31.51 15.092,22.837 11.038,42.438 11.038,42.438 z"
                 id="path1980" />
              <path
                 d="m 856.87,186.9 -2.8808,14.355 c 0,0 8.1758,3.3934 9.4342,8.5495 1.258,5.1563 -1.4481,12.603 -11.06,16.814 -9.6112,4.2112 -7.4867,2.1184 -13.331,-1.675 -5.8447,-3.7933 -7.6621,-5.6107 -7.6621,-5.6107 l -3.8467,11.3 c 0,0 10.786,7.7513 10.626,10.569 -0.16003,2.8179 -4.2836,20.011 -20.141,27.767 -15.8574,7.756 -26.318,-1.7382 -25.428,-20.459 0.89041,-18.721 13.761,-31.56 20.776,-31.912 7.0148,-0.35173 9.0779,-0.35173 9.0779,-0.35173 l 1.2485,-9.8869 c 0,0 -15.319,1.4481 -11.617,-6.7427 3.7023,-8.1904 13.136,-21.187 25.128,-30.799 11.991,-9.6122 14.323,-11.459 14.323,-11.459 0,0 -33.211,17.312 -43.778,36.854 -10.567,19.542 -3.8002,21.913 -3.8002,21.913 0,0 -17.329,20.737 -16.816,36.991 0.51333,16.254 0.96963,35.531 16.401,38.589 15.43,3.0586 34.824,-18.225 38.391,-30.409 3.5669,-12.184 2.2506,-19.59 2.2506,-19.59 0,0 3.301,3.5095 6.4011,2.6367 3.1003,-0.87299 18.982,-11.737 19.631,-17.774 0.64959,-6.0377 4.623,-22.065 2.0931,-25.181 -5.4058,-6.6595 -15.419,-14.486 -15.419,-14.486 z"
                 id="path1982" />
              <path
                 d="m 827.64,211.81 -1.5432,-15.131 47.969,-44.954 0.12675,15.137 z"
                 id="path1984" />
            </g>
            <g
               stroke-width="14.513"
               id="g1994">
              <path
                 id="rect1988"
                 transform="rotate(45)"
                 d="m 881.13,-401.14001 h 13.483 v 13.483 H 881.13 Z" />
              <path
                 id="rect1990"
                 transform="rotate(45)"
                 d="m 848.94,-389.53 h 13.483 v 13.483 H 848.94 Z" />
              <path
                 id="rect1992"
                 transform="rotate(45)"
                 d="m 862.42999,-376.04999 h 13.483 v 13.483 h -13.483 z" />
            </g>
          </g>
        </g>
        <g
           id="g2008"
           transform="translate(3.4059524,-3.3489135)">
          <g
             aria-label="AL-MUJAHIDIN"
             id="text2002"
             style="font-weight:500;font-size:8.40213px;font-family:'Fira Sans';-inkscape-font-specification:'Fira Sans, Medium';letter-spacing:0px;fill:#ffffff;stroke-width:0.837282;stop-color:#000000">
            <path
               d="m 304.82344,127.12007 h 1.1763 l -1.79806,-5.80587 h -1.36954 l -1.80646,5.80587 h 1.15109 l 0.36129,-1.34434 h 1.92409 z m -2.06692,-2.18455 0.73938,-2.77271 0.74779,2.77271 z"
               id="path2018" />
            <path
               d="m 307.75578,121.3142 h -1.10908 v 5.80587 h 3.31044 l 0.12603,-0.90743 h -2.32739 z"
               id="path2020" />
            <path
               d="m 310.31843,124.91871 h 2.53744 v -0.85701 h -2.53744 z"
               id="path2022" />
            <path
               d="m 319.01464,121.3142 h -1.44516 l -0.97465,4.06663 -1.03346,-4.06663 H 314.133 l -0.46211,5.80587 h 1.07547 l 0.14284,-2.39461 c 0.0504,-0.83181 0.0672,-1.63001 0.0336,-2.41141 l 1.12589,4.17586 h 1.05027 l 1.05866,-4.16745 c -0.0168,0.61335 0.0252,1.51238 0.0756,2.3694 l 0.15124,2.42821 h 1.08388 z"
               id="path2024" />
            <path
               d="m 324.82893,121.3142 h -1.11749 v 3.84818 c 0,0.815 -0.32768,1.2183 -1.05026,1.2183 -0.71418,0 -1.04187,-0.4033 -1.04187,-1.2183 v -3.84818 h -1.10908 v 3.90699 c 0,1.1931 0.72259,2.02491 2.15095,2.02491 1.41996,0 2.16775,-0.85701 2.16775,-2.02491 z"
               id="path2026" />
            <path
               d="m 327.39998,121.3142 h -1.11748 v 4.91525 c 0,0.73098 -0.12603,1.10067 -0.88223,1.39475 l 0.29408,0.7982 c 0.95784,-0.31088 1.70563,-0.7982 1.70563,-2.15094 z"
               id="path2028" />
            <path
               d="m 331.8027,127.12007 h 1.1763 l -1.79806,-5.80587 h -1.36955 l -1.80645,5.80587 h 1.15109 l 0.36129,-1.34434 h 1.92409 z m -2.06692,-2.18455 0.73938,-2.77271 0.74779,2.77271 z"
               id="path2030" />
            <path
               d="m 336.80197,127.12007 h 1.11748 v -5.80587 h -1.11748 v 2.32739 h -2.06693 v -2.32739 h -1.10908 v 5.80587 h 1.10908 v -2.59626 h 2.06693 z"
               id="path2032" />
            <path
               d="m 340.38128,121.3142 h -1.10908 v 5.80587 h 1.10908 z"
               id="path2034" />
            <path
               d="m 343.17079,121.3142 h -1.42836 v 5.80587 h 1.5796 c 1.38635,0 2.82312,-0.57975 2.82312,-2.93234 0,-2.40301 -1.44517,-2.87353 -2.97436,-2.87353 z m 0.19325,0.83181 c 0.85702,0 1.61321,0.29407 1.61321,2.04172 0,1.71403 -0.71418,2.10053 -1.5796,2.10053 h -0.54614 v -4.14225 z"
               id="path2036" />
            <path
               d="m 348.2961,121.3142 h -1.10908 v 5.80587 h 1.10908 z"
               id="path2038" />
            <path
               d="m 353.94234,121.3142 h -1.00826 v 2.72229 c 0,0.82341 0.10083,1.66362 0.15124,1.9829 l -2.02491,-4.70519 h -1.40316 v 5.80587 h 1.00826 v -2.3694 c 0,-1.07547 -0.0924,-1.81486 -0.15124,-2.32739 l 1.9913,4.69679 h 1.43677 z"
               id="path2040" />
          </g>
          <g
             aria-label="MOSQUE"
             id="text2006"
             style="font-weight:200;font-size:14.3952px;font-family:'Fira Sans';-inkscape-font-specification:'Fira Sans, Ultra-Light';letter-spacing:0px;baseline-shift:baseline;opacity:1;fill:#ffffff;stroke-width:1.95543;stop-color:#000000;stop-opacity:1">
            <path
               d="m 308.87102,129.35774 h -0.76295 l -2.63432,8.01812 -2.6919,-8.01812 h -0.74855 l -1.00767,9.81752 h 0.48944 l 0.48944,-5.00953 c 0.15834,-1.55468 0.37427,-3.51243 0.43185,-4.36174 l 2.79267,8.17647 h 0.47504 l 2.73509,-8.17647 c 0.072,0.95008 0.27351,2.86464 0.44625,4.4769 l 0.53262,4.89437 h 0.48944 z"
               style="baseline-shift:baseline;stop-color:#000000;stop-opacity:1"
               id="path2043" />
            <path
               d="m 315.80951,129.19939 c -2.30323,0 -3.9011,1.84258 -3.9011,5.0959 0,3.23892 1.58347,5.02392 3.9011,5.02392 2.404,0 3.9011,-1.84258 3.9011,-5.03832 0,-3.32529 -1.56908,-5.0815 -3.9011,-5.0815 z m 0,0.47504 c 2.02972,0 3.38287,1.5115 3.38287,4.60646 0,3.023 -1.28117,4.57768 -3.38287,4.57768 -1.98654,0 -3.38287,-1.55468 -3.38287,-4.56328 0,-3.08057 1.38194,-4.62086 3.38287,-4.62086 z"
               style="baseline-shift:baseline;stop-color:#000000;stop-opacity:1"
               id="path2045" />
            <path
               d="m 324.51863,129.19939 c -1.65545,0 -2.73509,1.00766 -2.73509,2.31763 0,1.32435 0.73415,1.97214 2.72069,2.59113 1.8138,0.56141 2.47598,1.07964 2.47598,2.44719 0,1.41073 -1.05085,2.30323 -2.59114,2.30323 -1.1948,0 -1.95775,-0.43186 -2.66311,-1.07964 l -0.33109,0.34548 c 0.80613,0.71976 1.71303,1.1948 3.0086,1.1948 1.81379,0 3.08057,-1.12282 3.08057,-2.79266 0,-1.62666 -0.87811,-2.27445 -2.79267,-2.85025 -1.75621,-0.53263 -2.3896,-1.02206 -2.3896,-2.15928 0,-1.09404 0.86371,-1.84259 2.23125,-1.84259 0.96448,0 1.61226,0.27351 2.33202,0.92129 l 0.3167,-0.34548 c -0.71976,-0.64779 -1.43952,-1.05085 -2.66311,-1.05085 z"
               style="baseline-shift:baseline;stop-color:#000000;stop-opacity:1"
               id="path2047" />
            <path
               d="m 334.62406,138.98812 c 1.4971,-0.40306 2.64871,-1.81379 2.64871,-4.70723 0,-3.32529 -1.56907,-5.0815 -3.9011,-5.0815 -2.30323,0 -3.9011,1.84258 -3.9011,5.0959 0,3.23892 1.58348,4.99513 3.9011,4.99513 1.72743,0 2.82146,0.21593 3.85792,1.10843 l 0.34548,-0.41746 c -0.80613,-0.71976 -1.90017,-0.96447 -2.95101,-0.99327 z m -4.63526,-4.69283 c 0,-3.08057 1.38194,-4.62086 3.38287,-4.62086 2.02973,0 3.38287,1.5115 3.38287,4.60646 0,3.023 -1.28117,4.57768 -3.38287,4.57768 -1.98653,0 -3.38287,-1.55468 -3.38287,-4.56328 z"
               style="baseline-shift:baseline;stop-color:#000000;stop-opacity:1"
               id="path2049" />
            <path
               d="m 345.83791,129.35774 h -0.51823 v 6.76574 c 0,1.59787 -0.71976,2.73509 -2.54795,2.73509 -1.82819,0 -2.57674,-1.10843 -2.57674,-2.73509 v -6.76574 h -0.50384 v 6.80893 c 0,1.84258 0.93569,3.15254 3.08058,3.15254 2.11609,0 3.06618,-1.30996 3.06618,-3.15254 z"
               style="baseline-shift:baseline;stop-color:#000000;stop-opacity:1"
               id="path2051" />
            <path
               d="m 353.85602,129.35774 h -4.75042 v 9.81752 h 4.83679 v -0.46064 h -4.33295 v -4.47691 h 3.61319 v -0.44625 h -3.61319 v -3.97308 h 4.1746 z"
               style="baseline-shift:baseline;stop-color:#000000;stop-opacity:1"
               id="path2053" />
          </g>
        </g>
      </g>
    </g>
  </g>
  <metadata
     id="metadata5284">
    <rdf:RDF>
      <cc:Work
         rdf:about="">
        <cc:license
           rdf:resource="http://creativecommons.org/licenses/by-nc-sa/4.0/" />
        <dc:title>Al-Mujahidin Mosque Logo</dc:title>
        <dc:creator>
          <cc:Agent>
            <dc:title>Hervy Qurrotul Ainur Rozi</dc:title>
          </cc:Agent>
        </dc:creator>
      </cc:Work>
      <cc:License
         rdf:about="http://creativecommons.org/licenses/by-nc-sa/4.0/">
        <cc:permits
           rdf:resource="http://creativecommons.org/ns#Reproduction" />
        <cc:permits
           rdf:resource="http://creativecommons.org/ns#Distribution" />
        <cc:requires
           rdf:resource="http://creativecommons.org/ns#Notice" />
        <cc:requires
           rdf:resource="http://creativecommons.org/ns#Attribution" />
        <cc:prohibits
           rdf:resource="http://creativecommons.org/ns#CommercialUse" />
        <cc:permits
           rdf:resource="http://creativecommons.org/ns#DerivativeWorks" />
        <cc:requires
           rdf:resource="http://creativecommons.org/ns#ShareAlike" />
      </cc:License>
    </rdf:RDF>
  </metadata>
</svg>
