<?xml version="1.0" encoding="UTF-8" standalone="no"?>
<!-- Created with Inkscape (http://www.inkscape.org/) -->

<svg
   width="200"
   height="69.442726"
   viewBox="0 0 52.916667 18.373389"
   version="1.1"
   id="svg5"
   inkscape:version="1.2.1 (9c6d41e410, 2022-07-14)"
   sodipodi:docname="logo.svg"
   xmlns:inkscape="http://www.inkscape.org/namespaces/inkscape"
   xmlns:sodipodi="http://sodipodi.sourceforge.net/DTD/sodipodi-0.dtd"
   xmlns="http://www.w3.org/2000/svg"
   xmlns:svg="http://www.w3.org/2000/svg"
   xmlns:rdf="http://www.w3.org/1999/02/22-rdf-syntax-ns#"
   xmlns:cc="http://creativecommons.org/ns#"
   xmlns:dc="http://purl.org/dc/elements/1.1/">
  <title
     id="title5288">Al-Mujahidin Mosque Logo</title>
  <sodipodi:namedview
     id="namedview7"
     pagecolor="#ffffff"
     bordercolor="#000000"
     borderopacity="0.25"
     inkscape:showpageshadow="2"
     inkscape:pageopacity="0.0"
     inkscape:pagecheckerboard="0"
     inkscape:deskcolor="#d1d1d1"
     inkscape:document-units="px"
     showgrid="false"
     inkscape:zoom="2.0703423"
     inkscape:cx="135.96785"
     inkscape:cy="10.384756"
     inkscape:window-width="1366"
     inkscape:window-height="707"
     inkscape:window-x="0"
     inkscape:window-y="0"
     inkscape:window-maximized="1"
     inkscape:current-layer="g1987" />
  <defs
     id="defs2" />
  <g
     inkscape:label="Layer 1"
     inkscape:groupmode="layer"
     id="layer1"
     transform="translate(-71.57589,-134.74264)">
    <g
       id="g1987"
       transform="matrix(1.1582427,0,0,1.1582427,-11.533441,-18.521194)">
      <path
         id="path4753"
         style="font-size:11.1337px;font-family:'Amiri Quran';-inkscape-font-specification:'Amiri Quran, Normal';fill:#ffffff;stroke-width:2.36262;stroke-opacity:0.509375"
         d="m 100.74279,133.5108 c -0.008,-2.2e-4 -0.0157,4.3e-4 -0.0237,0.002 -0.19918,0.0318 -0.35519,0.18769 -0.46837,0.46837 -0.0453,0.10864 -0.0204,0.20824 0.0747,0.29878 0.0544,0.0498 0.14012,0.10651 0.25783,0.16989 -0.2173,0.28068 -0.50921,0.52727 -0.875895,0.74005 -0.08602,0.0453 -0.112991,0.0996 -0.08131,0.16294 0.03176,0.0498 0.08357,0.0543 0.156014,0.0136 0.357641,-0.17655 0.678931,-0.45013 0.964141,-0.82135 0.0634,0.0363 0.11799,0.0611 0.16325,0.0747 0.0363,0.0136 0.0656,-2.4e-4 0.0883,-0.041 l 0.0677,-0.1289 c 0.0317,-0.0589 0.0204,-0.0996 -0.034,-0.1223 -0.0181,-0.004 -0.0385,-0.0136 -0.0611,-0.027 -0.0181,-0.0181 -0.0451,-0.0361 -0.0813,-0.0543 0.10412,-0.26257 0.10412,-0.47318 0,-0.63161 -0.0435,-0.0674 -0.0923,-0.10192 -0.14625,-0.10339 z m 5.60202,0 c -0.008,-2.2e-4 -0.0153,4.3e-4 -0.0233,0.002 -0.19919,0.0318 -0.35549,0.18769 -0.46867,0.46837 -0.0453,0.10864 -0.0203,0.20824 0.0747,0.29878 0.0544,0.0498 0.14043,0.10651 0.25813,0.16989 -0.2173,0.28068 -0.50919,0.52727 -0.87588,0.74005 -0.086,0.0453 -0.11331,0.0996 -0.0816,0.16294 0.0318,0.0498 0.0839,0.0543 0.15633,0.0136 0.35764,-0.17655 0.67894,-0.45013 0.96413,-0.82135 0.0634,0.0363 0.11768,0.0611 0.16296,0.0747 0.0363,0.0136 0.0656,-2.4e-4 0.0883,-0.041 l 0.0681,-0.1289 c 0.0317,-0.0589 0.0203,-0.0996 -0.034,-0.1223 -0.0181,-0.004 -0.0385,-0.0136 -0.0611,-0.027 -0.0181,-0.0181 -0.045,-0.0361 -0.0813,-0.0543 0.10412,-0.26257 0.10412,-0.47318 0,-0.63161 -0.0435,-0.0674 -0.0926,-0.10192 -0.14655,-0.10339 z m -5.80878,0.33881 c 0.0345,-6e-4 0.073,0.0182 0.11536,0.0564 0.0633,0.0497 0.0858,0.13829 0.0677,0.26506 -0.13129,-0.0633 -0.21739,-0.11559 -0.25813,-0.15633 -0.0362,-0.0363 -0.0452,-0.0657 -0.027,-0.0883 0.0288,-0.0505 0.063,-0.0762 0.10211,-0.0769 z m 5.60202,0 c 0.0345,-6e-4 0.0729,0.0182 0.11536,0.0564 0.0633,0.0497 0.0861,0.13829 0.0681,0.26506 -0.13129,-0.0633 -0.21739,-0.11559 -0.25814,-0.15633 -0.0362,-0.0363 -0.0452,-0.0657 -0.027,-0.0883 0.0288,-0.0505 0.0627,-0.0762 0.1018,-0.0769 z m -16.238737,0.23292 c -0.144225,0.003 -0.270384,0.10258 -0.377901,0.29879 -0.02263,0.0453 -0.04513,0.093 -0.06777,0.14278 -0.01811,0.0498 -0.03161,0.1041 -0.04065,0.16295 -0.0679,0.42554 0.07908,0.65205 0.441252,0.67921 0.172028,0.0136 0.319337,-0.0206 0.441567,-0.10212 0.162974,-0.1177 0.237675,-0.29859 0.224095,-0.54306 -0.01359,-0.19466 -0.113182,-0.36447 -0.298792,-0.50933 -0.115864,-0.0883 -0.223119,-0.13135 -0.321799,-0.12922 z m 23.060817,0 c -0.14421,0.003 -0.27038,0.10258 -0.3779,0.29879 -0.0226,0.0453 -0.0451,0.093 -0.0677,0.14278 -0.0181,0.0498 -0.0316,0.1041 -0.0407,0.16295 -0.0678,0.42554 0.0791,0.65205 0.44126,0.67921 0.17203,0.0136 0.31934,-0.0206 0.44156,-0.10212 0.16298,-0.1177 0.23768,-0.29859 0.2241,-0.54306 -0.0136,-0.19466 -0.11319,-0.36447 -0.2988,-0.50933 -0.11586,-0.0883 -0.22311,-0.13135 -0.32179,-0.12922 z m -24.032204,0.16106 c -0.01953,2e-4 -0.04807,0.0121 -0.08541,0.0359 l -1.276797,0.78764 c -0.07243,0.0589 -0.108421,0.10655 -0.108421,0.14278 v 0.10179 c 0,0.077 0.03599,0.0953 0.108421,0.0546 l 1.188547,-0.68614 c 0.07696,-0.0453 0.122262,-0.0927 0.135843,-0.14246 l 0.06115,-0.19699 c 0.01698,-0.0651 0.0092,-0.0974 -0.02333,-0.097 z m 10.810379,0 c -0.01947,2e-4 -0.04778,0.0121 -0.08514,0.0359 l -1.276804,0.78764 c -0.07244,0.0589 -0.108739,0.10655 -0.108739,0.14278 v 0.10179 c 0,0.077 0.03631,0.0953 0.108739,0.0546 l 1.188548,-0.68614 c 0.07698,-0.0453 0.121948,-0.0927 0.135525,-0.14246 l 0.06115,-0.19699 c 0.01691,-0.0651 0.0088,-0.0974 -0.0233,-0.097 z m 17.404285,0 c -0.0195,2e-4 -0.0478,0.0121 -0.0851,0.0359 l -1.27681,0.78764 c -0.0725,0.0589 -0.10873,0.10655 -0.10873,0.14278 v 0.10179 c 0,0.077 0.0363,0.0953 0.10873,0.0546 l 1.18855,-0.68614 c 0.077,-0.0453 0.12195,-0.0927 0.13553,-0.14246 l 0.0611,-0.19699 c 0.0169,-0.0651 0.009,-0.0974 -0.0233,-0.097 z m -27.283305,0.23953 c 0.0051,-1e-5 0.0102,1.7e-4 0.01544,3.2e-4 0.140338,0 0.260341,0.0498 0.359936,0.1494 0.13581,0.1358 0.137904,0.22158 0.0067,0.25781 -0.190136,0.0544 -0.364439,0.0544 -0.522885,0 -0.07244,-0.0271 -0.108422,-0.0905 -0.108422,-0.19006 0.0088,-0.1447 0.09183,-0.21718 0.249307,-0.21747 z m 23.060825,0 c 0.005,-1e-5 0.0102,1.7e-4 0.0154,3.2e-4 0.14034,0 0.26034,0.0498 0.35993,0.1494 0.13581,0.1358 0.13791,0.22158 0.006,0.25781 -0.19014,0.0544 -0.36444,0.0544 -0.52288,0 -0.0725,-0.0271 -0.10843,-0.0905 -0.10843,-0.19006 0.009,-0.1447 0.0918,-0.21718 0.24931,-0.21747 z m -11.88169,1.46023 c -0.0271,0 -0.0475,0.0114 -0.0611,0.034 l -0.11535,0.30541 c -0.0181,0.0544 -0.0136,0.12003 0.0136,0.19698 0.0136,0.0363 0.0385,0.14242 0.0747,0.31896 0.0318,0.17656 0.0725,0.42557 0.1223,0.74699 0.0363,0.21276 0.0632,0.38048 0.0813,0.50272 0.0181,0.12221 0.0295,0.20141 0.034,0.23764 9.8e-4,0.02 0.004,0.0388 0.006,0.057 -0.48152,0.0976 -1.1647,0.41354 -2.04961,0.94775 -0.05884,0.0293 -0.117641,0.0837 -0.1765,0.16326 -0.03624,0.0497 -0.06803,0.0972 -0.09519,0.14246 -0.02712,0.0453 -0.04754,0.093 -0.06118,0.14279 -0.0042,0.0316 0.01138,0.0476 0.04755,0.0476 0.117712,-0.009 0.242212,-0.009 0.373495,0 0.13581,0.009 0.27381,0.0247 0.414149,0.0473 0.144865,0.0226 0.278355,0.0521 0.400586,0.0883 0.12223,0.0318 0.23324,0.0725 0.33284,0.12228 0.0318,0.0137 0.0297,0.027 -0.006,0.0407 -0.004,0 -0.009,0.002 -0.0139,0.007 -0.004,0 -0.0111,0.002 -0.0203,0.006 -0.009,0.004 -0.0724,0.0229 -0.19005,0.0546 -0.11318,0.0271 -0.278484,0.0679 -0.495776,0.12228 -0.443652,0.1132 -0.735866,0.172 -0.876204,0.17651 -0.0022,5e-5 -0.0029,2.3e-4 -0.0049,3.2e-4 -6.07e-4,-5e-5 -0.0014,-2.7e-4 -0.0022,-3.2e-4 -0.421029,-0.0271 -0.647537,-0.24917 -0.679214,-0.66566 -0.0042,-0.0996 -0.01561,-0.2919 -0.0337,-0.57709 -0.01357,-0.28521 -0.03193,-0.66322 -0.05454,-1.13403 -0.02712,-0.49796 -0.08146,-1.09767 -0.162951,-1.79937 -0.01357,-0.0951 -0.03158,-0.14277 -0.05426,-0.14277 -0.01357,-0.004 -0.02952,0.009 -0.04754,0.0407 l -0.217156,0.35332 c -0.02712,0.0453 -0.03412,0.10167 -0.02049,0.16956 0.06789,0.37123 0.122197,0.70393 0.162944,0.99819 0.04076,0.28973 0.06803,0.67013 0.08163,1.14095 0.009,0.23541 0.01808,0.47091 0.02706,0.70633 0.01357,0.23086 0.02953,0.46157 0.04754,0.69245 0.04076,0.55229 0.357543,0.82861 0.950587,0.82861 0.172023,0 0.477417,-0.0816 0.916541,-0.24459 0.221834,-0.0815 0.394039,-0.14237 0.516269,-0.18312 0.12222,-0.0453 0.19452,-0.0702 0.21716,-0.0747 0.61569,-0.18561 1.29248,-0.25821 2.0304,-0.21747 0.0543,0.009 0.093,-0.009 0.11567,-0.0543 l 0.20361,-0.35995 c 0.0181,-0.0363 0.0202,-0.0701 0.006,-0.1018 -0.0137,-0.0316 -0.0405,-0.0455 -0.0813,-0.041 -0.31689,0.0363 -0.7537,0.0158 -1.31053,-0.0611 -0.27614,-0.0363 -0.53895,-0.0836 -0.78794,-0.14247 -0.24899,-0.0588 -0.47968,-0.13115 -0.692448,-0.21716 -0.06961,-0.0261 -0.135889,-0.0477 -0.199202,-0.0649 0.58357,-0.31488 1.02805,-0.46303 1.33322,-0.44441 0.31689,0.0226 0.6565,0.16722 1.01866,0.43432 0.0181,0.0136 0.0337,0.004 0.0473,-0.027 0.0634,-0.17202 0.1042,-0.36883 0.1223,-0.59065 0.004,-0.0363 -0.007,-0.0657 -0.034,-0.0883 -0.19002,-0.14028 -0.3687,-0.22641 -0.53612,-0.25814 h -3.2e-4 c -0.0239,-0.005 -0.049,-0.009 -0.075,-0.0117 -0.0315,-0.0136 -0.0631,-0.0459 -0.0946,-0.097 -0.0408,-0.0725 -0.086,-0.31213 -0.13584,-0.71956 -0.0226,-0.20372 -0.0406,-0.35762 -0.0543,-0.46173 -0.0136,-0.10867 -0.0204,-0.16537 -0.0204,-0.16988 0,-0.004 0.0249,-0.043 0.0747,-0.11536 0.0226,-0.0363 0.0431,-0.0656 0.0611,-0.0883 0.0181,-0.0272 0.0316,-0.05 0.0407,-0.0681 0.0181,-0.0408 0.006,-0.0791 -0.034,-0.11536 -0.12675,-0.12222 -0.23294,-0.28753 -0.31895,-0.49578 -0.004,-0.0271 -0.025,-0.0407 -0.0611,-0.0407 z m 2.75185,0.4006 c -0.0306,0.002 -0.0697,0.059 -0.11724,0.16988 l -0.16957,0.39366 c -0.0271,0.0634 -0.0362,0.14049 -0.027,0.23104 l 0.14939,1.22888 c 0.0951,0.84205 0.14246,1.27226 0.14246,1.29035 0.0634,0.47534 0.0907,0.90314 0.0816,1.28342 0,0.0543 0.009,0.0927 0.027,0.11535 0.0181,0.0271 0.0431,0.0137 0.0747,-0.0407 0.21277,-0.40291 0.23317,-1.35362 0.0612,-2.85207 l -0.15633,-1.66385 c -0.0136,-0.10637 -0.0356,-0.15827 -0.0662,-0.15601 z m -10.382366,1.2623 c -0.02575,4.7e-4 -0.04454,0.0165 -0.05641,0.0483 -0.01359,0.0363 -0.03399,0.084 -0.06115,0.14278 -0.02716,0.0544 -0.05897,0.11972 -0.09519,0.19668 -0.02716,0.0544 -0.03375,0.13143 -0.02016,0.23102 0.009,0.0498 0.02255,0.147 0.04065,0.29187 0.01811,0.14033 0.043,0.32364 0.0747,0.54998 0.0679,0.45723 0.09971,0.69965 0.09519,0.72681 -0.05885,0.18561 -0.174355,0.3122 -0.346384,0.38011 -0.35311,0.14033 -0.749423,0.16314 -1.188546,0.0681 -0.08148,-0.0181 -0.142377,-0.0928 -0.18312,-0.22408 -0.01811,-0.0634 -0.04991,-0.0928 -0.09519,-0.0883 -0.04526,0.004 -0.07917,0.0405 -0.101803,0.10842 -0.181081,0.56588 -0.08389,0.8626 0.291858,0.88976 0.484393,0.0317 0.864804,-0.009 1.140954,-0.12229 0.217298,-0.086 0.398506,-0.32152 0.543371,-0.70633 0.01359,-0.0408 0.02708,-0.0428 0.04065,-0.006 l 0.01355,0.0612 c 0.009,0.0363 0.02255,0.0926 0.04065,0.16956 0.108649,0.47535 0.310259,0.72227 0.604516,0.74036 0.172028,0 0.472924,-0.19261 0.902993,-0.57741 0.407433,0.15392 0.794434,0.25143 1.161126,0.29217 0.140338,0.0137 0.258248,-0.0363 0.353319,-0.14939 0.190134,-0.22636 0.260339,-0.49126 0.210536,-0.79457 -0.04076,-0.24446 -0.267248,-0.56127 -0.679208,-0.95059 -0.416494,-0.39384 -0.721886,-0.59544 -0.916549,-0.60451 -0.190136,-0.009 -0.339538,0.19014 -0.448187,0.59758 -0.01359,0.0497 0.0065,0.0791 0.06083,0.0883 0.09959,0.0136 0.172203,0.0568 0.217474,0.12922 -0.235406,0.20824 -0.400711,0.45934 -0.495778,0.75359 -0.05885,0.17655 -0.02495,0.31455 0.101802,0.41414 -0.140338,0.10411 -0.296331,0.16773 -0.468357,0.19038 -0.135812,-0.0318 -0.23782,-0.20149 -0.305726,-0.50933 -0.06338,-0.28069 -0.126676,-0.60889 -0.190054,-0.98463 -0.05885,-0.38028 -0.115558,-0.80809 -0.169883,-1.28341 -0.0045,-0.0363 -0.02493,-0.0591 -0.06115,-0.0681 -0.0039,-5.7e-4 -0.0077,-6.1e-4 -0.01135,-6.1e-4 z m 13.594686,0 c -0.0258,4.7e-4 -0.0445,0.0165 -0.0564,0.0483 -0.0137,0.0363 -0.034,0.084 -0.0612,0.14278 -0.0271,0.0544 -0.0586,0.11972 -0.0949,0.19668 -0.0271,0.0544 -0.0341,0.13143 -0.0204,0.23102 0.009,0.0498 0.0225,0.147 0.0407,0.29187 0.0181,0.14033 0.0431,0.32364 0.0747,0.54998 0.0679,0.45723 0.0997,0.69965 0.0952,0.72681 -0.0588,0.18561 -0.17437,0.3122 -0.34639,0.38011 -0.35311,0.14033 -0.74911,0.16314 -1.18823,0.0681 -0.0815,-0.0181 -0.1427,-0.0928 -0.18344,-0.22408 -0.0181,-0.0634 -0.0498,-0.0928 -0.0952,-0.0883 -0.0453,0.004 -0.0792,0.0405 -0.10181,0.10842 -0.18107,0.56588 -0.0836,0.8626 0.29218,0.88976 0.48439,0.0317 0.86449,-0.009 1.14064,-0.12229 0.21729,-0.086 0.3985,-0.32152 0.54337,-0.70633 0.0136,-0.0408 0.027,-0.0428 0.0407,-0.006 l 0.0136,0.0612 c 0.009,0.0363 0.0225,0.0926 0.0407,0.16956 0.10865,0.47535 0.31027,0.72227 0.60453,0.74036 0.28973,0 0.62002,-0.0726 0.99123,-0.21747 0.18562,-0.077 0.42113,-0.18106 0.70632,-0.31235 0.14487,-0.0678 0.26487,-0.1222 0.35995,-0.16295 0.0951,-0.0408 0.16526,-0.0702 0.21053,-0.0883 -0.0634,0.29427 -0.0703,0.47997 -0.0204,0.55693 0.15844,0.27162 0.62014,0.34633 1.38521,0.22409 3.3e-4,-6e-5 6.1e-4,-2.4e-4 9.8e-4,-3.1e-4 0.19638,-0.002 0.38168,-0.0901 0.55598,-0.26444 0.13129,0.17656 0.32358,0.26475 0.57709,0.26475 0.25806,0 0.47556,-0.1041 0.65213,-0.31234 0.16296,0.25351 0.40506,0.37352 0.72648,0.35994 0.10412,-0.009 0.19231,-0.0613 0.26475,-0.15633 0.0679,-0.0951 0.14501,-0.28287 0.23103,-0.56355 0.0137,-0.0271 0.0247,-0.0271 0.0338,0 0.17075,0.44487 0.43984,0.669 0.80686,0.67228 0.002,2e-5 0.006,0 0.008,0 9.8e-4,-2e-5 0.002,-2.9e-4 0.003,-3.1e-4 0.29465,-0.006 0.54721,-0.30279 0.75769,-0.88944 0.26709,0.22635 0.57489,0.38956 0.92347,0.48916 0.0544,0.0137 0.0975,-0.002 0.12924,-0.0476 l 0.37348,-0.46867 c 0.0226,-0.0271 0.0293,-0.0656 0.0203,-0.11536 -0.11314,-0.74216 -0.32364,-1.11808 -0.6313,-1.12739 h -3.2e-4 c -0.20359,1.4e-4 -0.38469,0.14054 -0.54306,0.42108 -0.23088,0.41195 -0.37819,0.66096 -0.44156,0.74698 -0.18868,0.24709 -0.38604,0.37376 -0.59254,0.3801 -0.27073,-0.0279 -0.48731,-0.25193 -0.6499,-0.67196 -0.0136,-0.0363 -0.0453,-0.0546 -0.0952,-0.0546 -0.0498,0 -0.0771,0.0183 -0.0816,0.0546 -0.0679,0.28973 -0.14021,0.47303 -0.21716,0.54999 -0.077,0.077 -0.19457,0.0994 -0.35301,0.0677 -0.15392,-0.0318 -0.23794,-0.10191 -0.2515,-0.21054 -0.009,-0.0589 0.0137,-0.16055 0.0681,-0.30542 0.0226,-0.0588 0.0203,-0.10417 -0.007,-0.13584 -0.0271,-0.0317 -0.0586,-0.0407 -0.0949,-0.027 -0.0318,0.0136 -0.0611,0.0475 -0.0883,0.10181 -0.2173,0.51608 -0.59981,0.66339 -1.14757,0.44157 0.0226,-0.0363 0.0406,-0.0726 0.0543,-0.10874 0.0181,-0.0363 0.0361,-0.0701 0.0543,-0.10181 0.0317,-0.0679 0.0341,-0.12011 0.007,-0.15633 -0.0271,-0.0363 -0.059,-0.0476 -0.0952,-0.034 -0.0363,0.0137 -0.0676,0.0475 -0.0949,0.10181 h -3.2e-4 c -0.13129,0.29427 -0.42078,0.45748 -0.86895,0.48916 -0.009,9.8e-4 -0.0177,0.002 -0.0259,0.004 -0.43597,0.0581 -0.75812,0.0411 -0.96571,-0.0516 -0.0589,-0.0271 -0.10175,-0.0904 -0.12892,-0.19005 0.0905,-0.0271 0.20157,-0.0476 0.33284,-0.0611 0.13128,-0.0136 0.28068,-0.0159 0.44818,-0.007 0.0679,0 0.1084,-0.018 0.12198,-0.0543 l 0.14278,-0.42108 c 0.0226,-0.0634 0.006,-0.0952 -0.0476,-0.0952 h -0.65179 c -0.38933,-0.0408 -0.93714,-0.19015 -1.64335,-0.44818 -0.15392,-0.0544 -0.30333,-0.0405 -0.4482,0.041 -0.14486,0.077 -0.30117,0.24886 -0.46866,0.51596 -0.15846,0.25352 -0.26256,0.49352 -0.31236,0.71987 -0.004,0.0125 -0.009,0.0246 -0.0123,0.0369 -0.11961,-0.0498 -0.21059,-0.21595 -0.27294,-0.49861 -0.0634,-0.28069 -0.12668,-0.6089 -0.19006,-0.98463 -0.0588,-0.38028 -0.11556,-0.80809 -0.16989,-1.28342 -0.004,-0.0363 -0.0249,-0.0591 -0.0612,-0.0681 -0.004,-5.7e-4 -0.008,-6.1e-4 -0.0114,-6.1e-4 z m -18.742532,0.0331 c -0.01698,0 -0.02882,0.005 -0.03561,0.0151 l -0.332515,0.49579 c -0.01359,0.0136 -0.009,0.027 0.01355,0.0407 0.144866,0.086 0.255557,0.15413 0.332517,0.20392 0.07696,0.0499 0.12467,0.0813 0.142776,0.0949 0.03169,0.0271 0.05418,0.0296 0.06776,0.007 l 0.319278,-0.51627 c 0.01359,-0.0181 0.01118,-0.0361 -0.0069,-0.0542 -0.140339,-0.12676 -0.300831,-0.22187 -0.481912,-0.28524 -0.0068,-9.9e-4 -0.01325,-0.002 -0.01892,-0.002 z m 2.449899,1.14253 c -0.04526,0 -0.06808,0.0294 -0.06808,0.0883 0.009,0.18108 -0.03833,0.31698 -0.142461,0.40753 -0.0996,0.086 -0.217191,0.12199 -0.353002,0.10841 -0.09493,-0.01 -0.171177,-0.0368 -0.228506,-0.0816 -0.03521,-0.0771 -0.07677,-0.14724 -0.124812,-0.21022 -0.02716,-0.0363 -0.05207,-0.0272 -0.0747,0.027 l -0.203608,0.43463 c -0.02263,0.0544 -0.02054,0.10412 0.0067,0.1494 0.203718,0.43006 0.278419,0.83297 0.224094,1.20871 -0.009,0.0408 -0.02014,0.0701 -0.03372,0.0883 -0.335001,0.50248 -0.912207,0.74458 -1.731602,0.72649 -0.746965,-0.0137 -1.115971,-0.31898 -1.106915,-0.91654 0,-0.0815 0.02699,-0.1949 0.08132,-0.33976 0.05433,-0.1494 0.131433,-0.3327 0.231028,-0.54999 0.01359,-0.0363 0.01359,-0.0632 0,-0.0813 -0.01359,-0.0226 -0.03158,-0.034 -0.05421,-0.034 -0.03169,0 -0.0545,0.0135 -0.06808,0.0407 -0.0498,0.0951 -0.0996,0.20158 -0.149396,0.31928 -0.04981,0.11318 -0.0996,0.23977 -0.149396,0.38011 -0.117703,0.33047 -0.1765,0.5774 -0.1765,0.74036 0,0.78319 0.4368,1.17711 1.31052,1.18162 0.411962,0.004 0.776469,-0.084 1.093362,-0.26507 0.158448,-0.0906 0.294353,-0.19014 0.407528,-0.2988 0.117705,-0.10411 0.214898,-0.21721 0.291859,-0.33944 0.212767,-0.34858 0.335178,-0.77848 0.36687,-1.29004 0.0037,-0.071 0.005,-0.13954 0.0044,-0.20581 0.02746,-0.002 0.05538,-0.006 0.08384,-0.0117 0.258041,-0.0408 0.438934,-0.16734 0.543057,-0.38011 0.104122,-0.21277 0.138019,-0.48458 0.101803,-0.81506 -0.0045,-0.0544 -0.03152,-0.0813 -0.08132,-0.0813 z m 4.445309,0.58025 c 0.02774,5e-4 0.05555,0.004 0.08384,0.0104 0.122228,0.0271 0.19243,0.15857 0.210543,0.39398 0,0.0408 -0.07471,0.0995 -0.224095,0.1765 -0.221826,-0.0679 -0.371227,-0.12671 -0.448187,-0.1765 -0.07696,-0.0497 -0.09255,-0.102 -0.04728,-0.15633 0.13369,-0.16806 0.275376,-0.25079 0.425179,-0.24805 z m 0.563225,0.0842 c 0.0042,-1e-5 0.0096,0.003 0.01639,0.008 0.380277,0.23993 0.615785,0.46853 0.70632,0.68583 0.009,0.0226 -0.0029,0.0406 -0.03405,0.0542 -0.09506,0.0544 -0.405269,3e-5 -0.930412,-0.16295 0.176557,-0.23088 0.253664,-0.41868 0.231029,-0.56354 0,-0.0142 0.0035,-0.0214 0.01074,-0.0214 z m 20.859289,0.0145 c 0.0516,-9.8e-4 0.10257,0.0102 0.15349,0.034 0.1358,0.0634 0.20151,0.19239 0.19699,0.38705 -0.24899,-0.0544 -0.45269,-0.15843 -0.61114,-0.31235 0.0877,-0.0707 0.17471,-0.10697 0.26066,-0.10874 z m -8.02766,0.31802 c 0.20287,-0.002 0.48087,0.0726 0.83398,0.22535 -0.58852,0.26256 -1.05714,0.40505 -1.40572,0.4277 -0.0544,0 -0.0927,-0.0114 -0.11535,-0.034 0.14487,-0.32595 0.31467,-0.52275 0.50933,-0.59065 0.0509,-0.0181 0.11014,-0.0275 0.17776,-0.0283 z m -7.75438,1.53429 c -0.0169,1e-5 -0.0288,0.005 -0.0356,0.0151 l -0.33284,0.49579 c -0.0136,0.0137 -0.009,0.027 0.0136,0.0407 0.14487,0.086 0.25587,0.15413 0.33283,0.20391 0.077,0.0498 0.12437,0.0813 0.14246,0.0949 0.0318,0.0271 0.0542,0.0296 0.0677,0.007 l 0.31929,-0.51627 c 0.0136,-0.0181 0.0114,-0.0361 -0.006,-0.0543 -0.14033,-0.12676 -0.30114,-0.22186 -0.48223,-0.28524 -0.007,-9.9e-4 -0.0129,-0.002 -0.0186,-0.002 z m -9.873665,0.15602 c -0.01698,1e-5 -0.02883,0.006 -0.03562,0.0154 l -0.21716,0.32589 c -0.05433,-0.0408 -0.113438,-0.0794 -0.176816,-0.11566 -0.05885,-0.0363 -0.122148,-0.0656 -0.190054,-0.0883 -0.02263,-0.004 -0.03854,-3e-5 -0.04759,0.0136 l -0.298792,0.44818 c -0.01359,0.0137 -0.01118,0.025 0.0069,0.034 0.126756,0.077 0.22395,0.13816 0.291856,0.18343 0.07244,0.0453 0.117737,0.0747 0.135844,0.0883 0.02716,0.0226 0.04756,0.0247 0.06114,0.006 l 0.231028,-0.35962 c 0.104122,0.0589 0.183322,0.10386 0.237646,0.13553 0.05885,0.0363 0.09484,0.0611 0.108422,0.0747 0.02716,0.0226 0.04547,0.0274 0.05452,0.0139 l 0.291858,-0.46867 c 0.01359,-0.0181 0.01148,-0.0361 -0.0067,-0.0543 -0.06338,-0.0544 -0.131489,-0.10204 -0.203922,-0.14277 -0.07244,-0.0408 -0.147133,-0.0771 -0.224094,-0.10875 -0.0068,-9.8e-4 -0.01294,-0.002 -0.01859,-0.002 z m 18.633475,0.027 c -0.0169,1e-5 -0.0288,0.006 -0.0356,0.0154 l -0.33282,0.49577 c -0.0137,0.0137 -0.009,0.027 0.0136,0.0407 0.14488,0.086 0.25588,0.15382 0.33284,0.20361 0.077,0.0497 0.12437,0.0816 0.14247,0.0952 0.0318,0.0271 0.0546,0.0293 0.0681,0.006 l 0.31897,-0.51595 c 0.0136,-0.0181 0.0114,-0.0365 -0.006,-0.0546 -0.14035,-0.12677 -0.30117,-0.22155 -0.48224,-0.28494 -0.007,-9.8e-4 -0.0129,-0.002 -0.0186,-0.002 z m -16.302085,1.74485 c -0.01953,2.1e-4 -0.04807,0.0121 -0.08542,0.036 l -1.276481,0.78795 c -0.07244,0.0588 -0.108738,0.10624 -0.108738,0.14246 v 0.1018 c 0,0.077 0.03631,0.0953 0.108738,0.0546 l 1.188231,-0.68583 c 0.07696,-0.0453 0.122262,-0.093 0.135843,-0.14278 l 0.06115,-0.19699 c 0.01698,-0.0651 0.0092,-0.0974 -0.02333,-0.097 z m 2.865627,0 c -0.0195,2.1e-4 -0.04804,0.0121 -0.08541,0.036 l -1.276485,0.78795 c -0.07243,0.0588 -0.108737,0.10624 -0.108737,0.14246 v 0.1018 c 0,0.077 0.03631,0.0953 0.108737,0.0546 l 1.188231,-0.68583 c 0.07696,-0.0453 0.122261,-0.093 0.135845,-0.14278 l 0.06118,-0.19699 c 0.01696,-0.0651 0.0092,-0.0974 -0.02331,-0.097 z m 14.158218,0 c -0.0195,2.1e-4 -0.0478,0.0121 -0.0851,0.036 l -1.27679,0.78795 c -0.0725,0.0588 -0.10875,0.10624 -0.10875,0.14246 v 0.1018 c 0,0.077 0.0363,0.0953 0.10875,0.0546 l 1.18854,-0.68583 c 0.077,-0.0453 0.12194,-0.093 0.13553,-0.14278 l 0.0611,-0.19699 c 0.0169,-0.0651 0.009,-0.0974 -0.0233,-0.097 z" />
      <g
         id="g4836"
         transform="matrix(0.60991185,0,0,0.60991185,35.855597,61.083216)"
         style="stroke-width:1.3917">
        <path
           id="path4706"
           style="color:#000000;fill:#0e9948;fill-opacity:1;stroke-width:1.3917"
           d="m 68.70773,120.20766 c -0.146795,0 -0.29109,0.0127 -0.433566,0.0367 -1.853946,0.15836 -3.509742,1.32331 -4.71289,3.08612 -1.177882,1.7258 -1.937156,4.03213 -2.066024,6.59081 l 7.21248,-2.24792 7.212996,2.24792 c -0.12918,-2.55868 -0.890209,-4.86501 -2.068091,-6.59081 -1.203002,-1.7626 -2.856872,-2.92754 -4.710307,-3.08612 -0.142636,-0.024 -0.287631,-0.0367 -0.434598,-0.0367 z" />
        <path
           id="path4708"
           style="font-variation-settings:normal;fill:#ffffff;fill-opacity:1;stroke:none;stroke-width:0.736441;stroke-linecap:butt;stroke-linejoin:miter;stroke-miterlimit:4;stroke-dasharray:none;stroke-dashoffset:0;stroke-opacity:1;stop-color:#000000"
           d="m 68.70795,116.80579 -0.183968,1.43764 v 1.21439 l -0.255799,0.30334 v 0.4837 c -1.851334,0.16029 -3.503259,1.32465 -4.705139,3.08559 -1.177883,1.72581 -1.938918,4.03212 -2.06809,6.59082 0.151862,-2.38292 1.583482,-5.39604 2.392102,-6.35569 0.757617,-0.89913 1.565674,-1.66799 2.440161,-2.16266 -0.476765,0.51707 -0.90262,1.18195 -1.266073,1.95337 -0.739272,1.56908 -1.237165,3.61048 -1.387512,5.88595 0.1593,-2.13236 1.347245,-4.76447 1.738395,-5.53403 0.680658,-1.33917 1.572965,-2.4116 2.434994,-2.78536 -0.04387,0.0812 -0.08617,0.1681 -0.127641,0.26148 -0.243941,0.54928 -0.451066,1.3122 -0.626835,2.24793 -0.250559,1.33388 -0.430554,3.0205 -0.513664,4.90461 0.125408,-2.15842 1.074877,-6.04658 1.624707,-6.93756 0.107458,-0.24196 0.218122,-0.42053 0.312642,-0.52349 0.09452,-0.10296 0.15449,-0.12144 0.19172,-0.12144 0.03723,0 0.0972,0.0185 0.191719,0.12144 0.09452,0.10296 0.205185,0.28153 0.312643,0.52349 0.549827,0.89098 1.499299,4.77914 1.624707,6.93756 -0.08311,-1.88411 -0.263104,-3.57073 -0.513664,-4.90461 -0.175771,-0.93573 -0.382894,-1.69865 -0.626835,-2.24793 -0.04147,-0.0934 -0.08377,-0.18023 -0.127641,-0.26148 0.862027,0.37376 1.754334,1.44619 2.434994,2.78536 0.391148,0.76956 1.579095,3.40167 1.738395,5.53403 -0.150347,-2.27547 -0.648239,-4.31687 -1.387512,-5.88595 -0.363452,-0.77142 -0.789308,-1.4363 -1.266073,-1.95337 0.874487,0.49467 1.682545,1.26353 2.440161,2.16266 0.808618,0.95965 2.240238,3.97277 2.392102,6.35569 -0.129174,-2.5587 -0.890206,-4.86501 -2.068091,-6.59082 -1.201875,-1.76094 -2.853809,-2.9253 -4.705139,-3.08559 v -0.4837 l -0.255798,-0.30334 v -1.21439 z m 0,11.41067 -9.848494,3.06958 v 1.53531 l 9.848494,-3.0701 9.848494,3.0701 v -1.53531 z" />
        <path
           id="path4714"
           style="font-variation-settings:normal;fill:#0e9948;fill-opacity:1;stroke:none;stroke-width:0.736441;stroke-linecap:butt;stroke-linejoin:miter;stroke-miterlimit:4;stroke-dasharray:none;stroke-dashoffset:0;stroke-opacity:1;stop-color:#000000"
           d="m 68.70795,128.83451 -9.306925,2.9006 v 0.29972 l 9.306925,-2.90111 9.306408,2.90111 v -0.29972 z m 0,1.44746 -9.848494,3.06958 h 3.694864 a 9.7924366,4.0735264 0 0 1 6.15363,-0.90744 9.7924366,4.0735264 0 0 1 6.160864,0.90744 h 3.68763 z" />
      </g>
      <path
         id="path4838"
         style="font-size:5.31016px;font-family:'Amiri Quran';-inkscape-font-specification:'Amiri Quran, Normal';letter-spacing:0.79375px;fill:#ffffff;stroke-width:0.449165"
         d="m 105.94294,145.36096 c -0.13817,0 -0.26999,0.0279 -0.39522,0.0841 -0.12307,0.054 -0.23185,0.13045 -0.32685,0.22976 -0.0928,0.0971 -0.16633,0.21053 -0.22031,0.34009 -0.054,0.12954 -0.081,0.26894 -0.081,0.41793 0,0.15546 0.0269,0.29913 0.081,0.43085 0.054,0.12954 0.12747,0.24292 0.22031,0.34008 0.095,0.095 0.20378,0.16817 0.32685,0.22 0.12523,0.0518 0.25705,0.0779 0.39522,0.0779 0.14036,0 0.27217,-0.027 0.39525,-0.081 0.12523,-0.0561 0.23531,-0.13262 0.33032,-0.22978 0.095,-0.0993 0.16947,-0.21268 0.22345,-0.34007 0.0561,-0.12956 0.0842,-0.26895 0.0842,-0.41793 0,-0.15762 -0.028,-0.30131 -0.0842,-0.43086 -0.054,-0.1317 -0.12845,-0.24508 -0.22345,-0.34009 -0.095,-0.0971 -0.20509,-0.17163 -0.33032,-0.22345 -0.12308,-0.0518 -0.25489,-0.0776 -0.39525,-0.0776 z m 4.91935,0 c -0.13818,0 -0.27,0.0279 -0.39523,0.0841 -0.12308,0.054 -0.23216,0.13045 -0.32716,0.22976 -0.0928,0.0971 -0.16601,0.21053 -0.22,0.34009 -0.054,0.12954 -0.081,0.26894 -0.081,0.41793 0,0.17489 0.0332,0.33472 0.10023,0.47939 0.0669,0.1425 0.15887,0.26214 0.27546,0.3593 0.11661,0.095 0.24811,0.16091 0.39493,0.19762 0.10363,0.0259 0.19756,0.0625 0.28177,0.10999 0.0863,0.0476 0.16842,0.0953 0.24615,0.14279 0.0778,0.0496 0.15451,0.0915 0.23009,0.12607 0.0778,0.0346 0.15879,0.0521 0.243,0.0521 0.0971,0 0.18649,-0.0162 0.26854,-0.0486 0.0843,-0.0303 0.16955,-0.0681 0.25593,-0.11347 0,-0.004 -6.2e-4,-0.008 -0.003,-0.01 -0.004,-0.006 -0.0132,-0.0118 -0.0262,-0.0161 -0.0108,-0.004 -0.0213,-0.006 -0.0322,-0.006 -0.0108,0.002 -0.0358,0.005 -0.0747,0.01 -0.0368,0.006 -0.0861,0.01 -0.14876,0.01 -0.0821,0 -0.15125,-0.008 -0.20739,-0.0227 -0.054,-0.013 -0.10374,-0.0324 -0.14907,-0.0583 -0.0453,-0.0237 -0.0938,-0.0517 -0.14562,-0.0842 -0.0518,-0.0324 -0.11543,-0.067 -0.191,-0.1037 0.14035,-0.0453 0.26558,-0.11753 0.3757,-0.21684 0.11227,-0.0993 0.20061,-0.21828 0.26538,-0.35648 0.0648,-0.13818 0.0971,-0.28814 0.0971,-0.45008 0,-0.15761 -0.028,-0.30131 -0.0842,-0.43084 -0.054,-0.13171 -0.12845,-0.24508 -0.22346,-0.34009 -0.095,-0.0971 -0.20508,-0.17164 -0.33031,-0.22346 -0.12307,-0.0518 -0.25489,-0.0776 -0.39524,-0.0776 z m -2.42405,0.003 c -0.1058,0 -0.206,0.0227 -0.301,0.0681 -0.095,0.0453 -0.17278,0.10994 -0.23323,0.19415 -0.0583,0.0821 -0.0876,0.17926 -0.0876,0.29154 0,0.1058 0.0293,0.19774 0.0876,0.27547 0.0583,0.0778 0.12948,0.14563 0.21369,0.20392 0.0863,0.0561 0.16943,0.10789 0.24931,0.15538 0.0734,0.0411 0.14162,0.0799 0.20423,0.11661 0.0648,0.0368 0.11651,0.0798 0.1554,0.12955 0.041,0.0496 0.0614,0.11886 0.0614,0.20738 0,0.12308 -0.0378,0.21899 -0.11346,0.28808 -0.0756,0.0669 -0.16391,0.10055 -0.26539,0.10055 -0.095,0 -0.17508,-0.0185 -0.23985,-0.0552 -0.0626,-0.0388 -0.11436,-0.0863 -0.15539,-0.14246 -0.0388,-0.0561 -0.0691,-0.11018 -0.0907,-0.162 -0.0195,-0.054 -0.0323,-0.0962 -0.0388,-0.1264 -0.004,-0.0195 -0.0162,-0.029 -0.0356,-0.029 -0.0151,0 -0.0303,0.004 -0.0453,0.0129 -0.0129,0.006 -0.0248,0.015 -0.0356,0.0259 0,0.0129 0.002,0.0465 0.006,0.10054 0.006,0.054 0.0141,0.1166 0.0227,0.18785 0.0108,0.0713 0.0226,0.13815 0.0356,0.20077 0.0778,0.0151 0.16507,0.0346 0.26223,0.0583 0.0993,0.0237 0.20182,0.0356 0.30762,0.0356 0.11228,0 0.21807,-0.0237 0.31739,-0.0713 0.10148,-0.0497 0.18354,-0.11787 0.24616,-0.20424 0.0648,-0.0885 0.0974,-0.18971 0.0974,-0.30414 0,-0.0778 -0.0184,-0.14694 -0.0552,-0.20739 -0.0368,-0.0626 -0.0841,-0.11765 -0.14245,-0.16516 -0.0583,-0.0476 -0.11894,-0.0906 -0.18155,-0.12955 -0.0626,-0.0388 -0.11964,-0.0744 -0.17146,-0.10683 -0.0691,-0.0453 -0.13829,-0.0899 -0.20739,-0.13301 -0.067,-0.0432 -0.12296,-0.0926 -0.1683,-0.14876 -0.0432,-0.0561 -0.0649,-0.12634 -0.0649,-0.21055 0,-0.0518 0.0109,-0.10488 0.0324,-0.15885 0.0216,-0.054 0.0572,-0.0991 0.10685,-0.13584 0.0496,-0.0368 0.11787,-0.0552 0.20425,-0.0552 0.0669,0 0.12625,0.0162 0.17807,0.0486 0.054,0.0303 0.0991,0.0691 0.13584,0.11661 0.0388,0.0476 0.0692,0.0972 0.0907,0.14908 0.0216,0.0518 0.0345,0.0969 0.0387,0.13584 0.009,0.009 0.0204,0.0129 0.0356,0.0129 0.0108,0 0.025,-0.002 0.0422,-0.006 0.0172,-0.006 0.0247,-0.015 0.0227,-0.0259 -0.002,-0.0432 -0.008,-0.1081 -0.0164,-0.19446 -0.006,-0.0886 -0.016,-0.17387 -0.029,-0.25593 -0.0691,-0.0172 -0.12743,-0.0323 -0.17493,-0.0453 -0.0452,-0.013 -0.0908,-0.0225 -0.13616,-0.029 -0.0432,-0.009 -0.0982,-0.0129 -0.16515,-0.0129 z m -11.227996,0.003 c -0.0042,0.009 -0.0078,0.0215 -0.0097,0.0387 -0.0029,0.0172 0.0014,0.0347 0.0097,0.052 0.01293,0 0.03772,0.002 0.07438,0.006 0.03673,0.004 0.07229,0.0119 0.106847,0.0227 0.03673,0.009 0.05849,0.0195 0.06492,0.0324 0.01526,0.0237 0.0238,0.0507 0.02586,0.081 0.0042,0.0303 0.0064,0.0754 0.0064,0.13584 v 1.37324 c 0,0.0605 -0.0022,0.10594 -0.0064,0.13617 -0.0022,0.028 -0.01073,0.0541 -0.02586,0.0779 -0.0064,0.0129 -0.02826,0.0248 -0.06492,0.0356 -0.03455,0.009 -0.07015,0.0162 -0.106847,0.0227 -0.03666,0.004 -0.06139,0.006 -0.07438,0.006 -0.0085,0.0172 -0.01187,0.0347 -0.0097,0.052 0.0029,0.0172 0.0056,0.0301 0.0097,0.0387 0.04966,-0.002 0.08951,-0.005 0.119774,-0.006 0.03236,-0.002 0.06464,-0.004 0.09708,-0.006 0.03455,-0.002 0.07573,-0.003 0.123235,-0.003 0.06909,0 0.1304,0.002 0.184378,0.006 0.05397,0.002 0.112314,0.005 0.174932,0.01 0.0042,-0.0108 0.0064,-0.0257 0.0064,-0.045 0,-0.0195 -0.0042,-0.0346 -0.01293,-0.0453 -0.01723,0 -0.04429,-0.003 -0.08101,-0.01 -0.03455,-0.006 -0.06817,-0.0141 -0.100538,-0.0227 -0.03023,-0.0108 -0.04868,-0.0216 -0.05517,-0.0324 -0.01512,-0.026 -0.02472,-0.0539 -0.02896,-0.0842 -0.0022,-0.0324 -0.0029,-0.0766 -0.0029,-0.13269 v -1.43817 l 1.379854,1.74264 c 0.02373,0.028 0.04521,0.0476 0.06464,0.0583 0.02162,0.0108 0.03681,0.0161 0.04535,0.0161 0.0042,0 0.01187,-9.8e-4 0.02268,-0.003 0.01095,-0.002 0.01752,-0.008 0.0195,-0.0161 -0.0022,-0.0561 -0.0049,-0.10459 -0.0064,-0.14562 v -0.133 -0.15854 -1.28593 c 0,-0.0605 0.0014,-0.10564 0.0029,-0.13584 0.0029,-0.0303 0.01074,-0.0573 0.02586,-0.081 0.0087,-0.013 0.03038,-0.0238 0.06492,-0.0324 0.03455,-0.0108 0.07015,-0.0184 0.106847,-0.0227 0.03885,-0.004 0.06456,-0.006 0.07753,-0.006 0.0085,-0.0172 0.01187,-0.0347 0.0097,-0.052 -0.0029,-0.0172 -0.0056,-0.0301 -0.0097,-0.0387 -0.04754,0.002 -0.08836,0.004 -0.122918,0.006 -0.03235,0.002 -0.06464,0.005 -0.09708,0.006 h -0.120086 c -0.06908,0 -0.131705,-9.8e-4 -0.187845,-0.003 -0.05397,-0.004 -0.111996,-0.008 -0.174614,-0.01 -0.0029,0.009 -0.0049,0.0238 -0.0064,0.0453 0,0.0195 0.0042,0.0345 0.01293,0.0453 0.01723,0 0.04331,0.003 0.07784,0.01 0.03673,0.004 0.0713,0.0119 0.103704,0.0227 0.03236,0.009 0.05185,0.0182 0.05828,0.029 0.01738,0.0259 0.02699,0.0551 0.02896,0.0876 0.0022,0.0323 0.0029,0.0766 0.0029,0.13268 v 1.19832 c -0.06908,-0.0971 -0.15116,-0.20494 -0.24616,-0.3237 -0.095,-0.1209 -0.193209,-0.24316 -0.294693,-0.36623 -0.101478,-0.12307 -0.199692,-0.24172 -0.294693,-0.35616 -0.09501,-0.11659 -0.178372,-0.22008 -0.249623,-0.31076 -0.07124,-0.0906 -0.122974,-0.16088 -0.155385,-0.21054 -0.02162,0.002 -0.05517,0.003 -0.100539,0.003 h -0.139003 v -6.1e-4 c -0.05185,0 -0.10027,-6.1e-4 -0.145609,-0.003 -0.04528,-0.004 -0.104663,-0.008 -0.178076,-0.01 z m 19.601706,0.004 c -0.17057,0 -0.34556,0.003 -0.52477,0.01 -0.1792,0.006 -0.34333,0.01 -0.49231,0.01 l -3.1e-4,-6.1e-4 c -0.0605,0 -0.12178,-9.8e-4 -0.18438,-0.003 -0.0626,-0.004 -0.12655,-0.008 -0.19132,-0.01 -0.009,0.009 -0.013,0.0238 -0.013,0.0453 0.002,0.0216 0.006,0.0368 0.013,0.0453 0.0129,0 0.0367,0.002 0.0713,0.006 0.0345,0.002 0.0671,0.006 0.0974,0.0129 0.0325,0.006 0.0496,0.0163 0.0516,0.0293 0.009,0.026 0.0129,0.0606 0.0129,0.10369 0.002,0.0411 0.003,0.0852 0.003,0.1327 v 1.35054 c 0,0.0475 -9.9e-4,0.0916 -0.003,0.1327 0,0.0411 -0.004,0.0746 -0.0129,0.10054 -0.002,0.0108 -0.0194,0.0204 -0.0516,0.029 -0.0302,0.009 -0.0628,0.0152 -0.0974,0.0195 -0.0345,0.002 -0.0582,0.003 -0.0713,0.003 -0.006,0.009 -0.0109,0.0238 -0.013,0.0453 0,0.0216 0.004,0.0368 0.013,0.0453 0.0626,0 0.12324,-0.002 0.18154,-0.006 0.0583,-0.002 0.1242,-0.003 0.19762,-0.003 0.21159,0 0.40144,0.002 0.56985,0.006 0.16842,0.004 0.33813,0.006 0.5087,0.006 0.0108,-0.0691 0.0332,-0.15215 0.0677,-0.24932 0.0368,-0.0971 0.0704,-0.18878 0.10054,-0.27515 -0.0129,-0.013 -0.039,-0.0195 -0.0779,-0.0195 -0.026,0 -0.0411,0.006 -0.0453,0.0195 -0.026,0.0669 -0.0526,0.12956 -0.0807,0.18785 -0.028,0.0561 -0.067,0.0993 -0.11661,0.12954 -0.0432,0.028 -0.10152,0.0495 -0.17493,0.0647 -0.0734,0.0151 -0.14789,0.0227 -0.22346,0.0227 h -0.15224 c -0.067,0 -0.11671,-6.1e-4 -0.14907,-0.003 -0.0303,-0.004 -0.0562,-0.0142 -0.0779,-0.0293 -0.009,-0.006 -0.0141,-0.0335 -0.0161,-0.081 v -0.11662 -0.0195 -0.60231 c 0,-0.0109 0.0129,-0.0175 0.0388,-0.0195 0.026,-0.004 0.0562,-0.006 0.0907,-0.006 0.0368,-0.002 0.069,-0.003 0.097,-0.003 0.0411,0 0.0842,9.8e-4 0.12955,0.003 0.0475,0 0.0906,0.002 0.12954,0.006 0.0388,0.002 0.0638,0.008 0.0747,0.0164 0.0108,0.006 0.0195,0.015 0.0259,0.0259 0.009,0.009 0.0172,0.027 0.0259,0.055 0.0108,0.026 0.024,0.0691 0.039,0.12954 0.006,0.0151 0.0226,0.0227 0.0486,0.0227 0.026,0 0.0431,-0.004 0.0516,-0.013 v -0.596 c -0.0108,-0.0108 -0.029,-0.0161 -0.0549,-0.0161 -0.0282,0 -0.0434,0.008 -0.0453,0.0227 -0.013,0.0518 -0.0248,0.0927 -0.0356,0.12292 -0.0108,0.0302 -0.026,0.0529 -0.0453,0.0681 -0.0195,0.0151 -0.0507,0.025 -0.0939,0.0293 -0.041,0.004 -0.0994,0.006 -0.17492,0.006 h -0.16516 c -0.0346,0 -0.0659,-9.9e-4 -0.0939,-0.003 -0.028,-0.002 -0.0419,-0.008 -0.0419,-0.0161 v -0.5894 -0.0356 -0.10685 c 0.002,-0.0345 0.006,-0.0626 0.0129,-0.0842 0.004,-0.0108 0.0214,-0.0184 0.0516,-0.0227 0.0302,-0.004 0.0625,-0.006 0.097,-0.006 0.0345,-0.002 0.0583,-0.003 0.0713,-0.003 h 0.27231 c 0.0843,0 0.15738,0.0175 0.22,0.0521 0.0626,0.0345 0.11137,0.11562 0.14593,0.243 0.002,0.0151 0.017,0.0227 0.045,0.0227 0.026,0 0.0443,-0.006 0.0552,-0.0164 -0.015,-0.0713 -0.0313,-0.14046 -0.0486,-0.2074 -0.0172,-0.0668 -0.0312,-0.1401 -0.0419,-0.21999 z m -43.582228,0.003 c -0.01511,0 -0.03785,0.0109 -0.06808,0.0324 -0.02807,0.0216 -0.04652,0.0411 -0.05515,0.0583 -0.03238,0.082 -0.07028,0.17697 -0.113465,0.28492 -0.04103,0.10796 -0.08419,0.22134 -0.129539,0.34009 -0.04534,0.1166 -0.0905,0.23095 -0.135844,0.34323 -0.04318,0.11012 -0.08207,0.21063 -0.116616,0.30132 -0.03455,0.0906 -0.06257,0.16286 -0.08416,0.21684 l -0.02931,0.0779 v -6.1e-4 c -0.02159,0.0561 -0.04433,0.11018 -0.06808,0.162 -0.02159,0.0496 -0.0483,0.0949 -0.08069,0.13584 -0.01511,0.0216 -0.04641,0.038 -0.09392,0.0489 -0.04534,0.009 -0.07796,0.0129 -0.09739,0.0129 -0.0043,0.0108 -0.0063,0.0279 -0.0063,0.0516 0,0.0216 0.002,0.0345 0.0063,0.0387 0.04966,-0.002 0.09085,-0.004 0.123236,-0.006 0.03238,-0.002 0.06469,-0.005 0.09707,-0.006 0.03239,-0.002 0.07227,-0.003 0.119769,-0.003 0.0475,0 0.08539,6.1e-4 0.113465,0.003 0.03023,0.002 0.05923,0.005 0.0873,0.006 0.03023,0.002 0.06582,0.004 0.106846,0.006 0.0043,-0.0108 0.0056,-0.0269 0.0034,-0.0486 -0.0022,-0.0238 -0.0054,-0.0377 -0.0097,-0.0419 -0.0087,0 -0.03137,-0.002 -0.06808,-0.006 -0.03455,-0.004 -0.06915,-0.0129 -0.103695,-0.0259 -0.03238,-0.0151 -0.04854,-0.0346 -0.04854,-0.0583 0,-0.0216 0.0024,-0.0509 0.0067,-0.0876 0.0065,-0.0368 0.01934,-0.0819 0.03876,-0.13583 0.01727,-0.0518 0.03671,-0.10686 0.05831,-0.16516 0.02375,-0.0605 0.04319,-0.11252 0.05831,-0.1557 l 0.02584,-0.0647 0.0067,-0.003 c 0.0043,-0.004 0.0076,-0.006 0.0097,-0.006 0.07125,-0.004 0.129267,-0.006 0.174609,-0.006 0.04534,-0.002 0.10038,-0.003 0.165156,-0.003 h 0.02931 0.03247 0.132691 c 0.04751,0 0.08738,6.1e-4 0.119769,0.003 0.0043,0 0.0087,0.002 0.01293,0.006 l 0.0067,0.006 0.01954,0.0551 c 0.01512,0.0345 0.03325,0.08 0.05485,0.13617 0.02159,0.054 0.04334,0.11 0.06493,0.1683 0.02159,0.0583 0.03874,0.11104 0.05169,0.15854 0.01512,0.0453 0.0227,0.078 0.0227,0.0974 0,0.0216 -0.0042,0.0365 -0.01293,0.045 -0.01511,0.013 -0.04313,0.0239 -0.08416,0.0324 -0.04103,0.006 -0.07134,0.01 -0.09077,0.01 -0.0087,0.009 -0.01392,0.0238 -0.01608,0.0453 0,0.0216 0.0042,0.0368 0.01293,0.0453 0.07341,-0.004 0.133727,-0.008 0.181229,-0.01 0.04966,-0.004 0.111285,-0.006 0.184696,-0.006 0.06909,0 0.128416,0.002 0.178076,0.006 0.04966,0.002 0.105692,0.006 0.168307,0.01 0.0022,-0.004 0.0044,-0.0175 0.0067,-0.039 0.0022,-0.0237 -0.0011,-0.0409 -0.0097,-0.0516 -0.0087,0 -0.02908,-0.003 -0.06146,-0.01 -0.03023,-0.009 -0.06153,-0.0214 -0.09393,-0.0387 -0.03023,-0.0172 -0.05066,-0.0377 -0.06146,-0.0614 -0.0065,-0.0129 -0.03351,-0.0822 -0.081,-0.20739 l -0.644545,-1.69063 c -0.0043,-0.002 -0.0076,-0.003 -0.0097,-0.003 0,-0.002 -0.002,-0.003 -0.0063,-0.003 z m 10.220995,0 c -0.0022,0.009 -0.0044,0.0238 -0.0067,0.0453 0,0.0195 0.0046,0.0346 0.01324,0.0453 0.01727,0 0.042,0.003 0.07438,0.01 0.03455,0.004 0.06685,0.0119 0.09707,0.0227 0.03023,0.009 0.04868,0.0182 0.05515,0.029 0.01728,0.026 0.02684,0.0551 0.02899,0.0876 0.0022,0.0324 0.0034,0.0766 0.0034,0.1327 v 0.85508 c -0.0022,0.18137 -0.03247,0.32275 -0.09077,0.42423 -0.05614,0.0993 -0.129627,0.16952 -0.220312,0.21055 -0.09069,0.0411 -0.191196,0.0614 -0.301312,0.0614 -0.190005,0 -0.334367,-0.0604 -0.433689,-0.18122 -0.04966,-0.0626 -0.08855,-0.14269 -0.116617,-0.23986 -0.02591,-0.0971 -0.03908,-0.21152 -0.03908,-0.34322 v -0.7804 -0.133 c 0.0022,-0.0432 0.0078,-0.0775 0.01639,-0.10338 0.0043,-0.013 0.02146,-0.0229 0.05169,-0.0293 0.03023,-0.006 0.06153,-0.0109 0.09392,-0.0129 0.03455,-0.004 0.05828,-0.006 0.07123,-0.006 0.0065,-0.009 0.0097,-0.0234 0.0097,-0.045 0.0022,-0.0216 -0.0011,-0.0368 -0.0097,-0.0453 -0.06477,0.002 -0.12739,0.005 -0.187847,0.01 -0.05829,0.002 -0.118613,0.003 -0.181228,0.003 -0.06045,0 -0.122081,-9.9e-4 -0.184697,-0.003 -0.06045,-0.004 -0.123072,-0.008 -0.187847,-0.01 -0.0087,0.009 -0.01292,0.0238 -0.01292,0.0453 0.0022,0.0216 0.0064,0.0368 0.01292,0.0453 0.01296,0 0.0357,0.002 0.06808,0.006 0.03455,0.002 0.06685,0.006 0.09708,0.0129 0.03238,0.006 0.04984,0.0163 0.05201,0.0293 0.0087,0.026 0.01292,0.0606 0.01292,0.10371 0.0022,0.041 0.0031,0.0852 0.0031,0.13268 v 0.92316 c 0,0.12524 0.02044,0.23861 0.06145,0.34009 0.04103,0.10148 0.09836,0.18652 0.171773,0.25561 0.0691,0.0668 0.152147,0.11898 0.249308,0.15569 0.09716,0.0368 0.20196,0.0549 0.314235,0.0549 0.164096,0 0.307466,-0.03 0.430537,-0.0905 0.125231,-0.0605 0.222449,-0.15569 0.291542,-0.28524 0.06909,-0.13171 0.103694,-0.30209 0.103694,-0.51153 v -0.85194 c 0,-0.0605 9.83e-4,-0.10563 0.0031,-0.13584 0.0043,-0.0302 0.0142,-0.0573 0.02931,-0.081 0.0087,-0.013 0.03006,-0.0239 0.06461,-0.0325 0.03455,-0.0108 0.07014,-0.0184 0.106847,-0.0227 0.0367,-0.004 0.06174,-0.006 0.0747,-0.006 0.0087,-0.0172 0.01193,-0.0344 0.0097,-0.0517 -0.0022,-0.0172 -0.0054,-0.0301 -0.0097,-0.0387 -0.04751,0.002 -0.08869,0.004 -0.123235,0.006 -0.03239,0.002 -0.06469,0.005 -0.09708,0.006 h -0.119768 c -0.0691,0 -0.129724,-9.8e-4 -0.181543,-0.003 -0.04966,-0.004 -0.105692,-0.008 -0.168308,-0.01 z m 3.704948,0 c -0.01511,0 -0.03785,0.0109 -0.06808,0.0324 -0.02807,0.0216 -0.04621,0.0411 -0.05485,0.0583 -0.03239,0.082 -0.07028,0.17697 -0.113464,0.28492 -0.04103,0.10796 -0.0842,0.22134 -0.12954,0.34009 -0.04534,0.1166 -0.09081,0.23095 -0.136158,0.34323 -0.04319,0.11012 -0.08207,0.21063 -0.116617,0.30132 -0.03455,0.0906 -0.06256,0.16286 -0.08416,0.21684 l -0.02899,0.0779 v -6.1e-4 c -0.02159,0.0561 -0.04433,0.11018 -0.06808,0.162 -0.02159,0.0496 -0.04862,0.0949 -0.081,0.13584 -0.01511,0.0216 -0.04642,0.038 -0.09392,0.0489 -0.04534,0.009 -0.07765,0.0129 -0.09707,0.0129 -0.0043,0.0108 -0.0067,0.0279 -0.0067,0.0516 0,0.0216 0.0024,0.0345 0.0067,0.0387 0.04966,-0.002 0.09054,-0.004 0.12292,-0.006 0.03238,-0.002 0.065,-0.005 0.09739,-0.006 0.03238,-0.002 0.07227,-0.003 0.119768,-0.003 0.04751,0 0.08508,6.1e-4 0.113151,0.003 0.03023,0.002 0.05955,0.005 0.08762,0.006 0.03023,0.002 0.06582,0.004 0.106846,0.006 0.0043,-0.0108 0.0053,-0.0269 0.0031,-0.0486 -0.0022,-0.0238 -0.0054,-0.0377 -0.0097,-0.0419 -0.0087,0 -0.03106,-0.002 -0.06776,-0.006 -0.03455,-0.004 -0.06915,-0.0129 -0.103695,-0.0259 -0.03238,-0.0151 -0.04854,-0.0346 -0.04854,-0.0583 0,-0.0216 0.0021,-0.0509 0.0063,-0.0876 0.0065,-0.0368 0.01934,-0.0819 0.03876,-0.13583 0.01727,-0.0518 0.03672,-0.10686 0.05831,-0.16516 0.02375,-0.0605 0.04319,-0.11252 0.05831,-0.1557 l 0.02616,-0.0647 0.0063,-0.003 c 0.0043,-0.004 0.0076,-0.006 0.0097,-0.006 0.07125,-0.004 0.129584,-0.006 0.174926,-0.006 0.04534,-0.002 0.10038,-0.003 0.165154,-0.003 h 0.029 0.03246 0.13269 c 0.04751,0 0.0877,6.1e-4 0.120084,0.003 0.0043,0 0.0087,0.002 0.01292,0.006 l 0.0063,0.006 0.01954,0.0551 c 0.01511,0.0345 0.03356,0.08 0.05515,0.13617 0.02159,0.054 0.04302,0.11 0.06461,0.1683 0.02159,0.0583 0.03905,0.11104 0.05201,0.15854 0.01511,0.0453 0.0227,0.078 0.0227,0.0974 0,0.0216 -0.0046,0.0365 -0.01324,0.045 -0.01511,0.013 -0.04313,0.0239 -0.08416,0.0324 -0.04103,0.006 -0.07102,0.01 -0.09046,0.01 -0.0087,0.009 -0.01424,0.0238 -0.01639,0.0453 0,0.0216 0.0042,0.0368 0.01292,0.0453 0.07341,-0.004 0.134043,-0.008 0.181545,-0.01 0.04966,-0.004 0.110969,-0.006 0.18438,-0.006 0.0691,0 0.128732,0.002 0.178393,0.006 0.04966,0.002 0.105691,0.006 0.168306,0.01 0.0022,-0.004 0.0041,-0.0175 0.0063,-0.039 0.0022,-0.0237 -7.78e-4,-0.0409 -0.0094,-0.0516 -0.0087,0 -0.0294,-0.003 -0.06178,-0.01 -0.03023,-0.009 -0.06153,-0.0214 -0.09392,-0.0387 -0.03023,-0.0172 -0.05066,-0.0377 -0.06146,-0.0614 -0.0065,-0.0129 -0.03351,-0.0822 -0.081,-0.20739 l -0.644544,-1.69063 c -0.0043,-0.002 -0.0073,-0.003 -0.0094,-0.003 0,-0.002 -0.0024,-0.003 -0.0067,-0.003 z m 26.889015,0 c -0.002,0.009 -0.005,0.0238 -0.006,0.0453 0,0.0195 0.004,0.0346 0.0129,0.0453 0.0172,0 0.042,0.003 0.0743,0.01 0.0346,0.004 0.0671,0.0119 0.0974,0.0227 0.0303,0.009 0.0484,0.0182 0.0549,0.029 0.0174,0.026 0.0272,0.0551 0.0293,0.0876 0.002,0.0324 0.003,0.0766 0.003,0.1327 v 0.85508 c -0.002,0.18137 -0.0324,0.32275 -0.0907,0.42423 -0.0561,0.0993 -0.12962,0.16952 -0.22031,0.21055 -0.0906,0.0411 -0.19121,0.0614 -0.30132,0.0614 -0.19,0 -0.33436,-0.0604 -0.43368,-0.18122 -0.0496,-0.0626 -0.0886,-0.14269 -0.11662,-0.23986 -0.026,-0.0971 -0.039,-0.21152 -0.039,-0.34322 v -0.7804 -0.133 c 0.002,-0.0432 0.008,-0.0775 0.0164,-0.10338 0.004,-0.013 0.0215,-0.0229 0.0516,-0.0293 0.0302,-0.006 0.0615,-0.0109 0.0939,-0.0129 0.0345,-0.004 0.0583,-0.006 0.0713,-0.006 0.006,-0.009 0.01,-0.0234 0.01,-0.045 0.002,-0.0216 -9.8e-4,-0.0368 -0.01,-0.0453 -0.0648,0.002 -0.1274,0.005 -0.18786,0.01 -0.0582,0.002 -0.1184,0.003 -0.1809,0.003 h -3.2e-4 c -0.0604,0 -0.12156,-9.9e-4 -0.18407,-0.003 -0.0605,-0.004 -0.12307,-0.008 -0.18785,-0.01 -0.009,0.009 -0.0129,0.0238 -0.0129,0.0453 0.002,0.0216 0.006,0.0368 0.0129,0.0453 0.0129,0 0.0357,0.002 0.0681,0.006 0.0346,0.002 0.0669,0.006 0.097,0.0129 0.0325,0.006 0.0496,0.0163 0.0516,0.0293 0.009,0.026 0.0129,0.0606 0.0129,0.10371 0.002,0.041 0.003,0.0852 0.003,0.13268 v 0.92316 c 0,0.12524 0.0204,0.23861 0.0615,0.34009 0.041,0.10148 0.0984,0.18652 0.17177,0.25561 0.0691,0.0668 0.15215,0.11898 0.2493,0.15569 0.0971,0.0368 0.20196,0.0549 0.31424,0.0549 0.16409,0 0.30778,-0.03 0.43085,-0.0905 0.12523,-0.0605 0.22214,-0.15569 0.29123,-0.28524 0.0691,-0.13171 0.1037,-0.30209 0.1037,-0.51153 v -0.85194 c 0,-0.0605 9.8e-4,-0.10563 0.003,-0.13584 0.004,-0.0302 0.0139,-0.0573 0.029,-0.081 0.009,-0.013 0.0304,-0.0239 0.0649,-0.0325 0.0345,-0.0108 0.0701,-0.0184 0.10685,-0.0227 0.0367,-0.004 0.0614,-0.006 0.0744,-0.006 0.009,-0.0172 0.0119,-0.0344 0.01,-0.0517 -0.002,-0.0172 -0.006,-0.0301 -0.01,-0.0387 -0.0476,0.002 -0.0884,0.004 -0.12292,0.006 -0.0324,0.002 -0.0647,0.005 -0.097,0.006 h -0.12009 c -0.0691,0 -0.12941,-9.8e-4 -0.18122,-0.003 -0.0496,-0.004 -0.10569,-0.008 -0.16831,-0.01 z m -39.239685,0.003 c -0.0087,0.009 -0.01293,0.0238 -0.01293,0.0453 0.0022,0.0216 0.0064,0.0368 0.01293,0.0453 0.01296,0 0.037,0.002 0.07154,0.006 0.03455,0.002 0.06685,0.006 0.09708,0.0129 0.03239,0.006 0.04954,0.016 0.05169,0.029 0.0087,0.026 0.01292,0.0606 0.01292,0.1037 0.0022,0.0411 0.0034,0.0852 0.0034,0.1327 v 1.35055 c 0,0.0475 -0.0014,0.092 -0.0034,0.133 0,0.0411 -0.0042,0.0743 -0.01292,0.10023 -0.0022,0.0108 -0.01931,0.0207 -0.05169,0.0293 -0.03023,0.009 -0.06253,0.0149 -0.09708,0.0192 -0.03455,0.002 -0.05859,0.003 -0.07154,0.003 -0.0065,0.009 -0.01077,0.0238 -0.01293,0.0453 0,0.0216 0.0042,0.0368 0.01293,0.0453 0.06261,0 0.123246,-0.002 0.181544,-0.006 0.05829,-0.002 0.124208,-0.003 0.197618,-0.003 0.211597,0 0.401433,0.002 0.569847,0.006 0.168414,0.004 0.338129,0.006 0.508701,0.006 0.0108,-0.0691 0.03322,-0.15247 0.06776,-0.24962 0.03671,-0.0971 0.07031,-0.18879 0.100543,-0.27515 -0.01296,-0.013 -0.03899,-0.0195 -0.07785,-0.0195 -0.02592,0 -0.04107,0.006 -0.04538,0.0195 -0.02592,0.0842 -0.05591,0.15111 -0.09046,0.20076 -0.03238,0.0496 -0.06798,0.0886 -0.106846,0.11662 -0.04318,0.0302 -0.101514,0.0529 -0.174925,0.0681 -0.07125,0.013 -0.137161,0.0195 -0.197618,0.0195 h -0.178078 c -0.06693,0 -0.116694,-9.8e-4 -0.149079,-0.003 -0.03023,-0.004 -0.05626,-0.0142 -0.07785,-0.0293 -0.0065,-0.004 -0.01076,-0.0192 -0.01292,-0.045 -0.0022,-0.026 -0.0031,-0.0543 -0.0031,-0.0845 v -0.0776 -0.0195 -1.35086 -0.0192 -0.0195 -0.11346 c 0.0022,-0.0345 0.0064,-0.0626 0.01292,-0.0842 0.0043,-0.013 0.02178,-0.0225 0.05201,-0.029 0.03023,-0.006 0.06254,-0.0109 0.09708,-0.0129 0.03455,-0.004 0.05828,-0.006 0.07123,-0.006 0.0065,-0.009 0.0097,-0.0238 0.0097,-0.0453 0.0022,-0.0217 -0.0011,-0.0368 -0.0097,-0.0453 -0.06477,0.002 -0.127392,0.006 -0.187849,0.01 -0.05829,0.002 -0.118927,0.003 -0.181543,0.003 -0.06045,0 -0.121765,-9.9e-4 -0.18438,-0.003 -0.06262,-0.004 -0.126541,-0.008 -0.191315,-0.01 z m 4.527885,6e-4 c -0.03455,0.002 -0.07244,0.005 -0.113464,0.01 -0.04103,0.002 -0.08848,0.003 -0.142462,0.003 v 6e-4 h -0.116618 c -0.03023,-0.002 -0.06055,-0.004 -0.09077,-0.006 -0.03023,-0.002 -0.07011,-0.005 -0.119769,-0.006 -0.0022,0.002 -0.0031,0.0183 -0.0031,0.0486 0,0.028 9.83e-4,0.0423 0.0031,0.0423 0.01296,0 0.0357,0.003 0.06808,0.01 0.03455,0.004 0.06685,0.0119 0.09708,0.0227 0.03238,0.009 0.05084,0.0192 0.05515,0.0322 0.0065,0.0172 0.0097,0.0368 0.0097,0.0583 0.0022,0.0216 0.0031,0.0443 0.0031,0.0681 0,0.0151 -9.84e-4,0.0669 -0.0031,0.15538 -0.0022,0.0864 -0.0054,0.19974 -0.0097,0.34008 -0.0022,0.13819 -0.0064,0.29473 -0.01292,0.46962 -0.0043,0.17489 -0.0099,0.35747 -0.01639,0.54747 -0.0022,0.0346 -0.0054,0.0649 -0.0097,0.0907 -0.0043,0.0237 -0.01388,0.0461 -0.02899,0.0677 -0.0087,0.013 -0.03137,0.0238 -0.06808,0.0324 -0.03671,0.009 -0.07429,0.0152 -0.113151,0.0195 -0.0367,0.004 -0.06174,0.006 -0.0747,0.006 -0.0065,0.013 -0.0085,0.0305 -0.0063,0.052 0.0022,0.0216 0.0041,0.0345 0.0063,0.0387 0.07341,-0.004 0.135035,-0.008 0.184696,-0.01 0.04966,-0.004 0.111285,-0.006 0.184695,-0.006 0.0691,0 0.126117,0.002 0.171459,0.006 0.04534,0.002 0.09939,0.006 0.162003,0.01 0.0022,-0.004 0.0044,-0.0182 0.0067,-0.0419 0.0022,-0.0238 -0.0011,-0.0403 -0.0097,-0.0488 -0.0087,0 -0.03236,-6.1e-4 -0.07123,-0.003 -0.03886,-0.004 -0.07776,-0.0109 -0.116616,-0.0195 -0.03671,-0.009 -0.05845,-0.0204 -0.06493,-0.0356 -0.0043,-0.0129 -0.0076,-0.0281 -0.0097,-0.0453 -0.0022,-0.0195 -0.0031,-0.0365 -0.0031,-0.0516 0,-0.006 9.83e-4,-0.0434 0.0031,-0.11032 0.0022,-0.0691 0.0044,-0.15842 0.0067,-0.26853 0.0043,-0.11228 0.0076,-0.23752 0.0097,-0.3757 0.0043,-0.13818 0.0087,-0.28087 0.01293,-0.4277 0.0043,-0.14682 0.0076,-0.28919 0.0097,-0.42739 l 0.770617,1.84602 c 0.0022,0 0.0044,9.9e-4 0.0067,0.003 0.01079,0.004 0.01837,0.005 0.0227,0.003 0.01296,-0.002 0.0268,-0.0141 0.04192,-0.0356 0.01727,-0.0238 0.03374,-0.0485 0.04885,-0.0744 0.01511,-0.026 0.02468,-0.0434 0.02899,-0.0521 0.06045,-0.15329 0.116488,-0.29566 0.168308,-0.42737 0.05397,-0.13388 0.10703,-0.26439 0.15885,-0.39177 0.05182,-0.12955 0.104558,-0.26368 0.158536,-0.40187 0.05614,-0.13818 0.11677,-0.28814 0.181545,-0.45008 0.0065,-0.0151 0.01176,-0.0227 0.01607,-0.0227 0.01079,0 0.01837,0.009 0.0227,0.0259 0.0043,0.0172 0.0067,0.0292 0.0067,0.0356 0.0065,0.17057 0.01176,0.3304 0.01607,0.47938 0.0043,0.14683 0.0087,0.2915 0.01293,0.43401 0.0043,0.14034 0.0087,0.28732 0.01292,0.44063 0,0.0237 0.0014,0.055 0.0034,0.0939 0.0022,0.0368 0.0031,0.0667 0.0031,0.0905 0,0.0216 -0.0024,0.0476 -0.0067,0.0779 -0.0043,0.0303 -0.0119,0.0487 -0.0227,0.0551 -0.01296,0.006 -0.0334,0.0127 -0.06146,0.0192 l -0.08416,0.0132 c -0.02807,0.002 -0.0485,0.003 -0.06146,0.003 -0.0065,0.013 -0.0087,0.0305 -0.0067,0.052 0.0022,0.0216 0.0044,0.0345 0.0067,0.0387 0.07341,-0.004 0.137021,-0.008 0.190999,-0.01 0.05397,-0.004 0.117589,-0.006 0.191,-0.006 0.06909,0 0.132702,0.002 0.191,0.006 0.06045,0.002 0.122079,0.006 0.184695,0.01 0.0022,-0.004 0.0031,-0.0161 0.0031,-0.0356 0.0022,-0.0216 -7.78e-4,-0.04 -0.0094,-0.0551 -0.0087,0 -0.03038,-6.1e-4 -0.06493,-0.003 -0.03238,-0.004 -0.06469,-0.01 -0.09708,-0.0164 -0.03238,-0.009 -0.05183,-0.0205 -0.05831,-0.0356 -0.01511,-0.0368 -0.02499,-0.0822 -0.02931,-0.13615 -0.0043,-0.054 -0.0073,-0.11101 -0.0094,-0.17146 -0.0022,-0.10364 -0.0054,-0.22229 -0.0097,-0.35615 -0.0022,-0.13387 -0.0054,-0.26899 -0.0097,-0.40501 -0.0022,-0.13819 -0.0044,-0.26243 -0.0067,-0.37255 -0.0022,-0.11011 -0.0041,-0.19217 -0.0063,-0.24615 0,-0.0195 9.83e-4,-0.0408 0.0031,-0.0647 0.0022,-0.0237 0.0064,-0.0432 0.01292,-0.0583 0.0065,-0.0108 0.02493,-0.0207 0.05515,-0.0293 0.03023,-0.009 0.06153,-0.0149 0.09392,-0.0192 0.03455,-0.004 0.05927,-0.006 0.07438,-0.006 l -0.0031,-0.0419 c -0.0022,-0.0281 -0.0044,-0.0445 -0.0067,-0.0489 -0.03886,0.002 -0.0939,0.005 -0.165153,0.006 -0.0691,0.002 -0.131711,0.003 -0.187848,0.003 -0.06477,0 -0.147828,-0.003 -0.249308,-0.01 l -0.0227,0.0647 c -0.01511,0.0432 -0.03356,0.094 -0.05515,0.15223 -0.02159,0.0583 -0.04203,0.11234 -0.06146,0.16201 -0.06045,0.15545 -0.116487,0.29783 -0.168306,0.42737 -0.04966,0.1274 -0.09942,0.25593 -0.149082,0.38547 -0.04966,0.1274 -0.10569,0.27108 -0.168306,0.43086 -0.0022,0.009 -0.0064,0.0129 -0.01292,0.0129 -0.0065,0 -0.01076,-0.002 -0.01292,-0.006 -0.04534,-0.11227 -0.0951,-0.2329 -0.14908,-0.36246 -0.05397,-0.1317 -0.109017,-0.26352 -0.165156,-0.39523 -0.05614,-0.1317 -0.109188,-0.25595 -0.158849,-0.37254 -0.04751,-0.11876 -0.08937,-0.22125 -0.126073,-0.30762 -0.03455,-0.0863 -0.05828,-0.14998 -0.07123,-0.19099 z m 5.476265,0 c -0.0087,0.009 -0.01292,0.0238 -0.01292,0.0453 0.0022,0.0216 0.0064,0.0365 0.01292,0.0451 0.01296,0 0.0357,0.002 0.06808,0.006 0.03455,0.002 0.06716,0.006 0.09739,0.0129 0.03239,0.006 0.04953,0.016 0.05169,0.029 0.0087,0.0259 0.01292,0.0606 0.01292,0.1037 0.0022,0.0411 0.0031,0.0855 0.0031,0.133 v 1.35054 c 0,0.19001 -0.0063,0.34656 -0.01922,0.46964 -0.01296,0.12307 -0.03042,0.21798 -0.05201,0.28492 -0.02159,0.067 -0.0473,0.1134 -0.07753,0.13931 -0.03023,0.028 -0.06153,0.0419 -0.09392,0.0419 -0.02807,0 -0.05509,-0.008 -0.081,-0.0227 -0.02375,-0.015 -0.04419,-0.0303 -0.06146,-0.0453 -0.02159,-0.0195 -0.04433,-0.0399 -0.06808,-0.0615 -0.02591,-0.0195 -0.05392,-0.029 -0.08416,-0.029 -0.04966,0 -0.08756,0.0172 -0.113465,0.0516 -0.02591,0.0345 -0.03876,0.0768 -0.03876,0.12639 0,0.0302 0.0086,0.0539 0.02585,0.0713 0.01944,0.015 0.05173,0.0279 0.09707,0.0388 0.04534,0.013 0.07995,0.0195 0.103694,0.0195 0.142504,0 0.268731,-0.0366 0.378847,-0.11 0.112276,-0.0734 0.199615,-0.19106 0.26223,-0.353 0.06477,-0.16194 0.09739,-0.37482 0.09739,-0.63824 v -1.33417 -0.133 c 0.0022,-0.0432 0.0075,-0.0775 0.01608,-0.10338 0.0043,-0.013 0.02178,-0.0229 0.05201,-0.0293 0.03023,-0.006 0.06254,-0.0109 0.09708,-0.0129 0.03455,-0.004 0.05828,-0.006 0.07123,-0.006 0.0065,-0.009 0.0097,-0.0235 0.0097,-0.0451 0.0022,-0.0216 -0.0011,-0.0368 -0.0097,-0.0453 -0.06477,0.002 -0.127393,0.005 -0.187848,0.01 -0.06045,0.002 -0.122081,0.003 -0.184697,0.003 -0.06045,0 -0.12208,-9.9e-4 -0.184696,-0.003 -0.06045,-0.004 -0.123072,-0.008 -0.187847,-0.01 z m 4.666881,0 c -0.06477,0.002 -0.127392,0.005 -0.187849,0.01 -0.05829,0.002 -0.118613,0.003 -0.181229,0.003 v 3e-4 c -0.06045,0 -0.12208,-9.8e-4 -0.184695,-0.003 -0.06262,-0.004 -0.126225,-0.008 -0.190999,-0.01 -0.0087,0.009 -0.01293,0.0258 -0.01293,0.0516 0.0022,0.0237 0.0064,0.0399 0.01293,0.0486 0.01296,0 0.03668,0.002 0.07123,0.006 0.03455,0.002 0.06685,0.006 0.09707,0.0129 0.03238,0.006 0.04984,0.016 0.05201,0.029 0.0087,0.026 0.01292,0.0606 0.01292,0.10369 0.0022,0.0411 0.0031,0.0852 0.0031,0.1327 v 1.33132 c 0,0.0476 -9.84e-4,0.0916 -0.0031,0.13269 0,0.0411 -0.0042,0.0746 -0.01292,0.10055 -0.0022,0.0108 -0.01962,0.0203 -0.05201,0.029 -0.03023,0.009 -0.06254,0.0152 -0.09707,0.0195 -0.03455,0.002 -0.05828,0.003 -0.07123,0.003 -0.0065,0.009 -0.01077,0.0261 -0.01293,0.0521 0,0.0238 0.0042,0.0399 0.01293,0.0486 0.06477,-0.004 0.128383,-0.008 0.190999,-0.01 0.06262,-0.004 0.12424,-0.006 0.184695,-0.006 0.06262,0 0.122932,0.002 0.181229,0.006 0.06045,0.002 0.123074,0.006 0.187849,0.01 0.0087,-0.009 0.01193,-0.0248 0.0097,-0.0486 0,-0.026 -0.0033,-0.0434 -0.0097,-0.0521 -0.01296,0 -0.03668,-6.1e-4 -0.07123,-0.003 -0.03455,-0.004 -0.06685,-0.0109 -0.09707,-0.0195 -0.03023,-0.009 -0.04737,-0.0182 -0.05169,-0.029 -0.0065,-0.0216 -0.01077,-0.0486 -0.01292,-0.081 v -0.11347 -0.0195 -0.0192 -0.62846 c 0,-0.002 9.83e-4,-0.004 0.0031,-0.006 0.0043,-0.002 0.01718,-0.005 0.03876,-0.006 0.02159,-0.002 0.06707,-0.005 0.136158,-0.006 0.06909,-0.002 0.176869,-0.003 0.323691,-0.003 0.08205,0 0.164108,0.002 0.246156,0.006 0.0842,0.002 0.162974,0.005 0.236385,0.006 l 0.0034,0.003 c 0.0022,0 0.0031,0.002 0.0031,0.006 v 0.62846 c 0,0.0476 -9.83e-4,0.0916 -0.0031,0.13269 0,0.0411 -0.0042,0.0743 -0.01292,0.10023 -0.0022,0.0108 -0.01962,0.0207 -0.05201,0.0293 -0.03023,0.009 -0.06254,0.0152 -0.09707,0.0195 -0.03238,0.002 -0.05512,0.003 -0.06808,0.003 -0.0065,0.009 -0.01077,0.0262 -0.01292,0.052 0,0.0238 0.0042,0.0399 0.01292,0.0486 0.06477,-0.004 0.127393,-0.008 0.187848,-0.01 0.06262,-0.004 0.12424,-0.006 0.184697,-0.006 0.06261,0 0.122932,0.002 0.181227,0.006 0.06045,0.002 0.123075,0.006 0.187849,0.01 0.0087,-0.009 0.01193,-0.0248 0.0097,-0.0486 0,-0.026 -0.0033,-0.0434 -0.0097,-0.052 -0.01296,0 -0.03668,-6.1e-4 -0.07123,-0.003 -0.03239,-0.004 -0.0637,-0.0109 -0.09392,-0.0195 -0.03023,-0.009 -0.04738,-0.0186 -0.05169,-0.0293 -0.0087,-0.026 -0.01424,-0.0592 -0.01639,-0.10023 v -0.13269 -1.33131 -0.13271 c 0.0022,-0.0432 0.0078,-0.0778 0.01639,-0.10368 0.0043,-0.013 0.02146,-0.0225 0.05169,-0.029 0.03023,-0.006 0.06153,-0.0109 0.09392,-0.0129 0.03455,-0.004 0.05828,-0.006 0.07123,-0.006 0.0065,-0.009 0.0097,-0.0248 0.0097,-0.0486 0.0022,-0.0259 -0.0012,-0.0434 -0.0097,-0.052 -0.06477,0.002 -0.127392,0.006 -0.187849,0.01 -0.05829,0.002 -0.118613,0.003 -0.181227,0.003 -0.06045,0 -0.122081,-9.9e-4 -0.184697,-0.003 -0.06045,-0.004 -0.123072,-0.008 -0.187848,-0.01 -0.0087,0.009 -0.01292,0.0262 -0.01292,0.052 0.0022,0.0237 0.0064,0.0399 0.01292,0.0486 0.01296,0 0.0357,0.002 0.06808,0.006 0.03455,0.002 0.06685,0.006 0.09707,0.0129 0.03238,0.006 0.04985,0.016 0.05201,0.029 0.0087,0.026 0.01292,0.0606 0.01292,0.10368 0.0022,0.0411 0.0031,0.0852 0.0031,0.13271 v 0.55062 c 0,0.002 -9.83e-4,0.005 -0.0031,0.006 l -0.0034,0.003 c -0.07125,0.002 -0.151011,0.005 -0.239537,0.006 -0.08637,0.002 -0.167434,0.003 -0.243004,0.003 -0.08852,0 -0.173879,-6.1e-4 -0.255927,-0.003 -0.08205,-0.002 -0.161808,-0.005 -0.239538,-0.006 h -0.0031 c -0.0022,-0.002 -0.0031,-0.004 -0.0031,-0.006 v -0.55377 -0.0195 -0.0195 -0.11347 c 0.0022,-0.0345 0.0064,-0.0626 0.01293,-0.0841 0.0043,-0.013 0.02146,-0.0225 0.05169,-0.029 0.03023,-0.006 0.06254,-0.0109 0.09707,-0.0129 0.03455,-0.004 0.05828,-0.006 0.07123,-0.006 0.0065,-0.009 0.0097,-0.0247 0.0097,-0.0486 0.0022,-0.0259 -0.0011,-0.0431 -0.0097,-0.0517 z m 2.032284,0 c -0.0087,0.009 -0.01292,0.0238 -0.01292,0.0453 0.0022,0.0216 0.0064,0.0368 0.01292,0.0453 0.01296,0 0.03668,0.002 0.07123,0.006 0.03455,0.002 0.06717,0.006 0.09739,0.0129 0.03238,0.006 0.04953,0.0163 0.05169,0.0293 0.0087,0.0259 0.01292,0.0605 0.01292,0.10369 0.0022,0.0411 0.0031,0.0852 0.0031,0.13268 v 1.35056 c 0,0.0475 -9.83e-4,0.0916 -0.0031,0.13268 0,0.0411 -0.0042,0.0746 -0.01292,0.10055 -0.0022,0.0108 -0.01931,0.0203 -0.05169,0.029 -0.03023,0.009 -0.06284,0.0152 -0.09739,0.0195 -0.03455,0.002 -0.05827,0.003 -0.07123,0.003 -0.0065,0.009 -0.01076,0.0238 -0.01292,0.0453 0,0.0216 0.0042,0.0365 0.01292,0.045 0.06477,-0.004 0.1287,-0.008 0.191315,-0.01 0.06262,-0.004 0.123925,-0.006 0.18438,-0.006 0.06262,0 0.123248,0.002 0.181545,0.006 0.06045,0.002 0.123073,0.005 0.187847,0.01 0.0087,-0.009 0.01161,-0.0235 0.0094,-0.045 0,-0.0217 -0.0029,-0.0368 -0.0094,-0.0453 -0.01296,0 -0.03668,-9.9e-4 -0.07123,-0.003 -0.03455,-0.004 -0.06717,-0.0109 -0.09739,-0.0195 -0.03023,-0.009 -0.04738,-0.0182 -0.05169,-0.029 -0.0065,-0.0216 -0.01077,-0.0486 -0.01292,-0.081 v -0.11346 -0.0192 -0.0195 -1.35054 -0.0195 -0.0195 -0.11315 c 0.0022,-0.0345 0.0064,-0.0626 0.01292,-0.0842 0.0043,-0.013 0.02146,-0.0229 0.05169,-0.0293 0.03023,-0.006 0.06284,-0.0109 0.09739,-0.0129 0.03455,-0.004 0.05828,-0.006 0.07123,-0.006 0.0065,-0.009 0.0094,-0.0235 0.0094,-0.045 0.0022,-0.0216 -7.78e-4,-0.0368 -0.0094,-0.0453 -0.06477,0.002 -0.127391,0.005 -0.187847,0.01 -0.05829,0.002 -0.118928,0.003 -0.181545,0.003 -0.06045,0 -0.121765,-6e-4 -0.18438,-0.003 -0.06262,-0.004 -0.12654,-0.008 -0.191315,-0.01 z m 1.507509,0 c -0.0087,0.009 -0.01292,0.0238 -0.01292,0.0453 0.0022,0.0216 0.0064,0.0365 0.01292,0.0451 0.01296,0 0.03668,0.002 0.07123,0.006 0.03455,0.002 0.06717,0.006 0.09739,0.0129 0.03238,0.006 0.04953,0.016 0.05169,0.029 0.0087,0.0259 0.01292,0.0606 0.01292,0.1037 0.0022,0.0411 0.0031,0.0855 0.0031,0.133 v 1.35054 c 0,0.0476 -9.83e-4,0.0916 -0.0031,0.1327 0,0.041 -0.0042,0.0743 -0.01292,0.10023 -0.0022,0.0108 -0.01931,0.0207 -0.05169,0.0293 -0.03023,0.009 -0.06284,0.0152 -0.09739,0.0195 -0.03455,0.002 -0.05828,0.003 -0.07123,0.003 -0.0065,0.009 -0.01076,0.0238 -0.01292,0.0453 0,0.0216 0.0042,0.0368 0.01292,0.0453 h 0.790474 c 0.222392,0 0.407942,-0.029 0.556923,-0.0873 0.148982,-0.0605 0.266637,-0.14152 0.353003,-0.24301 0.08853,-0.10148 0.151144,-0.21583 0.187848,-0.34322 0.0367,-0.12739 0.05515,-0.25822 0.05515,-0.39209 0,-0.19648 -0.04416,-0.37116 -0.132691,-0.52446 -0.08852,-0.15546 -0.21606,-0.27771 -0.382314,-0.36624 -0.166255,-0.0906 -0.364978,-0.13584 -0.596007,-0.13584 -0.06909,0 -0.146868,9.8e-4 -0.233234,0.003 h -0.223463 c -0.06045,0 -0.121765,-9.8e-4 -0.184381,-0.003 -0.06262,-0.004 -0.12654,-0.008 -0.191315,-0.01 z m 2.699522,0 c -0.0087,0.009 -0.01293,0.0238 -0.01293,0.0453 0.0022,0.0216 0.0064,0.0368 0.01293,0.0453 0.01293,0 0.03666,0.002 0.07124,0.006 0.03455,0.002 0.06683,0.006 0.09707,0.0129 0.03242,0.006 0.04987,0.0163 0.052,0.0293 0.0087,0.0259 0.01293,0.0605 0.01293,0.10369 0.0022,0.0411 0.0035,0.0852 0.0035,0.13268 v 1.35056 c 0,0.0475 -7.07e-4,0.0916 -0.0035,0.13268 0,0.0411 -0.0042,0.0746 -0.01293,0.10055 -0.0022,0.0108 -0.01964,0.0203 -0.052,0.029 -0.03023,0.009 -0.06252,0.0152 -0.09707,0.0195 -0.03455,0.002 -0.05828,0.003 -0.07124,0.003 -0.0064,0.009 -0.01074,0.0238 -0.01293,0.0453 0,0.0216 0.0042,0.0365 0.01293,0.045 0.06478,-0.004 0.128386,-0.008 0.191004,-0.01 0.06259,-0.004 0.124238,-0.006 0.184694,-0.006 0.06259,0 0.122926,0.002 0.181227,0.006 0.06047,0.002 0.123073,0.005 0.187853,0.01 0.0087,-0.009 0.01187,-0.0235 0.0097,-0.045 0,-0.0217 -0.0029,-0.0368 -0.0097,-0.0453 -0.01293,0 -0.03666,-9.9e-4 -0.07124,-0.003 -0.03455,-0.004 -0.06682,-0.0109 -0.09708,-0.0195 -0.03023,-0.009 -0.0474,-0.0182 -0.05164,-0.029 -0.0064,-0.0216 -0.0108,-0.0486 -0.01293,-0.081 v -0.11346 -0.0192 -0.0195 -1.35054 -0.0195 -0.0195 -0.11315 c 0.0029,-0.0345 0.0064,-0.0626 0.01293,-0.0842 0.0042,-0.013 0.02147,-0.0229 0.05164,-0.0293 0.03023,-0.006 0.06252,-0.0109 0.09708,-0.0129 0.03455,-0.004 0.05828,-0.006 0.07124,-0.006 0.0064,-0.009 0.0097,-0.0235 0.0097,-0.045 0.0022,-0.0216 -0.0014,-0.0368 -0.0097,-0.0453 -0.06478,0.002 -0.127398,0.005 -0.187853,0.01 -0.05828,0.002 -0.118609,0.003 -0.181227,0.003 -0.06047,0 -0.122085,-6e-4 -0.184694,-0.003 -0.06259,-0.004 -0.126225,-0.008 -0.191004,-0.01 z m 6.501549,0 c -0.0345,0.002 -0.0725,0.005 -0.11346,0.01 -0.0411,0.002 -0.0885,0.003 -0.14247,0.003 l 6.1e-4,6e-4 h -0.11662 c -0.0303,-0.002 -0.0606,-0.004 -0.0907,-0.006 -0.0303,-0.002 -0.0701,-0.005 -0.11977,-0.006 -0.002,0.002 -0.003,0.0183 -0.003,0.0486 0,0.028 9.9e-4,0.0423 0.003,0.0423 0.013,0 0.0357,0.003 0.0681,0.01 0.0346,0.004 0.0669,0.0119 0.097,0.0227 0.0323,0.009 0.0508,0.0192 0.0551,0.0322 0.006,0.0172 0.01,0.0368 0.01,0.0583 0.002,0.0216 0.003,0.0443 0.003,0.0681 0,0.0151 -6.1e-4,0.0669 -0.003,0.15538 -0.003,0.0864 -0.006,0.19974 -0.01,0.34008 -0.002,0.13819 -0.006,0.29473 -0.0129,0.46962 -0.004,0.17489 -0.01,0.35747 -0.0164,0.54747 -0.003,0.0346 -0.006,0.0649 -0.01,0.0907 -0.004,0.0237 -0.014,0.0461 -0.029,0.0677 -0.009,0.013 -0.0314,0.0238 -0.0681,0.0324 -0.0368,0.009 -0.0742,0.0152 -0.11315,0.0195 -0.0367,0.004 -0.0617,0.006 -0.0747,0.006 -0.006,0.013 -0.008,0.0305 -0.006,0.052 0.003,0.0216 0.004,0.0345 0.006,0.0387 0.0734,-0.004 0.13503,-0.008 0.1847,-0.01 0.0496,-0.004 0.11128,-0.006 0.1847,-0.006 0.0691,0 0.12611,0.002 0.17146,0.006 0.0453,0.002 0.0994,0.006 0.162,0.01 0.003,-0.004 0.005,-0.0182 0.006,-0.0419 0.003,-0.0238 -9.9e-4,-0.0403 -0.01,-0.0488 -0.009,0 -0.0325,-6.1e-4 -0.0713,-0.003 -0.0388,-0.004 -0.0778,-0.0109 -0.11662,-0.0195 -0.0368,-0.009 -0.0585,-0.0204 -0.0649,-0.0356 -0.004,-0.0129 -0.008,-0.0281 -0.01,-0.0453 -0.002,-0.0195 -0.003,-0.0365 -0.003,-0.0516 0,-0.006 9.8e-4,-0.0434 0.003,-0.11032 0.003,-0.0691 0.004,-0.15842 0.006,-0.26853 0.004,-0.11228 0.008,-0.23752 0.01,-0.3757 0.004,-0.13818 0.009,-0.28087 0.0129,-0.4277 0.004,-0.14682 0.008,-0.28919 0.01,-0.42739 l 0.77062,1.84602 c 0.003,0 0.005,9.9e-4 0.006,0.003 0.0108,0.004 0.0184,0.005 0.0227,0.003 0.0129,-0.002 0.0267,-0.0141 0.0419,-0.0356 0.0172,-0.0238 0.0334,-0.0485 0.0486,-0.0744 0.0151,-0.026 0.025,-0.0434 0.0293,-0.0521 0.0605,-0.15329 0.11649,-0.29566 0.1683,-0.42737 0.054,-0.13388 0.10704,-0.26439 0.15885,-0.39177 0.0518,-0.12955 0.10456,-0.26368 0.15854,-0.40187 0.0561,-0.13818 0.11677,-0.28814 0.18155,-0.45008 0.006,-0.0151 0.0118,-0.0227 0.016,-0.0227 0.0108,0 0.0184,0.009 0.0227,0.0259 0.004,0.0172 0.006,0.0292 0.006,0.0356 0.006,0.17057 0.0118,0.3304 0.0161,0.47938 0.004,0.14683 0.009,0.2915 0.0129,0.43401 0.004,0.14034 0.009,0.28732 0.0129,0.44063 0,0.0237 9.9e-4,0.055 0.003,0.0939 0.002,0.0368 0.003,0.0667 0.003,0.0905 0,0.0216 -0.003,0.0476 -0.006,0.0779 -0.004,0.0303 -0.0119,0.0487 -0.0227,0.0551 -0.013,0.006 -0.0334,0.0127 -0.0614,0.0192 -0.028,0.004 -0.0561,0.009 -0.0842,0.0132 -0.028,0.002 -0.0488,0.003 -0.0617,0.003 -0.006,0.013 -0.008,0.0305 -0.006,0.052 0.002,0.0216 0.004,0.0345 0.006,0.0387 0.0734,-0.004 0.13733,-0.008 0.19132,-0.01 0.054,-0.004 0.11759,-0.006 0.19099,-0.006 0.0691,0 0.13271,0.002 0.191,0.006 0.0605,0.002 0.12209,0.006 0.1847,0.01 0.002,-0.004 0.003,-0.0161 0.003,-0.0356 0.002,-0.0216 -9.8e-4,-0.04 -0.01,-0.0551 -0.009,0 -0.0304,-6.1e-4 -0.0649,-0.003 -0.0323,-0.004 -0.0646,-0.01 -0.097,-0.0164 -0.0323,-0.009 -0.0519,-0.0205 -0.0583,-0.0356 -0.0151,-0.0368 -0.0248,-0.0822 -0.029,-0.13615 -0.004,-0.054 -0.008,-0.11101 -0.01,-0.17146 -0.003,-0.10364 -0.006,-0.22229 -0.01,-0.35615 -0.003,-0.13387 -0.006,-0.26899 -0.01,-0.40501 -0.003,-0.13819 -0.004,-0.26243 -0.006,-0.37255 -0.002,-0.11011 -0.005,-0.19217 -0.006,-0.24615 0,-0.0195 9.8e-4,-0.0408 0.003,-0.0647 0.003,-0.0237 0.006,-0.0432 0.0129,-0.0583 0.006,-0.0108 0.025,-0.0207 0.0551,-0.0293 0.0302,-0.009 0.0615,-0.0149 0.0939,-0.0192 0.0345,-0.004 0.0593,-0.006 0.0744,-0.006 l -0.003,-0.0419 c -0.003,-0.0281 -0.004,-0.0445 -0.006,-0.0489 -0.0388,0.002 -0.0939,0.005 -0.16516,0.006 -0.0691,0.002 -0.13171,0.003 -0.18785,0.003 -0.0648,0 -0.14782,-0.003 -0.2493,-0.01 l -0.0227,0.0647 c -0.0151,0.0432 -0.0335,0.094 -0.0552,0.15223 -0.0216,0.0583 -0.042,0.11234 -0.0614,0.16201 -0.0605,0.15545 -0.1168,0.29783 -0.16863,0.42737 -0.0496,0.1274 -0.0991,0.25593 -0.14877,0.38547 -0.0496,0.1274 -0.106,0.27108 -0.16861,0.43086 -0.002,0.009 -0.006,0.0129 -0.0129,0.0129 -0.006,0 -0.0109,-0.002 -0.0129,-0.006 -0.0453,-0.11227 -0.0951,-0.2329 -0.14909,-0.36246 -0.054,-0.1317 -0.10901,-0.26352 -0.16515,-0.39523 -0.0561,-0.1317 -0.10888,-0.25595 -0.15853,-0.37254 -0.0476,-0.11876 -0.0897,-0.22125 -0.12639,-0.30762 -0.0345,-0.0863 -0.0582,-0.14998 -0.0712,-0.19099 z m 3.68067,0.0905 c 0.12308,0 0.23117,0.0303 0.324,0.0907 0.095,0.0583 0.17478,0.13707 0.23954,0.23638 0.0669,0.0993 0.11668,0.2094 0.14909,0.33032 0.0346,0.1209 0.0516,0.24284 0.0516,0.36592 0,0.10579 -0.0129,0.21258 -0.0388,0.32054 -0.0237,0.10579 -0.0626,0.20302 -0.11662,0.29154 -0.054,0.0885 -0.12287,0.15972 -0.20708,0.21369 -0.0843,0.0518 -0.1857,0.0779 -0.30446,0.0779 -0.12307,0 -0.23215,-0.0303 -0.32716,-0.0907 -0.0928,-0.0605 -0.17161,-0.14022 -0.23638,-0.23954 -0.0648,-0.10148 -0.11453,-0.21287 -0.14908,-0.33377 -0.0324,-0.12308 -0.0486,-0.24601 -0.0486,-0.36908 0,-0.1058 0.0119,-0.21158 0.0356,-0.31739 0.026,-0.1058 0.0648,-0.20202 0.11662,-0.28839 0.054,-0.0864 0.12287,-0.15525 0.20708,-0.20707 0.0842,-0.054 0.1857,-0.081 0.30446,-0.081 z m 4.91966,0 c 0.12307,0 0.23084,0.0303 0.32369,0.0907 0.095,0.0583 0.17508,0.13707 0.23986,0.23638 0.0669,0.0993 0.11635,0.2094 0.14876,0.33032 0.0346,0.1209 0.0521,0.24284 0.0521,0.36592 0,0.10579 -0.0129,0.21258 -0.0387,0.32054 -0.0238,0.10579 -0.0626,0.20302 -0.11663,0.29154 -0.054,0.0885 -0.12318,0.15972 -0.20738,0.21369 -0.0843,0.0518 -0.18572,0.0779 -0.30447,0.0779 -0.12307,0 -0.23216,-0.0303 -0.32716,-0.0907 -0.0928,-0.0605 -0.17161,-0.14022 -0.23638,-0.23954 -0.0648,-0.10148 -0.11452,-0.21287 -0.14908,-0.33377 -0.0324,-0.12308 -0.0486,-0.24601 -0.0486,-0.36908 0,-0.1058 0.0119,-0.21158 0.0356,-0.31739 0.0259,-0.1058 0.0648,-0.20202 0.11661,-0.28839 0.054,-0.0864 0.12318,-0.15525 0.20739,-0.20707 0.0843,-0.054 0.18571,-0.081 0.30447,-0.081 z m -17.053162,0.0227 c 0.114436,0 0.223519,0.0181 0.327158,0.0548 0.105799,0.0346 0.199723,0.0919 0.281772,0.17178 0.0842,0.0778 0.150116,0.17924 0.197617,0.30446 0.04966,0.12524 0.07438,0.27749 0.07438,0.4567 0,0.20512 -0.03889,0.37452 -0.116617,0.50839 -0.07773,0.13171 -0.180227,0.22991 -0.307616,0.29469 -0.125232,0.0648 -0.263323,0.097 -0.414463,0.097 -0.05829,0 -0.113335,-0.003 -0.165155,-0.01 -0.04966,-0.006 -0.08097,-0.0184 -0.09393,-0.0356 -0.0043,-0.006 -0.0089,-0.025 -0.01323,-0.0551 -0.0022,-0.0324 -0.0031,-0.0647 -0.0031,-0.097 v -0.0747 -1.34708 -3.2e-4 -0.0195 -0.0192 -0.11032 c 0.0022,-0.0368 0.0064,-0.0657 0.01292,-0.0873 0.0043,-0.0108 0.02178,-0.0184 0.05201,-0.0227 0.03023,-0.004 0.06254,-0.006 0.09708,-0.006 0.03455,-0.002 0.05828,-0.003 0.07123,-0.003 z m -20.647802,0.26537 0.278621,0.76463 -0.0034,0.01 c 0,0.004 -0.002,0.006 -0.0063,0.006 -0.04751,0.002 -0.09198,0.005 -0.133006,0.006 -0.03887,0.002 -0.08303,0.003 -0.132692,0.003 h -0.13931 c -0.05614,-0.002 -0.104589,-0.005 -0.145614,-0.006 -0.0022,0 -0.0044,-0.002 -0.0067,-0.006 v -0.006 z m 13.925944,0 0.278619,0.76463 -0.0031,0.01 c 0,0.004 -0.0024,0.006 -0.0067,0.006 -0.04751,0.002 -0.09167,0.005 -0.132691,0.006 -0.03886,0.002 -0.08303,0.003 -0.132692,0.003 h -0.13931 c -0.05613,-0.002 -0.104904,-0.005 -0.145927,-0.006 -0.0022,0 -0.0041,-0.002 -0.0063,-0.006 v -0.006 z m -9.126373,0.84879 c -0.02159,0 -0.06147,0.002 -0.119767,0.006 -0.05614,0.002 -0.121056,0.006 -0.194467,0.01 -0.07125,0.002 -0.141448,0.005 -0.21054,0.01 -0.0691,0.004 -0.126117,0.008 -0.171459,0.01 l -0.06808,0.003 v 3.3e-4 c -0.01079,0.0238 -0.02036,0.0495 -0.02899,0.0776 -0.0065,0.0259 -0.0097,0.0539 -0.0097,0.0841 0,0.0238 0.0063,0.0356 0.01922,0.0356 l 0.291541,-0.0129 c 0.09932,-0.004 0.189953,-0.009 0.272002,-0.013 0.0842,-0.004 0.15111,-0.008 0.20077,-0.01 0.02807,-0.0605 0.04223,-0.11779 0.04223,-0.17177 0,-0.0195 -0.0076,-0.0293 -0.0227,-0.0293 z" />
    </g>
  </g>
  <metadata
     id="metadata5284">
    <rdf:RDF>
      <cc:Work
         rdf:about="">
        <cc:license
           rdf:resource="http://creativecommons.org/licenses/by-nc-sa/4.0/" />
        <dc:title>Al-Mujahidin Mosque Logo</dc:title>
        <dc:creator>
          <cc:Agent>
            <dc:title>Hervy Qurrotul Ainur Rozi</dc:title>
          </cc:Agent>
        </dc:creator>
      </cc:Work>
      <cc:License
         rdf:about="http://creativecommons.org/licenses/by-nc-sa/4.0/">
        <cc:permits
           rdf:resource="http://creativecommons.org/ns#Reproduction" />
        <cc:permits
           rdf:resource="http://creativecommons.org/ns#Distribution" />
        <cc:requires
           rdf:resource="http://creativecommons.org/ns#Notice" />
        <cc:requires
           rdf:resource="http://creativecommons.org/ns#Attribution" />
        <cc:prohibits
           rdf:resource="http://creativecommons.org/ns#CommercialUse" />
        <cc:permits
           rdf:resource="http://creativecommons.org/ns#DerivativeWorks" />
        <cc:requires
           rdf:resource="http://creativecommons.org/ns#ShareAlike" />
      </cc:License>
    </rdf:RDF>
  </metadata>
</svg>
